<svg xmlns="http://www.w3.org/2000/svg" viewBox="0 0 1024 576" width="1024" height="576" font-family="Georgia, 'Times New Roman', serif"><defs><clipPath id="clip1"><rect x="0" y="0" width="605" height="463" /></clipPath></defs><rect x="0" y="0" width="1024" height="576" fill="rgb(16,16,24)" /><text x="28" y="20" font-size="24" text-anchor="start" dominant-baseline="text-before-edge" fill="rgb(216,198,143)" font-family="Georgia, 'Times New Roman', serif" font-weight="bold">Paul’s First Missionary Journey — Acts 13</text><text x="28" y="54" font-size="17" text-anchor="start" dominant-baseline="text-before-edge" fill="rgb(255,244,170)" font-family="Georgia, 'Times New Roman', serif" font-style="italic">verse 51 — They shake the dust off their feet against them and come to Iconium.</text><text x="28" y="554" font-size="13" text-anchor="start" dominant-baseline="text-before-edge" fill="rgb(140,130,100)" font-family="Georgia, 'Times New Roman', serif" font-style="italic">route and ancient site locations are approximate</text><g clip-path="url(#clip1)" transform="translate(27,92)"><rect x="0" y="0" width="605" height="463" fill="rgb(24,36,54)" /><polygon points="-21.18,-21.09 614.19,-21.09 614.19,479.82 512.53,479.82 510.83,437.64 504.06,395.45 502.36,353.27 505.75,316.36 516.77,295.27 519.31,279.45 522.7,258.36 519.31,239.38 534.56,226.73 522.7,205.64 482.88,198.25 440.52,205.64 412.56,216.18 387.15,234.11 349.88,252.04 313.45,264.69 275.33,279.45 249.91,287.89 217.72,278.4 183.83,264.69 149.95,250.98 117.75,240.44 95.73,224.62 88.95,203.53 75.4,191.93 58.45,205.64 46.59,226.73 19.48,238.33 -21.18,243.6" fill="rgb(34,35,29)" stroke="rgb(74,70,56)" stroke-width="2" /><polygon points="209.25,406 207.55,390.18 232.97,351.16 266.85,365.93 296.5,357.49 330.39,351.16 371.9,337.45 400.7,321.64 368.51,340.62 351.57,365.93 343.1,382.8 326.16,400.73 304.98,416.55 268.55,435.53 234.66,429.2 217.72,427.09 210.09,414.44" fill="rgb(34,35,29)" stroke="rgb(74,70,56)" stroke-width="2" /><text x="65.23" y="108.62" font-size="13" text-anchor="middle" dominant-baseline="central" fill="rgb(140,130,100)" font-family="Georgia, 'Times New Roman', serif">PISIDIA</text><text x="135.54" y="232" font-size="13" text-anchor="middle" dominant-baseline="central" fill="rgb(140,130,100)" font-family="Georgia, 'Times New Roman', serif">PAMPHYLIA</text><text x="254.15" y="171.89" font-size="13" text-anchor="middle" dominant-baseline="central" fill="rgb(140,130,100)" font-family="Georgia, 'Times New Roman', serif">LYCAONIA</text><text x="385.46" y="26.36" font-size="13" text-anchor="middle" dominant-baseline="central" fill="rgb(140,130,100)" font-family="Georgia, 'Times New Roman', serif">GALATIA</text><text x="398.16" y="207.75" font-size="13" text-anchor="middle" dominant-baseline="central" fill="rgb(140,130,100)" font-family="Georgia, 'Times New Roman', serif">CILICIA</text><text x="567.59" y="321.64" font-size="13" text-anchor="middle" dominant-baseline="central" fill="rgb(140,130,100)" font-family="Georgia, 'Times New Roman', serif">SYRIA</text><text x="282.1" y="397.56" font-size="13" text-anchor="middle" dominant-baseline="central" fill="rgb(140,130,100)" font-family="Georgia, 'Times New Roman', serif">CYPRUS</text><text x="110.13" y="393.35" font-size="14" text-anchor="middle" dominant-baseline="central" fill="rgb(110,132,158)" font-family="Georgia, 'Times New Roman', serif" font-style="italic">The Great Sea</text><text x="110.13" y="422.87" font-size="14" text-anchor="middle" dominant-baseline="central" fill="rgb(110,132,158)" font-family="Georgia, 'Times New Roman', serif" font-style="italic">(Mediterranean)</text><polyline points="534.56,268.91 515.07,277.35" stroke-linejoin="round" fill="none" stroke="rgb(138,129,95)" stroke-width="3" /><polygon points="517.42,276.33 526.02,268.03 529.36,275.73" fill="rgb(138,129,95)" /><polyline points="515.07,277.35 343.1,376.47" stroke-linejoin="round" fill="none" stroke="rgb(78,112,148)" stroke-width="2.5" stroke-dasharray="2,6" /><polygon points="415.29,334.86 421.81,326.95 425.4,333.19" fill="rgb(78,112,148)" /><polyline points="343.1,376.47 216.87,420.76" stroke-linejoin="round" fill="none" stroke="rgb(138,129,95)" stroke-width="3" /><polygon points="267.07,403.15 276.25,395.48 279.03,403.41" fill="rgb(138,129,95)" /><polyline points="216.87,420.76 84.72,188.76" stroke-linejoin="round" fill="none" stroke="rgb(78,112,148)" stroke-width="2.5" stroke-dasharray="2,6" /><polygon points="141.22,287.95 149.1,294.51 142.84,298.07" fill="rgb(78,112,148)" /><polyline points="84.72,188.76 113.52,47.45" stroke-linejoin="round" fill="none" stroke="rgb(138,129,95)" stroke-width="3" /><polygon points="101.96,104.18 103.83,116 95.6,114.32" fill="rgb(138,129,95)" /><polyline points="223.65,92.8 207.55,123.38" stroke-linejoin="round" fill="none" stroke="rgb(74,70,56)" stroke-width="1.5" stroke-dasharray="5,6" /><polyline points="207.55,123.38 296.5,147.64" stroke-linejoin="round" fill="none" stroke="rgb(74,70,56)" stroke-width="1.5" stroke-dasharray="5,6" /><polyline points="84.72,188.76 72.01,197.2" stroke-linejoin="round" fill="none" stroke="rgb(74,70,56)" stroke-width="1.5" stroke-dasharray="5,6" /><polyline points="72.01,197.2 156.72,260.47 245.68,305.82 372.75,304.76 471.87,287.89 534.56,268.91" stroke-linejoin="round" fill="none" stroke="rgb(74,70,56)" stroke-width="1.5" stroke-dasharray="5,6" /><polyline points="113.52,47.45 223.65,92.8" stroke-linejoin="round" fill="none" stroke="rgb(74,70,56)" stroke-width="1" stroke-dasharray="5,6" /><polyline points="113.52,47.45 223.65,92.8" fill="none" stroke-linejoin="round" stroke="rgb(255,244,170)" stroke-width="4" stroke-opacity="0.949" /><circle cx="534.56" cy="268.91" r="4" fill="rgb(138,129,95)" stroke="rgb(16,16,24)" stroke-width="1" /><text x="534.56" y="256.91" font-size="14" text-anchor="middle" dominant-baseline="text-after-edge" fill="rgb(216,198,143)" font-family="Georgia, 'Times New Roman', serif">Antioch in Syria</text><circle cx="515.07" cy="277.35" r="4" fill="rgb(138,129,95)" stroke="rgb(16,16,24)" stroke-width="1" /><text x="508.07" y="288.35" font-size="14" text-anchor="end" dominant-baseline="central" fill="rgb(216,198,143)" font-family="Georgia, 'Times New Roman', serif">Seleucia</text><circle cx="343.1" cy="376.47" r="4" fill="rgb(138,129,95)" stroke="rgb(16,16,24)" stroke-width="1" /><text x="352.1" y="377.47" font-size="14" text-anchor="start" dominant-baseline="central" fill="rgb(216,198,143)" font-family="Georgia, 'Times New Roman', serif">Salamis</text><circle cx="216.87" cy="420.76" r="4" fill="rgb(138,129,95)" stroke="rgb(16,16,24)" stroke-width="1" /><text x="207.87" y="426.76" font-size="14" text-anchor="end" dominant-baseline="central" fill="rgb(216,198,143)" font-family="Georgia, 'Times New Roman', serif">Paphos</text><circle cx="84.72" cy="188.76" r="4" fill="rgb(138,129,95)" stroke="rgb(16,16,24)" stroke-width="1" /><text x="93.72" y="183.76" font-size="14" text-anchor="start" dominant-baseline="central" fill="rgb(216,198,143)" font-family="Georgia, 'Times New Roman', serif">Perga</text><circle cx="72.01" cy="197.2" r="3.5" fill="rgb(24,36,54)" stroke="rgb(74,70,56)" stroke-width="1.5" /><text x="64.01" y="207.2" font-size="14" text-anchor="end" dominant-baseline="central" fill="rgb(140,130,100)" font-family="Georgia, 'Times New Roman', serif">Attalia</text><circle cx="113.52" cy="47.45" r="4" fill="rgb(138,129,95)" stroke="rgb(16,16,24)" stroke-width="1" /><text x="113.52" y="35.45" font-size="14" text-anchor="middle" dominant-baseline="text-after-edge" fill="rgb(216,198,143)" font-family="Georgia, 'Times New Roman', serif">Pisidian Antioch</text><circle cx="223.65" cy="92.8" r="7" fill="rgb(255,244,170)" stroke="rgb(16,16,24)" stroke-width="2" /><circle cx="223.65" cy="92.8" r="11" fill="none" stroke="rgb(255,244,170)" stroke-width="2" stroke-opacity="0.898" /><text x="233.65" y="89.8" font-size="15" text-anchor="start" dominant-baseline="central" fill="rgb(255,244,170)" font-family="Georgia, 'Times New Roman', serif" font-weight="bold">Iconium</text><circle cx="207.55" cy="123.38" r="3.5" fill="rgb(24,36,54)" stroke="rgb(74,70,56)" stroke-width="1.5" /><text x="198.55" y="126.38" font-size="14" text-anchor="end" dominant-baseline="central" fill="rgb(140,130,100)" font-family="Georgia, 'Times New Roman', serif">Lystra</text><circle cx="296.5" cy="147.64" r="3.5" fill="rgb(24,36,54)" stroke="rgb(74,70,56)" stroke-width="1.5" /><text x="306.5" y="151.64" font-size="14" text-anchor="start" dominant-baseline="central" fill="rgb(140,130,100)" font-family="Georgia, 'Times New Roman', serif">Derbe</text><line x1="579" y1="419" x2="579" y2="397" stroke="rgb(140,130,100)" stroke-width="2" /><line x1="574" y1="405" x2="579" y2="397" stroke="rgb(140,130,100)" stroke-width="2" /><line x1="584" y1="405" x2="579" y2="397" stroke="rgb(140,130,100)" stroke-width="2" /><text x="569" y="399" font-size="14" text-anchor="end" dominant-baseline="central" fill="rgb(140,130,100)" font-family="Georgia, 'Times New Roman', serif">N</text><line x1="539.5" y1="445" x2="587" y2="445" stroke="rgb(140,130,100)" stroke-width="2" /><line x1="539.5" y1="442" x2="539.5" y2="448" stroke="rgb(140,130,100)" stroke-width="2" /><line x1="587" y1="442" x2="587" y2="448" stroke="rgb(140,130,100)" stroke-width="2" /><text x="563.25" y="439" font-size="14" text-anchor="middle" dominant-baseline="text-after-edge" fill="rgb(140,130,100)" font-family="Georgia, 'Times New Roman', serif" font-style="italic">50 km</text></g><rect x="26" y="91" width="606" height="464" fill="none" stroke="rgb(74,70,56)" stroke-width="1" /><text x="648" y="108" font-size="20" text-anchor="start" dominant-baseline="text-before-edge" fill="rgb(216,198,143)" font-family="Georgia, 'Times New Roman', serif" font-weight="bold">PAUL’S FIRST JOURNEY</text><text x="648" y="134" font-size="14" text-anchor="start" dominant-baseline="text-before-edge" fill="rgb(140,130,100)" font-family="Georgia, 'Times New Roman', serif" font-style="italic">Acts 13–14  ·  about AD 46–48</text><line x1="657" y1="168" x2="657" y2="438" stroke="rgb(74,70,56)" stroke-width="2" /><circle cx="657" cy="168" r="4" fill="rgb(138,129,95)" stroke="rgb(74,70,56)" stroke-width="1.5" /><text x="674" y="162" font-size="14" text-anchor="start" dominant-baseline="central" fill="rgb(216,198,143)" font-family="Georgia, 'Times New Roman', serif">Antioch in Syria</text><text x="674" y="176" font-size="11" text-anchor="start" dominant-baseline="central" fill="rgb(140,130,100)" font-family="Georgia, 'Times New Roman', serif" font-style="italic">Syria — sent out</text><line x1="657" y1="199" x2="657" y2="218" stroke="rgb(78,112,148)" stroke-width="2" stroke-dasharray="2,4" /><circle cx="657" cy="195" r="4" fill="rgb(138,129,95)" stroke="rgb(74,70,56)" stroke-width="1.5" /><text x="674" y="189" font-size="14" text-anchor="start" dominant-baseline="central" fill="rgb(216,198,143)" font-family="Georgia, 'Times New Roman', serif">Seleucia</text><text x="674" y="203" font-size="11" text-anchor="start" dominant-baseline="central" fill="rgb(140,130,100)" font-family="Georgia, 'Times New Roman', serif" font-style="italic">the port</text><circle cx="657" cy="222" r="4" fill="rgb(138,129,95)" stroke="rgb(74,70,56)" stroke-width="1.5" /><text x="674" y="216" font-size="14" text-anchor="start" dominant-baseline="central" fill="rgb(216,198,143)" font-family="Georgia, 'Times New Roman', serif">Salamis</text><text x="674" y="230" font-size="11" text-anchor="start" dominant-baseline="central" fill="rgb(140,130,100)" font-family="Georgia, 'Times New Roman', serif" font-style="italic">Cyprus</text><line x1="657" y1="253" x2="657" y2="272" stroke="rgb(78,112,148)" stroke-width="2" stroke-dasharray="2,4" /><circle cx="657" cy="249" r="4" fill="rgb(138,129,95)" stroke="rgb(74,70,56)" stroke-width="1.5" /><text x="674" y="243" font-size="14" text-anchor="start" dominant-baseline="central" fill="rgb(216,198,143)" font-family="Georgia, 'Times New Roman', serif">Paphos</text><text x="674" y="257" font-size="11" text-anchor="start" dominant-baseline="central" fill="rgb(140,130,100)" font-family="Georgia, 'Times New Roman', serif" font-style="italic">Cyprus</text><circle cx="657" cy="276" r="4" fill="rgb(138,129,95)" stroke="rgb(74,70,56)" stroke-width="1.5" /><text x="674" y="270" font-size="14" text-anchor="start" dominant-baseline="central" fill="rgb(216,198,143)" font-family="Georgia, 'Times New Roman', serif">Perga</text><text x="674" y="284" font-size="11" text-anchor="start" dominant-baseline="central" fill="rgb(140,130,100)" font-family="Georgia, 'Times New Roman', serif" font-style="italic">Pamphylia</text><circle cx="657" cy="303" r="4" fill="rgb(138,129,95)" stroke="rgb(74,70,56)" stroke-width="1.5" /><text x="674" y="297" font-size="14" text-anchor="start" dominant-baseline="central" fill="rgb(216,198,143)" font-family="Georgia, 'Times New Roman', serif">Pisidian Antioch</text><text x="674" y="311" font-size="11" text-anchor="start" dominant-baseline="central" fill="rgb(140,130,100)" font-family="Georgia, 'Times New Roman', serif" font-style="italic">Pisidia</text><circle cx="657" cy="330" r="6" fill="rgb(255,244,170)" stroke="rgb(16,16,24)" stroke-width="1" /><text x="674" y="324" font-size="15" text-anchor="start" dominant-baseline="central" fill="rgb(255,244,170)" font-family="Georgia, 'Times New Roman', serif" font-weight="bold">Iconium</text><text x="674" y="338" font-size="11" text-anchor="start" dominant-baseline="central" fill="rgb(140,130,100)" font-family="Georgia, 'Times New Roman', serif" font-style="italic">Lycaonia</text><circle cx="657" cy="357" r="4" fill="rgb(24,36,54)" stroke="rgb(74,70,56)" stroke-width="1.5" /><text x="674" y="351" font-size="14" text-anchor="start" dominant-baseline="central" fill="rgb(216,198,143)" font-family="Georgia, 'Times New Roman', serif">Lystra</text><text x="674" y="365" font-size="11" text-anchor="start" dominant-baseline="central" fill="rgb(140,130,100)" font-family="Georgia, 'Times New Roman', serif" font-style="italic">Lycaonia</text><circle cx="657" cy="384" r="4" fill="rgb(24,36,54)" stroke="rgb(74,70,56)" stroke-width="1.5" /><text x="674" y="378" font-size="14" text-anchor="start" dominant-baseline="central" fill="rgb(216,198,143)" font-family="Georgia, 'Times New Roman', serif">Derbe</text><text x="674" y="392" font-size="11" text-anchor="start" dominant-baseline="central" fill="rgb(140,130,100)" font-family="Georgia, 'Times New Roman', serif" font-style="italic">the turning point</text><line x1="657" y1="415" x2="657" y2="434" stroke="rgb(78,112,148)" stroke-width="2" stroke-dasharray="2,4" /><circle cx="657" cy="411" r="4" fill="rgb(24,36,54)" stroke="rgb(74,70,56)" stroke-width="1.5" /><text x="674" y="405" font-size="14" text-anchor="start" dominant-baseline="central" fill="rgb(216,198,143)" font-family="Georgia, 'Times New Roman', serif">Attalia</text><text x="674" y="419" font-size="11" text-anchor="start" dominant-baseline="central" fill="rgb(140,130,100)" font-family="Georgia, 'Times New Roman', serif" font-style="italic">Pamphylia</text><circle cx="657" cy="438" r="4" fill="rgb(24,36,54)" stroke="rgb(74,70,56)" stroke-width="1.5" /><text x="674" y="432" font-size="14" text-anchor="start" dominant-baseline="central" fill="rgb(216,198,143)" font-family="Georgia, 'Times New Roman', serif">Antioch in Syria</text><text x="674" y="446" font-size="11" text-anchor="start" dominant-baseline="central" fill="rgb(140,130,100)" font-family="Georgia, 'Times New Roman', serif" font-style="italic">Syria — home</text><text x="648" y="490" font-size="14" text-anchor="start" dominant-baseline="text-before-edge" fill="rgb(140,130,100)" font-family="Georgia, 'Times New Roman', serif" font-style="italic">Jews grow jealous; they turn</text><text x="648" y="510" font-size="14" text-anchor="start" dominant-baseline="text-before-edge" fill="rgb(140,130,100)" font-family="Georgia, 'Times New Roman', serif" font-style="italic">to the Gentiles, then are expelled.</text></svg>