<svg xmlns="http://www.w3.org/2000/svg" viewBox="0 0 1024 576" width="1024" height="576" font-family="Georgia, 'Times New Roman', serif"><rect x="0" y="0" width="1024" height="576" fill="rgb(16,16,24)" /><g transform="translate(0 0)"><rect x="-40" y="191.2" width="1104" height="2700.8" fill="rgb(33,29,24)" /><polyline points="-40,2892 1064,2892" stroke-linejoin="round" stroke-linecap="round" fill="none" stroke="rgb(66,56,42)" stroke-width="2" /><rect x="-40" y="2892" width="1104" height="832" fill="rgb(40,32,23)" /><polyline points="-40,3724 1064,3724" stroke-linejoin="round" stroke-linecap="round" fill="none" stroke="rgb(66,56,42)" stroke-width="2" /><rect x="-40" y="3724" width="1104" height="704" fill="rgb(31,28,33)" /><polyline points="-40,4428 1064,4428" stroke-linejoin="round" stroke-linecap="round" fill="none" stroke="rgb(66,56,42)" stroke-width="2" /><rect x="-40" y="4428" width="1104" height="576" fill="rgb(27,26,20)" /><polyline points="-40,5004 1064,5004" stroke-linejoin="round" stroke-linecap="round" fill="none" stroke="rgb(66,56,42)" stroke-width="2" /><rect x="-40" y="5004" width="1104" height="932" fill="rgb(24,23,27)" /><polyline points="-40,191.2 1064,191.2" stroke-linejoin="round" stroke-linecap="round" fill="none" stroke="rgb(138,129,95)" stroke-width="3" /><polyline points="60,186.2 66,179.2" stroke-linejoin="round" stroke-linecap="round" fill="none" stroke="rgb(74,70,56)" stroke-width="2" /><polyline points="150,186.2 156,179.2" stroke-linejoin="round" stroke-linecap="round" fill="none" stroke="rgb(74,70,56)" stroke-width="2" /><polyline points="240,186.2 246,179.2" stroke-linejoin="round" stroke-linecap="round" fill="none" stroke="rgb(74,70,56)" stroke-width="2" /><polyline points="330,186.2 336,179.2" stroke-linejoin="round" stroke-linecap="round" fill="none" stroke="rgb(74,70,56)" stroke-width="2" /><polyline points="420,186.2 426,179.2" stroke-linejoin="round" stroke-linecap="round" fill="none" stroke="rgb(74,70,56)" stroke-width="2" /><polyline points="600,186.2 606,179.2" stroke-linejoin="round" stroke-linecap="round" fill="none" stroke="rgb(74,70,56)" stroke-width="2" /><polyline points="690,186.2 696,179.2" stroke-linejoin="round" stroke-linecap="round" fill="none" stroke="rgb(74,70,56)" stroke-width="2" /><polyline points="780,186.2 786,179.2" stroke-linejoin="round" stroke-linecap="round" fill="none" stroke="rgb(74,70,56)" stroke-width="2" /><polyline points="870,186.2 876,179.2" stroke-linejoin="round" stroke-linecap="round" fill="none" stroke="rgb(74,70,56)" stroke-width="2" /><polyline points="960,186.2 966,179.2" stroke-linejoin="round" stroke-linecap="round" fill="none" stroke="rgb(74,70,56)" stroke-width="2" /><ellipse cx="559.26" cy="5036" rx="130" ry="130" fill="rgb(255,244,170)" fill-opacity="0.063" /><ellipse cx="559.26" cy="5036" rx="104" ry="104" fill="rgb(255,244,170)" fill-opacity="0.043" /><ellipse cx="559.26" cy="5036" rx="80" ry="80" fill="rgb(255,244,170)" fill-opacity="0.051" /><ellipse cx="559.26" cy="5036" rx="58" ry="58" fill="rgb(255,244,170)" fill-opacity="0.075" /><ellipse cx="559.26" cy="5036" rx="40" ry="40" fill="rgb(255,244,170)" fill-opacity="0.098" /><ellipse cx="559.26" cy="5036" rx="26" ry="26" fill="rgb(255,244,170)" fill-opacity="0.122" /><polyline points="483.76,191.2 493.41,207.2 503.63,223.2 514.1,239.2 524.51,255.2 534.53,271.2 543.87,287.2 552.24,303.2 559.37,319.2 565.06,335.2 569.13,351.2 571.45,367.2 571.95,383.2 570.63,399.2 567.51,415.2 562.7,431.2 556.34,447.2 548.63,463.2 539.79,479.2 530.11,495.2 519.87,511.2 509.4,527.2 499,543.2 489,559.2 479.7,575.2 471.39,591.2 464.32,607.2 458.71,623.2 454.72,639.2 452.49,655.2 452.07,671.2 453.48,687.2 456.68,703.2 461.57,719.2 468,735.2 475.78,751.2 484.66,767.2 494.37,783.2 504.63,799.2 515.11,815.2 525.49,831.2 535.47,847.2 544.72,863.2 552.98,879.2 559.98,895.2 565.52,911.2 569.43,927.2 571.58,943.2 571.91,959.2 570.41,975.2 567.12,991.2 562.15,1007.2 555.65,1023.2 547.82,1039.2 538.89,1055.2 529.14,1071.2 518.87,1087.2 508.39,1103.2 498.02,1119.2 488.07,1135.2 478.86,1151.2 470.66,1167.2 463.72,1183.2 458.25,1199.2 454.43,1215.2 452.37,1231.2 452.12,1247.2 453.71,1263.2 457.08,1279.2 462.12,1295.2 468.69,1311.2 476.58,1327.2 485.56,1343.2 495.34,1359.2 505.63,1375.2 516.11,1391.2 526.47,1407.2 536.39,1423.2 545.56,1439.2 553.71,1455.2 560.58,1471.2 565.97,1487.2 569.71,1503.2 571.69,1519.2 571.84,1535.2 570.17,1551.2 566.72,1567.2 561.59,1583.2 554.96,1599.2 547.01,1615.2 537.99,1631.2 528.18,1647.2 517.87,1663.2 507.38,1679.2 497.04,1695.2 487.15,1711.2 478.02,1727.2 469.93,1743.2 463.12,1759.2 457.81,1775.2 454.15,1791.2 452.26,1807.2 452.2,1823.2 453.96,1839.2 457.49,1855.2 462.69,1871.2 469.4,1887.2 477.4,1903.2 486.47,1919.2 496.31,1935.2 506.63,1951.2 517.12,1967.2 527.45,1983.2 537.31,1999.2 546.39,2015.2 554.43,2031.2 561.17,2047.2 566.4,2063.2 569.98,2079.2 571.78,2095.2 571.76,2111.2 569.91,2127.2 566.29,2143.2 561.02,2159.2 554.25,2175.2 546.18,2191.2 537.07,2207.2 527.2,2223.2 516.86,2239.2 506.38,2255.2 496.06,2271.2 486.23,2287.2 477.19,2303.2 469.22,2319.2 462.55,2335.2 457.39,2351.2 453.89,2367.2 452.18,2383.2 452.29,2399.2 454.22,2415.2 457.92,2431.2 463.27,2447.2 470.11,2463.2 478.23,2479.2 487.38,2495.2 497.29,2511.2 507.64,2527.2 518.12,2543.2 528.42,2559.2 538.22,2575.2 547.22,2591.2 555.14,2607.2 561.74,2623.2 566.82,2639.2 570.23,2655.2 571.86,2671.2 571.66,2687.2 569.64,2703.2 565.86,2719.2 560.43,2735.2 553.52,2751.2 545.35,2767.2 536.15,2783.2 526.22,2799.2 515.86,2815.2 505.37,2831.2 495.09,2847.2 485.33,2863.2 476.38,2879.2 468.52,2895.2 461.98,2911.2 456.98,2927.2 453.65,2943.2 452.11,2959.2 452.4,2975.2 454.5,2991.2 458.37,3007.2 463.87,3023.2 470.84,3039.2 479.07,3055.2 488.31,3071.2 498.27,3087.2 508.65,3103.2 519.13,3119.2 529.39,3135.2 539.12,3151.2 548.03,3167.2 555.83,3183.2 562.3,3199.2 567.22,3215.2 570.46,3231.2 571.92,3247.2 571.54,3263.2 569.35,3279.2 565.4,3295.2 559.83,3311.2 552.79,3327.2 544.51,3343.2 535.23,3359.2 525.24,3375.2 514.85,3391.2 504.37,3407.2 494.13,3423.2 484.43,3439.2 475.57,3455.2 467.83,3471.2 461.43,3487.2 456.58,3503.2 453.42,3519.2 452.06,3535.2 452.52,3551.2 454.8,3567.2 458.83,3583.2 464.48,3599.2 471.58,3615.2 479.92,3631.2 489.24,3647.2 499.25,3663.2 509.65,3679.2 520.13,3695.2 530.35,3711.2 540.02,3727.2 548.83,3743.2 556.51,3759.2 562.84,3775.2 567.61,3791.2 570.68,3807.2 571.96,3823.2 571.41,3839.2 569.05,3855.2 564.94,3871.2 559.21,3887.2 552.04,3903.2 543.65,3919.2 534.29,3935.2 524.26,3951.2 513.84,3967.2 503.37,3983.2 493.17,3999.2 483.54,4015.2 474.77,4031.2 467.15,4047.2 460.9,4063.2 456.2,4079.2 453.21,4095.2 452.02,4111.2 452.66,4127.2 455.11,4143.2 459.3,4159.2 465.1,4175.2 472.33,4191.2 480.78,4207.2 490.17,4223.2 500.24,4239.2 510.66,4255.2 521.13,4271.2 531.31,4287.2 540.91,4303.2 549.62,4319.2 557.18,4335.2 563.37,4351.2 567.98,4367.2 570.88,4383.2 571.99,4399.2 571.26,4415.2 568.73,4431.2 564.46,4447.2 558.58,4463.2 551.29,4479.2 542.79,4495.2 533.35,4511.2 523.27,4527.2 512.83,4543.2 502.38,4559.2 492.21,4575.2 482.65,4591.2 473.99,4607.2 466.49,4623.2 460.37,4639.2 455.84,4655.2 453.02,4671.2 452,4687.2 452.82,4703.2 455.44,4719.2 459.79,4735.2 465.74,4751.2 473.1,4767.2 481.64,4783.2 491.12,4799.2 501.23,4815.2 511.67,4831.2 522.12,4847.2 532.26,4863.2 541.79,4879.2 550.4,4895.2 557.84,4911.2 563.88,4927.2 568.34,4943.2 571.07,4959.2 572,4975.2 571.1,4991.2 568.39,5007.2 563.96,5023.2 559.26,5036" stroke-linejoin="round" stroke-linecap="round" fill="none" stroke="rgb(74,70,56)" stroke-width="3" /><polyline points="483.76,191.2 493.41,207.2 503.63,223.2 512,236" stroke-linejoin="round" stroke-linecap="round" fill="none" stroke="rgb(138,129,95)" stroke-width="3" /><polyline points="512,236 546,254" stroke-linejoin="round" stroke-linecap="round" fill="none" stroke="rgb(74,70,56)" stroke-width="2" /><ellipse cx="512" cy="236" rx="8" ry="8" fill="rgb(16,16,24)" stroke="rgb(138,129,95)" stroke-width="2" /><text x="492" y="236" font-size="18" text-anchor="end" dominant-baseline="central" fill="rgb(255,244,170)" font-family="Georgia, 'Times New Roman', serif" font-weight="bold">Jesus</text><text x="492" y="256" font-size="13" text-anchor="end" dominant-baseline="central" fill="rgb(140,130,100)" font-family="Georgia, 'Times New Roman', serif" font-style="italic">the Christ</text><polyline points="550.65,300 584.65,318" stroke-linejoin="round" stroke-linecap="round" fill="none" stroke="rgb(74,70,56)" stroke-width="2" /><ellipse cx="550.65" cy="300" rx="5" ry="5" fill="rgb(16,16,24)" stroke="rgb(138,129,95)" stroke-width="2" /><text x="530.65" y="300" font-size="18" text-anchor="end" dominant-baseline="central" fill="rgb(255,244,170)" font-family="Georgia, 'Times New Roman', serif">Joseph</text><polyline points="571.13,364 605.13,382" stroke-linejoin="round" stroke-linecap="round" fill="none" stroke="rgb(74,70,56)" stroke-width="2" /><ellipse cx="571.13" cy="364" rx="5" ry="5" fill="rgb(16,16,24)" stroke="rgb(74,70,56)" stroke-width="2" /><text x="551.13" y="364" font-size="18" text-anchor="end" dominant-baseline="central" fill="rgb(140,130,100)" font-family="Georgia, 'Times New Roman', serif">Mattith</text><polyline points="563.79,428 529.79,446" stroke-linejoin="round" stroke-linecap="round" fill="none" stroke="rgb(74,70,56)" stroke-width="2" /><ellipse cx="563.79" cy="428" rx="5" ry="5" fill="rgb(16,16,24)" stroke="rgb(74,70,56)" stroke-width="2" /><text x="583.79" y="428" font-size="18" text-anchor="start" dominant-baseline="central" fill="rgb(140,130,100)" font-family="Georgia, 'Times New Roman', serif">Levi</text><polyline points="532.1,492 498.1,510" stroke-linejoin="round" stroke-linecap="round" fill="none" stroke="rgb(74,70,56)" stroke-width="2" /><ellipse cx="532.1" cy="492" rx="5" ry="5" fill="rgb(16,16,24)" stroke="rgb(74,70,56)" stroke-width="2" /><text x="552.1" y="492" font-size="18" text-anchor="start" dominant-baseline="central" fill="rgb(140,130,100)" font-family="Georgia, 'Times New Roman', serif">Melchiah</text><polyline points="490.95,556 456.95,574" stroke-linejoin="round" stroke-linecap="round" fill="none" stroke="rgb(74,70,56)" stroke-width="2" /><ellipse cx="490.95" cy="556" rx="5" ry="5" fill="rgb(16,16,24)" stroke="rgb(74,70,56)" stroke-width="2" /><text x="510.95" y="556" font-size="18" text-anchor="start" dominant-baseline="central" fill="rgb(140,130,100)" font-family="Georgia, 'Times New Roman', serif">Janna</text><polyline points="459.71,620 425.71,638" stroke-linejoin="round" stroke-linecap="round" fill="none" stroke="rgb(74,70,56)" stroke-width="2" /><ellipse cx="459.71" cy="620" rx="5" ry="5" fill="rgb(16,16,24)" stroke="rgb(74,70,56)" stroke-width="2" /><text x="479.71" y="620" font-size="18" text-anchor="start" dominant-baseline="central" fill="rgb(140,130,100)" font-family="Georgia, 'Times New Roman', serif">Joseph</text><polyline points="453.05,684 487.05,702" stroke-linejoin="round" stroke-linecap="round" fill="none" stroke="rgb(74,70,56)" stroke-width="2" /><ellipse cx="453.05" cy="684" rx="5" ry="5" fill="rgb(16,16,24)" stroke="rgb(74,70,56)" stroke-width="2" /><text x="433.05" y="684" font-size="18" text-anchor="end" dominant-baseline="central" fill="rgb(140,130,100)" font-family="Georgia, 'Times New Roman', serif">Mattithiah</text><polyline points="474.12,748 508.12,766" stroke-linejoin="round" stroke-linecap="round" fill="none" stroke="rgb(74,70,56)" stroke-width="2" /><ellipse cx="474.12" cy="748" rx="5" ry="5" fill="rgb(16,16,24)" stroke="rgb(74,70,56)" stroke-width="2" /><text x="454.12" y="748" font-size="18" text-anchor="end" dominant-baseline="central" fill="rgb(140,130,100)" font-family="Georgia, 'Times New Roman', serif">Amos</text><polyline points="513.01,812 547.01,830" stroke-linejoin="round" stroke-linecap="round" fill="none" stroke="rgb(74,70,56)" stroke-width="2" /><ellipse cx="513.01" cy="812" rx="5" ry="5" fill="rgb(16,16,24)" stroke="rgb(74,70,56)" stroke-width="2" /><text x="493.01" y="812" font-size="18" text-anchor="end" dominant-baseline="central" fill="rgb(140,130,100)" font-family="Georgia, 'Times New Roman', serif">Nahum</text><polyline points="551.42,876 585.42,894" stroke-linejoin="round" stroke-linecap="round" fill="none" stroke="rgb(74,70,56)" stroke-width="2" /><ellipse cx="551.42" cy="876" rx="5" ry="5" fill="rgb(16,16,24)" stroke="rgb(74,70,56)" stroke-width="2" /><text x="531.42" y="876" font-size="18" text-anchor="end" dominant-baseline="central" fill="rgb(140,130,100)" font-family="Georgia, 'Times New Roman', serif">Azaliah</text><polyline points="571.29,940 605.29,958" stroke-linejoin="round" stroke-linecap="round" fill="none" stroke="rgb(74,70,56)" stroke-width="2" /><ellipse cx="571.29" cy="940" rx="5" ry="5" fill="rgb(16,16,24)" stroke="rgb(74,70,56)" stroke-width="2" /><text x="551.29" y="940" font-size="18" text-anchor="end" dominant-baseline="central" fill="rgb(140,130,100)" font-family="Georgia, 'Times New Roman', serif">Nogah</text><polyline points="563.28,1004 529.28,1022" stroke-linejoin="round" stroke-linecap="round" fill="none" stroke="rgb(74,70,56)" stroke-width="2" /><ellipse cx="563.28" cy="1004" rx="5" ry="5" fill="rgb(16,16,24)" stroke="rgb(74,70,56)" stroke-width="2" /><text x="583.28" y="1004" font-size="18" text-anchor="start" dominant-baseline="central" fill="rgb(140,130,100)" font-family="Georgia, 'Times New Roman', serif">Mattith</text><polyline points="531.15,1068 497.15,1086" stroke-linejoin="round" stroke-linecap="round" fill="none" stroke="rgb(74,70,56)" stroke-width="2" /><ellipse cx="531.15" cy="1068" rx="5" ry="5" fill="rgb(16,16,24)" stroke="rgb(74,70,56)" stroke-width="2" /><text x="551.15" y="1068" font-size="18" text-anchor="start" dominant-baseline="central" fill="rgb(140,130,100)" font-family="Georgia, 'Times New Roman', serif">Mattithiah</text><polyline points="490.01,1132 456.01,1150" stroke-linejoin="round" stroke-linecap="round" fill="none" stroke="rgb(74,70,56)" stroke-width="2" /><ellipse cx="490.01" cy="1132" rx="5" ry="5" fill="rgb(16,16,24)" stroke="rgb(74,70,56)" stroke-width="2" /><text x="510.01" y="1132" font-size="18" text-anchor="start" dominant-baseline="central" fill="rgb(140,130,100)" font-family="Georgia, 'Times New Roman', serif">Shimei</text><polyline points="459.22,1196 425.22,1214" stroke-linejoin="round" stroke-linecap="round" fill="none" stroke="rgb(74,70,56)" stroke-width="2" /><ellipse cx="459.22" cy="1196" rx="5" ry="5" fill="rgb(16,16,24)" stroke="rgb(74,70,56)" stroke-width="2" /><text x="479.22" y="1196" font-size="18" text-anchor="start" dominant-baseline="central" fill="rgb(140,130,100)" font-family="Georgia, 'Times New Roman', serif">Joseph</text><polyline points="453.25,1260 487.25,1278" stroke-linejoin="round" stroke-linecap="round" fill="none" stroke="rgb(74,70,56)" stroke-width="2" /><ellipse cx="453.25" cy="1260" rx="5" ry="5" fill="rgb(16,16,24)" stroke="rgb(74,70,56)" stroke-width="2" /><text x="433.25" y="1260" font-size="18" text-anchor="end" dominant-baseline="central" fill="rgb(140,130,100)" font-family="Georgia, 'Times New Roman', serif">Josheh</text><polyline points="474.91,1324 508.91,1342" stroke-linejoin="round" stroke-linecap="round" fill="none" stroke="rgb(74,70,56)" stroke-width="2" /><ellipse cx="474.91" cy="1324" rx="5" ry="5" fill="rgb(16,16,24)" stroke="rgb(74,70,56)" stroke-width="2" /><text x="454.91" y="1324" font-size="18" text-anchor="end" dominant-baseline="central" fill="rgb(140,130,100)" font-family="Georgia, 'Times New Roman', serif">Johanan</text><polyline points="514.02,1388 548.02,1406" stroke-linejoin="round" stroke-linecap="round" fill="none" stroke="rgb(74,70,56)" stroke-width="2" /><ellipse cx="514.02" cy="1388" rx="5" ry="5" fill="rgb(16,16,24)" stroke="rgb(74,70,56)" stroke-width="2" /><text x="494.02" y="1388" font-size="18" text-anchor="end" dominant-baseline="central" fill="rgb(140,130,100)" font-family="Georgia, 'Times New Roman', serif">Rhesa</text><polyline points="552.17,1452 586.17,1470" stroke-linejoin="round" stroke-linecap="round" fill="none" stroke="rgb(74,70,56)" stroke-width="2" /><ellipse cx="552.17" cy="1452" rx="5" ry="5" fill="rgb(16,16,24)" stroke="rgb(74,70,56)" stroke-width="2" /><text x="532.17" y="1452" font-size="18" text-anchor="end" dominant-baseline="central" fill="rgb(140,130,100)" font-family="Georgia, 'Times New Roman', serif">Zerubbabel</text><polyline points="571.44,1516 605.44,1534" stroke-linejoin="round" stroke-linecap="round" fill="none" stroke="rgb(74,70,56)" stroke-width="2" /><ellipse cx="571.44" cy="1516" rx="5" ry="5" fill="rgb(16,16,24)" stroke="rgb(74,70,56)" stroke-width="2" /><text x="551.44" y="1516" font-size="18" text-anchor="end" dominant-baseline="central" fill="rgb(140,130,100)" font-family="Georgia, 'Times New Roman', serif">Salathiel</text><polyline points="562.74,1580 528.74,1598" stroke-linejoin="round" stroke-linecap="round" fill="none" stroke="rgb(74,70,56)" stroke-width="2" /><ellipse cx="562.74" cy="1580" rx="5" ry="5" fill="rgb(16,16,24)" stroke="rgb(74,70,56)" stroke-width="2" /><text x="582.74" y="1580" font-size="18" text-anchor="start" dominant-baseline="central" fill="rgb(140,130,100)" font-family="Georgia, 'Times New Roman', serif">Neriah</text><polyline points="530.19,1644 496.19,1662" stroke-linejoin="round" stroke-linecap="round" fill="none" stroke="rgb(74,70,56)" stroke-width="2" /><ellipse cx="530.19" cy="1644" rx="5" ry="5" fill="rgb(16,16,24)" stroke="rgb(74,70,56)" stroke-width="2" /><text x="550.19" y="1644" font-size="18" text-anchor="start" dominant-baseline="central" fill="rgb(140,130,100)" font-family="Georgia, 'Times New Roman', serif">Melchiah</text><polyline points="489.08,1708 455.08,1726" stroke-linejoin="round" stroke-linecap="round" fill="none" stroke="rgb(74,70,56)" stroke-width="2" /><ellipse cx="489.08" cy="1708" rx="5" ry="5" fill="rgb(16,16,24)" stroke="rgb(74,70,56)" stroke-width="2" /><text x="509.08" y="1708" font-size="18" text-anchor="start" dominant-baseline="central" fill="rgb(140,130,100)" font-family="Georgia, 'Times New Roman', serif">Addi</text><polyline points="458.75,1772 424.75,1790" stroke-linejoin="round" stroke-linecap="round" fill="none" stroke="rgb(74,70,56)" stroke-width="2" /><ellipse cx="458.75" cy="1772" rx="5" ry="5" fill="rgb(16,16,24)" stroke="rgb(74,70,56)" stroke-width="2" /><text x="478.75" y="1772" font-size="18" text-anchor="start" dominant-baseline="central" fill="rgb(140,130,100)" font-family="Georgia, 'Times New Roman', serif">Cosam</text><polyline points="453.46,1836 487.46,1854" stroke-linejoin="round" stroke-linecap="round" fill="none" stroke="rgb(74,70,56)" stroke-width="2" /><ellipse cx="453.46" cy="1836" rx="5" ry="5" fill="rgb(16,16,24)" stroke="rgb(74,70,56)" stroke-width="2" /><text x="433.46" y="1836" font-size="18" text-anchor="end" dominant-baseline="central" fill="rgb(140,130,100)" font-family="Georgia, 'Times New Roman', serif">Elmodam</text><polyline points="475.71,1900 509.71,1918" stroke-linejoin="round" stroke-linecap="round" fill="none" stroke="rgb(74,70,56)" stroke-width="2" /><ellipse cx="475.71" cy="1900" rx="5" ry="5" fill="rgb(16,16,24)" stroke="rgb(74,70,56)" stroke-width="2" /><text x="455.71" y="1900" font-size="18" text-anchor="end" dominant-baseline="central" fill="rgb(140,130,100)" font-family="Georgia, 'Times New Roman', serif">Er</text><polyline points="515.03,1964 549.03,1982" stroke-linejoin="round" stroke-linecap="round" fill="none" stroke="rgb(74,70,56)" stroke-width="2" /><ellipse cx="515.03" cy="1964" rx="5" ry="5" fill="rgb(16,16,24)" stroke="rgb(74,70,56)" stroke-width="2" /><text x="495.03" y="1964" font-size="18" text-anchor="end" dominant-baseline="central" fill="rgb(140,130,100)" font-family="Georgia, 'Times New Roman', serif">Joshua</text><polyline points="552.92,2028 586.92,2046" stroke-linejoin="round" stroke-linecap="round" fill="none" stroke="rgb(74,70,56)" stroke-width="2" /><ellipse cx="552.92" cy="2028" rx="5" ry="5" fill="rgb(16,16,24)" stroke="rgb(74,70,56)" stroke-width="2" /><text x="532.92" y="2028" font-size="18" text-anchor="end" dominant-baseline="central" fill="rgb(140,130,100)" font-family="Georgia, 'Times New Roman', serif">Eliezer</text><polyline points="571.57,2092 605.57,2110" stroke-linejoin="round" stroke-linecap="round" fill="none" stroke="rgb(74,70,56)" stroke-width="2" /><ellipse cx="571.57" cy="2092" rx="5" ry="5" fill="rgb(16,16,24)" stroke="rgb(74,70,56)" stroke-width="2" /><text x="551.57" y="2092" font-size="18" text-anchor="end" dominant-baseline="central" fill="rgb(140,130,100)" font-family="Georgia, 'Times New Roman', serif">Joram</text><polyline points="562.2,2156 528.2,2174" stroke-linejoin="round" stroke-linecap="round" fill="none" stroke="rgb(74,70,56)" stroke-width="2" /><ellipse cx="562.2" cy="2156" rx="5" ry="5" fill="rgb(16,16,24)" stroke="rgb(74,70,56)" stroke-width="2" /><text x="582.2" y="2156" font-size="18" text-anchor="start" dominant-baseline="central" fill="rgb(140,130,100)" font-family="Georgia, 'Times New Roman', serif">Mattith</text><polyline points="529.22,2220 495.22,2238" stroke-linejoin="round" stroke-linecap="round" fill="none" stroke="rgb(74,70,56)" stroke-width="2" /><ellipse cx="529.22" cy="2220" rx="5" ry="5" fill="rgb(16,16,24)" stroke="rgb(74,70,56)" stroke-width="2" /><text x="549.22" y="2220" font-size="18" text-anchor="start" dominant-baseline="central" fill="rgb(140,130,100)" font-family="Georgia, 'Times New Roman', serif">Levi</text><polyline points="488.15,2284 454.15,2302" stroke-linejoin="round" stroke-linecap="round" fill="none" stroke="rgb(74,70,56)" stroke-width="2" /><ellipse cx="488.15" cy="2284" rx="5" ry="5" fill="rgb(16,16,24)" stroke="rgb(74,70,56)" stroke-width="2" /><text x="508.15" y="2284" font-size="18" text-anchor="start" dominant-baseline="central" fill="rgb(140,130,100)" font-family="Georgia, 'Times New Roman', serif">Simeon</text><polyline points="458.29,2348 424.29,2366" stroke-linejoin="round" stroke-linecap="round" fill="none" stroke="rgb(74,70,56)" stroke-width="2" /><ellipse cx="458.29" cy="2348" rx="5" ry="5" fill="rgb(16,16,24)" stroke="rgb(74,70,56)" stroke-width="2" /><text x="478.29" y="2348" font-size="18" text-anchor="start" dominant-baseline="central" fill="rgb(140,130,100)" font-family="Georgia, 'Times New Roman', serif">Judah</text><polyline points="453.69,2412 487.69,2430" stroke-linejoin="round" stroke-linecap="round" fill="none" stroke="rgb(74,70,56)" stroke-width="2" /><ellipse cx="453.69" cy="2412" rx="5" ry="5" fill="rgb(16,16,24)" stroke="rgb(74,70,56)" stroke-width="2" /><text x="433.69" y="2412" font-size="18" text-anchor="end" dominant-baseline="central" fill="rgb(140,130,100)" font-family="Georgia, 'Times New Roman', serif">Joseph</text><polyline points="476.52,2476 510.52,2494" stroke-linejoin="round" stroke-linecap="round" fill="none" stroke="rgb(74,70,56)" stroke-width="2" /><ellipse cx="476.52" cy="2476" rx="5" ry="5" fill="rgb(16,16,24)" stroke="rgb(74,70,56)" stroke-width="2" /><text x="456.52" y="2476" font-size="18" text-anchor="end" dominant-baseline="central" fill="rgb(140,130,100)" font-family="Georgia, 'Times New Roman', serif">Jonam</text><polyline points="516.03,2540 550.03,2558" stroke-linejoin="round" stroke-linecap="round" fill="none" stroke="rgb(74,70,56)" stroke-width="2" /><ellipse cx="516.03" cy="2540" rx="5" ry="5" fill="rgb(16,16,24)" stroke="rgb(74,70,56)" stroke-width="2" /><text x="496.03" y="2540" font-size="18" text-anchor="end" dominant-baseline="central" fill="rgb(140,130,100)" font-family="Georgia, 'Times New Roman', serif">Eliakim</text><polyline points="553.65,2604 587.65,2622" stroke-linejoin="round" stroke-linecap="round" fill="none" stroke="rgb(74,70,56)" stroke-width="2" /><ellipse cx="553.65" cy="2604" rx="5" ry="5" fill="rgb(16,16,24)" stroke="rgb(74,70,56)" stroke-width="2" /><text x="533.65" y="2604" font-size="18" text-anchor="end" dominant-baseline="central" fill="rgb(140,130,100)" font-family="Georgia, 'Times New Roman', serif">Meleah</text><polyline points="571.68,2668 605.68,2686" stroke-linejoin="round" stroke-linecap="round" fill="none" stroke="rgb(74,70,56)" stroke-width="2" /><ellipse cx="571.68" cy="2668" rx="5" ry="5" fill="rgb(16,16,24)" stroke="rgb(74,70,56)" stroke-width="2" /><text x="551.68" y="2668" font-size="18" text-anchor="end" dominant-baseline="central" fill="rgb(140,130,100)" font-family="Georgia, 'Times New Roman', serif">Menan</text><polyline points="561.64,2732 527.64,2750" stroke-linejoin="round" stroke-linecap="round" fill="none" stroke="rgb(74,70,56)" stroke-width="2" /><ellipse cx="561.64" cy="2732" rx="5" ry="5" fill="rgb(16,16,24)" stroke="rgb(74,70,56)" stroke-width="2" /><text x="581.64" y="2732" font-size="18" text-anchor="start" dominant-baseline="central" fill="rgb(140,130,100)" font-family="Georgia, 'Times New Roman', serif">Mattithiah</text><polyline points="528.25,2796 494.25,2814" stroke-linejoin="round" stroke-linecap="round" fill="none" stroke="rgb(74,70,56)" stroke-width="2" /><ellipse cx="528.25" cy="2796" rx="5" ry="5" fill="rgb(16,16,24)" stroke="rgb(74,70,56)" stroke-width="2" /><text x="548.25" y="2796" font-size="18" text-anchor="start" dominant-baseline="central" fill="rgb(140,130,100)" font-family="Georgia, 'Times New Roman', serif">Nathan</text><polyline points="487.22,2860 453.22,2878" stroke-linejoin="round" stroke-linecap="round" fill="none" stroke="rgb(74,70,56)" stroke-width="2" /><ellipse cx="487.22" cy="2860" rx="8" ry="8" fill="rgb(16,16,24)" stroke="rgb(74,70,56)" stroke-width="2" /><text x="507.22" y="2860" font-size="18" text-anchor="start" dominant-baseline="central" fill="rgb(140,130,100)" font-family="Georgia, 'Times New Roman', serif" font-weight="bold">David</text><text x="507.22" y="2880" font-size="13" text-anchor="start" dominant-baseline="central" fill="rgb(140,130,100)" font-family="Georgia, 'Times New Roman', serif" font-style="italic">the king</text><polyline points="457.85,2924 423.85,2942" stroke-linejoin="round" stroke-linecap="round" fill="none" stroke="rgb(74,70,56)" stroke-width="2" /><ellipse cx="457.85" cy="2924" rx="5" ry="5" fill="rgb(16,16,24)" stroke="rgb(74,70,56)" stroke-width="2" /><text x="477.85" y="2924" font-size="18" text-anchor="start" dominant-baseline="central" fill="rgb(140,130,100)" font-family="Georgia, 'Times New Roman', serif">Jesse</text><polyline points="453.94,2988 487.94,3006" stroke-linejoin="round" stroke-linecap="round" fill="none" stroke="rgb(74,70,56)" stroke-width="2" /><ellipse cx="453.94" cy="2988" rx="5" ry="5" fill="rgb(16,16,24)" stroke="rgb(74,70,56)" stroke-width="2" /><text x="433.94" y="2988" font-size="18" text-anchor="end" dominant-baseline="central" fill="rgb(140,130,100)" font-family="Georgia, 'Times New Roman', serif">Obed</text><polyline points="477.34,3052 511.34,3070" stroke-linejoin="round" stroke-linecap="round" fill="none" stroke="rgb(74,70,56)" stroke-width="2" /><ellipse cx="477.34" cy="3052" rx="5" ry="5" fill="rgb(16,16,24)" stroke="rgb(74,70,56)" stroke-width="2" /><text x="457.34" y="3052" font-size="18" text-anchor="end" dominant-baseline="central" fill="rgb(140,130,100)" font-family="Georgia, 'Times New Roman', serif">Boaz</text><polyline points="517.04,3116 551.04,3134" stroke-linejoin="round" stroke-linecap="round" fill="none" stroke="rgb(74,70,56)" stroke-width="2" /><ellipse cx="517.04" cy="3116" rx="5" ry="5" fill="rgb(16,16,24)" stroke="rgb(74,70,56)" stroke-width="2" /><text x="497.04" y="3116" font-size="18" text-anchor="end" dominant-baseline="central" fill="rgb(140,130,100)" font-family="Georgia, 'Times New Roman', serif">Salah</text><polyline points="554.37,3180 588.37,3198" stroke-linejoin="round" stroke-linecap="round" fill="none" stroke="rgb(74,70,56)" stroke-width="2" /><ellipse cx="554.37" cy="3180" rx="5" ry="5" fill="rgb(16,16,24)" stroke="rgb(74,70,56)" stroke-width="2" /><text x="534.37" y="3180" font-size="18" text-anchor="end" dominant-baseline="central" fill="rgb(140,130,100)" font-family="Georgia, 'Times New Roman', serif">Nahshon</text><polyline points="571.77,3244 605.77,3262" stroke-linejoin="round" stroke-linecap="round" fill="none" stroke="rgb(74,70,56)" stroke-width="2" /><ellipse cx="571.77" cy="3244" rx="5" ry="5" fill="rgb(16,16,24)" stroke="rgb(74,70,56)" stroke-width="2" /><text x="551.77" y="3244" font-size="18" text-anchor="end" dominant-baseline="central" fill="rgb(140,130,100)" font-family="Georgia, 'Times New Roman', serif">Aminadab</text><polyline points="561.07,3308 527.07,3326" stroke-linejoin="round" stroke-linecap="round" fill="none" stroke="rgb(74,70,56)" stroke-width="2" /><ellipse cx="561.07" cy="3308" rx="5" ry="5" fill="rgb(16,16,24)" stroke="rgb(74,70,56)" stroke-width="2" /><text x="581.07" y="3308" font-size="18" text-anchor="start" dominant-baseline="central" fill="rgb(140,130,100)" font-family="Georgia, 'Times New Roman', serif">Arni</text><polyline points="527.28,3372 493.28,3390" stroke-linejoin="round" stroke-linecap="round" fill="none" stroke="rgb(74,70,56)" stroke-width="2" /><ellipse cx="527.28" cy="3372" rx="5" ry="5" fill="rgb(16,16,24)" stroke="rgb(74,70,56)" stroke-width="2" /><text x="547.28" y="3372" font-size="18" text-anchor="start" dominant-baseline="central" fill="rgb(140,130,100)" font-family="Georgia, 'Times New Roman', serif">Hezron</text><polyline points="486.31,3436 452.31,3454" stroke-linejoin="round" stroke-linecap="round" fill="none" stroke="rgb(74,70,56)" stroke-width="2" /><ellipse cx="486.31" cy="3436" rx="5" ry="5" fill="rgb(16,16,24)" stroke="rgb(74,70,56)" stroke-width="2" /><text x="506.31" y="3436" font-size="18" text-anchor="start" dominant-baseline="central" fill="rgb(140,130,100)" font-family="Georgia, 'Times New Roman', serif">Perez</text><polyline points="457.42,3500 423.42,3518" stroke-linejoin="round" stroke-linecap="round" fill="none" stroke="rgb(74,70,56)" stroke-width="2" /><ellipse cx="457.42" cy="3500" rx="5" ry="5" fill="rgb(16,16,24)" stroke="rgb(74,70,56)" stroke-width="2" /><text x="477.42" y="3500" font-size="18" text-anchor="start" dominant-baseline="central" fill="rgb(140,130,100)" font-family="Georgia, 'Times New Roman', serif">Judah</text><polyline points="454.2,3564 488.2,3582" stroke-linejoin="round" stroke-linecap="round" fill="none" stroke="rgb(74,70,56)" stroke-width="2" /><ellipse cx="454.2" cy="3564" rx="5" ry="5" fill="rgb(16,16,24)" stroke="rgb(74,70,56)" stroke-width="2" /><text x="434.2" y="3564" font-size="18" text-anchor="end" dominant-baseline="central" fill="rgb(140,130,100)" font-family="Georgia, 'Times New Roman', serif">Jacob</text><polyline points="478.17,3628 512.17,3646" stroke-linejoin="round" stroke-linecap="round" fill="none" stroke="rgb(74,70,56)" stroke-width="2" /><ellipse cx="478.17" cy="3628" rx="5" ry="5" fill="rgb(16,16,24)" stroke="rgb(74,70,56)" stroke-width="2" /><text x="458.17" y="3628" font-size="18" text-anchor="end" dominant-baseline="central" fill="rgb(140,130,100)" font-family="Georgia, 'Times New Roman', serif">Isaac</text><polyline points="518.04,3692 552.04,3710" stroke-linejoin="round" stroke-linecap="round" fill="none" stroke="rgb(74,70,56)" stroke-width="2" /><ellipse cx="518.04" cy="3692" rx="8" ry="8" fill="rgb(16,16,24)" stroke="rgb(74,70,56)" stroke-width="2" /><text x="498.04" y="3692" font-size="18" text-anchor="end" dominant-baseline="central" fill="rgb(140,130,100)" font-family="Georgia, 'Times New Roman', serif" font-weight="bold">Abraham</text><text x="498.04" y="3712" font-size="13" text-anchor="end" dominant-baseline="central" fill="rgb(140,130,100)" font-family="Georgia, 'Times New Roman', serif" font-style="italic">the patriarchs</text><polyline points="555.08,3756 589.08,3774" stroke-linejoin="round" stroke-linecap="round" fill="none" stroke="rgb(74,70,56)" stroke-width="2" /><ellipse cx="555.08" cy="3756" rx="5" ry="5" fill="rgb(16,16,24)" stroke="rgb(74,70,56)" stroke-width="2" /><text x="535.08" y="3756" font-size="18" text-anchor="end" dominant-baseline="central" fill="rgb(140,130,100)" font-family="Georgia, 'Times New Roman', serif">Terah</text><polyline points="571.85,3820 605.85,3838" stroke-linejoin="round" stroke-linecap="round" fill="none" stroke="rgb(74,70,56)" stroke-width="2" /><ellipse cx="571.85" cy="3820" rx="5" ry="5" fill="rgb(16,16,24)" stroke="rgb(74,70,56)" stroke-width="2" /><text x="551.85" y="3820" font-size="18" text-anchor="end" dominant-baseline="central" fill="rgb(140,130,100)" font-family="Georgia, 'Times New Roman', serif">Nahor</text><polyline points="560.48,3884 526.48,3902" stroke-linejoin="round" stroke-linecap="round" fill="none" stroke="rgb(74,70,56)" stroke-width="2" /><ellipse cx="560.48" cy="3884" rx="5" ry="5" fill="rgb(16,16,24)" stroke="rgb(74,70,56)" stroke-width="2" /><text x="580.48" y="3884" font-size="18" text-anchor="start" dominant-baseline="central" fill="rgb(140,130,100)" font-family="Georgia, 'Times New Roman', serif">Serug</text><polyline points="526.3,3948 492.3,3966" stroke-linejoin="round" stroke-linecap="round" fill="none" stroke="rgb(74,70,56)" stroke-width="2" /><ellipse cx="526.3" cy="3948" rx="5" ry="5" fill="rgb(16,16,24)" stroke="rgb(74,70,56)" stroke-width="2" /><text x="546.3" y="3948" font-size="18" text-anchor="start" dominant-baseline="central" fill="rgb(140,130,100)" font-family="Georgia, 'Times New Roman', serif">Reu</text><polyline points="485.4,4012 451.4,4030" stroke-linejoin="round" stroke-linecap="round" fill="none" stroke="rgb(74,70,56)" stroke-width="2" /><ellipse cx="485.4" cy="4012" rx="5" ry="5" fill="rgb(16,16,24)" stroke="rgb(74,70,56)" stroke-width="2" /><text x="505.4" y="4012" font-size="18" text-anchor="start" dominant-baseline="central" fill="rgb(140,130,100)" font-family="Georgia, 'Times New Roman', serif">Peleg</text><polyline points="457.01,4076 423.01,4094" stroke-linejoin="round" stroke-linecap="round" fill="none" stroke="rgb(74,70,56)" stroke-width="2" /><ellipse cx="457.01" cy="4076" rx="5" ry="5" fill="rgb(16,16,24)" stroke="rgb(74,70,56)" stroke-width="2" /><text x="477.01" y="4076" font-size="18" text-anchor="start" dominant-baseline="central" fill="rgb(140,130,100)" font-family="Georgia, 'Times New Roman', serif">Eber</text><polyline points="454.48,4140 488.48,4158" stroke-linejoin="round" stroke-linecap="round" fill="none" stroke="rgb(74,70,56)" stroke-width="2" /><ellipse cx="454.48" cy="4140" rx="5" ry="5" fill="rgb(16,16,24)" stroke="rgb(74,70,56)" stroke-width="2" /><text x="434.48" y="4140" font-size="18" text-anchor="end" dominant-baseline="central" fill="rgb(140,130,100)" font-family="Georgia, 'Times New Roman', serif">Shelah</text><polyline points="479,4204 513,4222" stroke-linejoin="round" stroke-linecap="round" fill="none" stroke="rgb(74,70,56)" stroke-width="2" /><ellipse cx="479" cy="4204" rx="5" ry="5" fill="rgb(16,16,24)" stroke="rgb(74,70,56)" stroke-width="2" /><text x="459" y="4204" font-size="18" text-anchor="end" dominant-baseline="central" fill="rgb(140,130,100)" font-family="Georgia, 'Times New Roman', serif">Kenan</text><polyline points="519.05,4268 553.05,4286" stroke-linejoin="round" stroke-linecap="round" fill="none" stroke="rgb(74,70,56)" stroke-width="2" /><ellipse cx="519.05" cy="4268" rx="5" ry="5" fill="rgb(16,16,24)" stroke="rgb(74,70,56)" stroke-width="2" /><text x="499.05" y="4268" font-size="18" text-anchor="end" dominant-baseline="central" fill="rgb(140,130,100)" font-family="Georgia, 'Times New Roman', serif">Arpachshad</text><polyline points="555.77,4332 589.77,4350" stroke-linejoin="round" stroke-linecap="round" fill="none" stroke="rgb(74,70,56)" stroke-width="2" /><ellipse cx="555.77" cy="4332" rx="5" ry="5" fill="rgb(16,16,24)" stroke="rgb(74,70,56)" stroke-width="2" /><text x="535.77" y="4332" font-size="18" text-anchor="end" dominant-baseline="central" fill="rgb(140,130,100)" font-family="Georgia, 'Times New Roman', serif">Shem</text><polyline points="571.92,4396 605.92,4414" stroke-linejoin="round" stroke-linecap="round" fill="none" stroke="rgb(74,70,56)" stroke-width="2" /><ellipse cx="571.92" cy="4396" rx="8" ry="8" fill="rgb(16,16,24)" stroke="rgb(74,70,56)" stroke-width="2" /><text x="551.92" y="4396" font-size="18" text-anchor="end" dominant-baseline="central" fill="rgb(140,130,100)" font-family="Georgia, 'Times New Roman', serif" font-weight="bold">Noah</text><text x="551.92" y="4416" font-size="13" text-anchor="end" dominant-baseline="central" fill="rgb(140,130,100)" font-family="Georgia, 'Times New Roman', serif" font-style="italic">the flood</text><polyline points="559.88,4460 525.88,4478" stroke-linejoin="round" stroke-linecap="round" fill="none" stroke="rgb(74,70,56)" stroke-width="2" /><ellipse cx="559.88" cy="4460" rx="5" ry="5" fill="rgb(16,16,24)" stroke="rgb(74,70,56)" stroke-width="2" /><text x="579.88" y="4460" font-size="18" text-anchor="start" dominant-baseline="central" fill="rgb(140,130,100)" font-family="Georgia, 'Times New Roman', serif">Lamech</text><polyline points="525.32,4524 491.32,4542" stroke-linejoin="round" stroke-linecap="round" fill="none" stroke="rgb(74,70,56)" stroke-width="2" /><ellipse cx="525.32" cy="4524" rx="5" ry="5" fill="rgb(16,16,24)" stroke="rgb(74,70,56)" stroke-width="2" /><text x="545.32" y="4524" font-size="18" text-anchor="start" dominant-baseline="central" fill="rgb(140,130,100)" font-family="Georgia, 'Times New Roman', serif">Methuselah</text><polyline points="484.5,4588 450.5,4606" stroke-linejoin="round" stroke-linecap="round" fill="none" stroke="rgb(74,70,56)" stroke-width="2" /><ellipse cx="484.5" cy="4588" rx="5" ry="5" fill="rgb(16,16,24)" stroke="rgb(74,70,56)" stroke-width="2" /><text x="504.5" y="4588" font-size="18" text-anchor="start" dominant-baseline="central" fill="rgb(140,130,100)" font-family="Georgia, 'Times New Roman', serif">Enoch</text><polyline points="456.61,4652 422.61,4670" stroke-linejoin="round" stroke-linecap="round" fill="none" stroke="rgb(74,70,56)" stroke-width="2" /><ellipse cx="456.61" cy="4652" rx="5" ry="5" fill="rgb(16,16,24)" stroke="rgb(74,70,56)" stroke-width="2" /><text x="476.61" y="4652" font-size="18" text-anchor="start" dominant-baseline="central" fill="rgb(140,130,100)" font-family="Georgia, 'Times New Roman', serif">Jared</text><polyline points="454.77,4716 488.77,4734" stroke-linejoin="round" stroke-linecap="round" fill="none" stroke="rgb(74,70,56)" stroke-width="2" /><ellipse cx="454.77" cy="4716" rx="5" ry="5" fill="rgb(16,16,24)" stroke="rgb(74,70,56)" stroke-width="2" /><text x="434.77" y="4716" font-size="18" text-anchor="end" dominant-baseline="central" fill="rgb(140,130,100)" font-family="Georgia, 'Times New Roman', serif">Mahalalel</text><polyline points="479.85,4780 513.85,4798" stroke-linejoin="round" stroke-linecap="round" fill="none" stroke="rgb(74,70,56)" stroke-width="2" /><ellipse cx="479.85" cy="4780" rx="5" ry="5" fill="rgb(16,16,24)" stroke="rgb(74,70,56)" stroke-width="2" /><text x="459.85" y="4780" font-size="18" text-anchor="end" dominant-baseline="central" fill="rgb(140,130,100)" font-family="Georgia, 'Times New Roman', serif">Kenan</text><polyline points="520.05,4844 554.05,4862" stroke-linejoin="round" stroke-linecap="round" fill="none" stroke="rgb(74,70,56)" stroke-width="2" /><ellipse cx="520.05" cy="4844" rx="5" ry="5" fill="rgb(16,16,24)" stroke="rgb(74,70,56)" stroke-width="2" /><text x="500.05" y="4844" font-size="18" text-anchor="end" dominant-baseline="central" fill="rgb(140,130,100)" font-family="Georgia, 'Times New Roman', serif">Enosh</text><polyline points="556.46,4908 590.46,4926" stroke-linejoin="round" stroke-linecap="round" fill="none" stroke="rgb(74,70,56)" stroke-width="2" /><ellipse cx="556.46" cy="4908" rx="5" ry="5" fill="rgb(16,16,24)" stroke="rgb(74,70,56)" stroke-width="2" /><text x="536.46" y="4908" font-size="18" text-anchor="end" dominant-baseline="central" fill="rgb(140,130,100)" font-family="Georgia, 'Times New Roman', serif">Seth</text><polyline points="571.96,4972 605.96,4990" stroke-linejoin="round" stroke-linecap="round" fill="none" stroke="rgb(74,70,56)" stroke-width="2" /><ellipse cx="571.96" cy="4972" rx="8" ry="8" fill="rgb(16,16,24)" stroke="rgb(74,70,56)" stroke-width="2" /><text x="551.96" y="4972" font-size="18" text-anchor="end" dominant-baseline="central" fill="rgb(140,130,100)" font-family="Georgia, 'Times New Roman', serif" font-weight="bold">Adam</text><text x="551.96" y="4992" font-size="13" text-anchor="end" dominant-baseline="central" fill="rgb(140,130,100)" font-family="Georgia, 'Times New Roman', serif" font-style="italic">the first man</text><polyline points="559.26,5036 525.26,5054" stroke-linejoin="round" stroke-linecap="round" fill="none" stroke="rgb(74,70,56)" stroke-width="2" /><ellipse cx="559.26" cy="5036" rx="8" ry="8" fill="rgb(16,16,24)" stroke="rgb(74,70,56)" stroke-width="2" /><text x="579.26" y="5036" font-size="18" text-anchor="start" dominant-baseline="central" fill="rgb(140,130,100)" font-family="Georgia, 'Times New Roman', serif" font-weight="bold">God</text><text x="579.26" y="5056" font-size="13" text-anchor="start" dominant-baseline="central" fill="rgb(140,130,100)" font-family="Georgia, 'Times New Roman', serif" font-style="italic">in the beginning</text><path d="M 483.76 191.2 L 483.76 76.2" fill="none" stroke="rgb(138,129,95)" stroke-width="14" stroke-linecap="round" /><path d="M 483.76 76.2 L 434.98 9.3 M 483.76 76.2 L 527.04 5.61" fill="none" stroke="rgb(138,129,95)" stroke-width="9" stroke-linecap="round" /><path d="M 434.98 9.3 L 378.22 -8.94 M 434.98 9.3 L 430.22 -50.13 M 527.04 5.61 L 522.28 -53.81 M 527.04 5.61 L 580.17 -21.43" fill="none" stroke="rgb(138,129,95)" stroke-width="6" stroke-linecap="round" /><path d="M 378.22 -8.94 L 337.47 4.53 M 378.22 -8.94 L 350.24 -41.49 M 430.22 -50.13 L 402.24 -82.68 M 430.22 -50.13 L 449.66 -88.4 M 522.28 -53.81 L 494.3 -86.37 M 522.28 -53.81 L 541.72 -92.08 M 580.17 -21.43 L 599.61 -59.7 M 580.17 -21.43 L 622.96 -18.03" fill="none" stroke="rgb(138,129,95)" stroke-width="4" stroke-linecap="round" /><path d="M 337.47 4.53 L 319.47 29.66 M 337.47 4.53 L 307.38 -2.54 M 350.24 -41.49 L 320.16 -48.56 M 350.24 -41.49 L 345.32 -72 M 402.24 -82.68 L 372.15 -89.75 M 402.24 -82.68 L 397.31 -113.19 M 449.66 -88.4 L 444.73 -118.91 M 449.66 -88.4 L 475.99 -104.57 M 494.3 -86.37 L 464.21 -93.44 M 494.3 -86.37 L 489.37 -116.88 M 541.72 -92.08 L 536.79 -122.59 M 541.72 -92.08 L 568.05 -108.26 M 599.61 -59.7 L 594.69 -90.21 M 599.61 -59.7 L 625.94 -75.87 M 622.96 -18.03 L 649.29 -34.21 M 622.96 -18.03 L 647.95 0.15" fill="none" stroke="rgb(138,129,95)" stroke-width="2.6" stroke-linecap="round" /><path d="M 319.47 29.66 L 319.66 51.91 M 319.47 29.66 L 298.97 38.31 M 307.38 -2.54 L 286.88 6.11 M 307.38 -2.54 L 291.57 -18.2 M 320.16 -48.56 L 299.66 -39.91 M 320.16 -48.56 L 304.35 -64.22 M 345.32 -72 L 329.51 -87.66 M 345.32 -72 L 353.78 -92.58 M 372.15 -89.75 L 351.65 -81.1 M 372.15 -89.75 L 356.35 -105.41 M 397.31 -113.19 L 381.51 -128.85 M 397.31 -113.19 L 405.77 -133.77 M 444.73 -118.91 L 428.93 -134.57 M 444.73 -118.91 L 453.19 -139.49 M 475.99 -104.57 L 484.45 -125.15 M 475.99 -104.57 L 498.24 -104.59 M 464.21 -93.44 L 443.71 -84.79 M 464.21 -93.44 L 448.41 -109.1 M 489.37 -116.88 L 473.57 -132.54 M 489.37 -116.88 L 497.83 -137.46 M 536.79 -122.59 L 520.99 -138.26 M 536.79 -122.59 L 545.25 -143.17 M 568.05 -108.26 L 576.51 -128.84 M 568.05 -108.26 L 590.3 -108.28 M 594.69 -90.21 L 578.88 -105.87 M 594.69 -90.21 L 603.15 -110.79 M 625.94 -75.87 L 634.4 -96.46 M 625.94 -75.87 L 648.2 -75.89 M 649.29 -34.21 L 657.75 -54.79 M 649.29 -34.21 L 671.55 -34.23 M 647.95 0.15 L 670.2 0.14 M 647.95 0.15 L 656.44 20.72" fill="none" stroke="rgb(138,129,95)" stroke-width="1.8" stroke-linecap="round" /><path d="M 319.66 51.91 L 329.2 64.77 M 319.66 51.91 L 311.4 65.64 M 298.97 38.31 L 290.71 52.03 M 298.97 38.31 L 283.13 35.9 M 286.88 6.11 L 278.62 19.84 M 286.88 6.11 L 271.04 3.71 M 291.57 -18.2 L 275.73 -20.6 M 291.57 -18.2 L 287.77 -33.76 M 299.66 -39.91 L 291.4 -26.18 M 299.66 -39.91 L 283.82 -42.32 M 304.35 -64.22 L 288.51 -66.63 M 304.35 -64.22 L 300.54 -79.78 M 329.51 -87.66 L 313.67 -90.07 M 329.51 -87.66 L 325.7 -103.22 M 353.78 -92.58 L 349.97 -108.14 M 353.78 -92.58 L 366.72 -102.03 M 351.65 -81.1 L 343.39 -67.37 M 351.65 -81.1 L 335.81 -83.51 M 356.35 -105.41 L 340.51 -107.82 M 356.35 -105.41 L 352.54 -120.97 M 381.51 -128.85 L 365.67 -131.26 M 381.51 -128.85 L 377.7 -144.42 M 405.77 -133.77 L 401.97 -149.33 M 405.77 -133.77 L 418.71 -143.22 M 428.93 -134.57 L 413.09 -136.98 M 428.93 -134.57 L 425.12 -150.13 M 453.19 -139.49 L 449.38 -155.05 M 453.19 -139.49 L 466.13 -148.94 M 484.45 -125.15 L 480.64 -140.72 M 484.45 -125.15 L 497.39 -134.6 M 498.24 -104.59 L 511.18 -114.04 M 498.24 -104.59 L 511.91 -96.23 M 443.71 -84.79 L 435.45 -71.06 M 443.71 -84.79 L 427.87 -87.19 M 448.41 -109.1 L 432.57 -111.5 M 448.41 -109.1 L 444.6 -124.66 M 473.57 -132.54 L 457.73 -134.94 M 473.57 -132.54 L 469.76 -148.1 M 497.83 -137.46 L 494.03 -153.02 M 497.83 -137.46 L 510.77 -146.91 M 520.99 -138.26 L 505.15 -140.66 M 520.99 -138.26 L 517.18 -153.82 M 545.25 -143.17 L 541.44 -158.74 M 545.25 -143.17 L 558.19 -152.62 M 576.51 -128.84 L 572.7 -144.4 M 576.51 -128.84 L 589.45 -138.29 M 590.3 -108.28 L 603.24 -117.72 M 590.3 -108.28 L 603.97 -99.91 M 578.88 -105.87 L 563.04 -108.28 M 578.88 -105.87 L 575.07 -121.43 M 603.15 -110.79 L 599.34 -126.35 M 603.15 -110.79 L 616.08 -120.24 M 634.4 -96.46 L 630.6 -112.02 M 634.4 -96.46 L 647.34 -105.9 M 648.2 -75.89 L 661.13 -85.34 M 648.2 -75.89 L 661.86 -67.53 M 657.75 -54.79 L 653.95 -70.35 M 657.75 -54.79 L 670.69 -64.24 M 671.55 -34.23 L 684.48 -43.68 M 671.55 -34.23 L 685.21 -25.86 M 670.2 0.14 L 683.14 -9.31 M 670.2 0.14 L 683.86 8.5 M 656.44 20.72 L 670.1 29.08 M 656.44 20.72 L 653.91 36.54" fill="none" stroke="rgb(138,129,95)" stroke-width="1.2" stroke-linecap="round" /><path d="M 512 236 L 516.2 242.4 L 520.37 248.8 L 524.51 255.2 L 528.58 261.6 L 532.57 268 L 536.47 274.4 L 540.24 280.8 L 543.87 287.2 L 547.35 293.6 L 550.65 300 L 550.65 300" fill="none" stroke="rgb(255,244,170)" stroke-width="5" stroke-linecap="round" stroke-opacity="0.949" /></g><circle cx="550.65" cy="300" r="10" fill="none" stroke="rgb(255,244,170)" stroke-width="3" /><rect x="0" y="0" width="1024" height="64" fill="rgb(16,16,24)" /><rect x="0" y="538" width="1024" height="38" fill="rgb(16,16,24)" /><text x="28" y="20" font-size="24" text-anchor="start" dominant-baseline="text-before-edge" fill="rgb(216,198,143)" font-family="Georgia, 'Times New Roman', serif" font-weight="bold">From Jesus down to the root — Luke 3</text><line x1="966" y1="96" x2="966" y2="512" stroke="rgb(74,70,56)" stroke-width="2" /><line x1="966" y1="96" x2="966" y2="101.55" stroke="rgb(138,129,95)" stroke-width="2" stroke-linecap="butt" /><line x1="962" y1="96" x2="970" y2="96" stroke="rgb(138,129,95)" stroke-width="2" /><text x="956" y="96" font-size="13" text-anchor="end" dominant-baseline="central" fill="rgb(140,130,100)" font-family="Georgia, 'Times New Roman', serif" font-style="italic">Jesus</text><line x1="962" y1="323.41" x2="970" y2="323.41" stroke="rgb(138,129,95)" stroke-width="2" /><text x="956" y="323.41" font-size="13" text-anchor="end" dominant-baseline="central" fill="rgb(140,130,100)" font-family="Georgia, 'Times New Roman', serif" font-style="italic">David</text><line x1="962" y1="395.52" x2="970" y2="395.52" stroke="rgb(138,129,95)" stroke-width="2" /><text x="956" y="395.52" font-size="13" text-anchor="end" dominant-baseline="central" fill="rgb(140,130,100)" font-family="Georgia, 'Times New Roman', serif" font-style="italic">Abraham</text><line x1="962" y1="456.53" x2="970" y2="456.53" stroke="rgb(138,129,95)" stroke-width="2" /><text x="956" y="456.53" font-size="13" text-anchor="end" dominant-baseline="central" fill="rgb(140,130,100)" font-family="Georgia, 'Times New Roman', serif" font-style="italic">Noah</text><line x1="962" y1="506.45" x2="970" y2="506.45" stroke="rgb(138,129,95)" stroke-width="2" /><text x="956" y="500.45" font-size="13" text-anchor="end" dominant-baseline="central" fill="rgb(140,130,100)" font-family="Georgia, 'Times New Roman', serif" font-style="italic">Adam</text><line x1="962" y1="512" x2="970" y2="512" stroke="rgb(138,129,95)" stroke-width="2" /><text x="956" y="520" font-size="13" text-anchor="end" dominant-baseline="central" fill="rgb(140,130,100)" font-family="Georgia, 'Times New Roman', serif" font-style="italic">God</text><circle cx="966" cy="101.55" r="4" fill="rgb(255,244,170)" /><text x="996" y="550" font-size="14" text-anchor="end" dominant-baseline="text-before-edge" fill="rgb(216,198,143)" font-family="Georgia, 'Times New Roman', serif" font-style="italic">generation 1 of 75</text><text x="28" y="550" font-size="14" text-anchor="start" dominant-baseline="text-before-edge" fill="rgb(140,130,100)" font-family="Georgia, 'Times New Roman', serif" font-style="italic">Luke traces the line backward — from Jesus to Adam, “the son of God”</text></svg>