<svg xmlns="http://www.w3.org/2000/svg" viewBox="0 0 1024 576" width="1024" height="576" font-family="Georgia, 'Times New Roman', serif"><rect x="0" y="0" width="1024" height="576" fill="rgb(13,13,20)" /><g transform="translate(1355.12 -921.38)"><g transform="scale(1.25)"><polyline points="244.5,388 244.5,403 244.5,403 244.5,418" stroke-linejoin="round" fill="none" stroke="rgb(86,81,62)" stroke-width="1.5" stroke-opacity="0.800" /><polyline points="244.5,453 244.5,468 244.5,468 244.5,483" stroke-linejoin="round" fill="none" stroke="rgb(86,81,62)" stroke-width="1.5" stroke-opacity="0.800" /><polyline points="244.5,518 244.5,533 244.5,533 244.5,548" stroke-linejoin="round" fill="none" stroke="rgb(86,81,62)" stroke-width="1.5" stroke-opacity="0.800" /><polyline points="244.5,583 244.5,598 244.5,598 244.5,613" stroke-linejoin="round" fill="none" stroke="rgb(86,81,62)" stroke-width="1.5" stroke-opacity="0.800" /><polyline points="244.5,676 244.5,691 -365.5,691 -365.5,706" stroke-linejoin="round" fill="none" stroke="rgb(86,81,62)" stroke-width="1.5" stroke-opacity="0.800" /><polyline points="-365.5,741 -365.5,756 -581.5,756 -581.5,771" stroke-linejoin="round" fill="none" stroke="rgb(86,81,62)" stroke-width="1.5" stroke-opacity="0.800" /><polyline points="-581.5,806 -581.5,821 -581.5,821 -581.5,836" stroke-linejoin="round" fill="none" stroke="rgb(86,81,62)" stroke-width="1.5" stroke-opacity="0.800" /><polyline points="-581.5,871 -581.5,886 -581.5,886 -581.5,901" stroke-linejoin="round" fill="none" stroke="rgb(86,81,62)" stroke-width="1.5" stroke-opacity="0.949" /><polyline points="-581.5,936 -581.5,951 -767.5,951 -767.5,966" stroke-linejoin="round" fill="none" stroke="rgb(86,81,62)" stroke-width="1.5" stroke-opacity="0.949" /><polyline points="-767.5,1001 -767.5,1016 -767.5,1016 -767.5,1031" stroke-linejoin="round" fill="none" stroke="rgb(86,81,62)" stroke-width="1.5" stroke-opacity="0.200" /><polyline points="-767.5,1066 -767.5,1081 -767.5,1081 -767.5,1096" stroke-linejoin="round" fill="none" stroke="rgb(86,81,62)" stroke-width="1.5" stroke-opacity="0.200" /><polyline points="-767.5,1131 -767.5,1146 -767.5,1146 -767.5,1161" stroke-linejoin="round" fill="none" stroke="rgb(86,81,62)" stroke-width="1.5" stroke-opacity="0.200" /><polyline points="-767.5,1196 -767.5,1211 -767.5,1211 -767.5,1226" stroke-linejoin="round" fill="none" stroke="rgb(86,81,62)" stroke-width="1.5" stroke-opacity="0.200" /><polyline points="-767.5,1001 -767.5,1016 -767.5,1016 -767.5,1031" fill="none" stroke-linejoin="round" stroke="rgb(86,81,62)" stroke-width="1.6" stroke-opacity="0.949" /><rect x="200.5" y="418" width="88" height="35" rx="4" fill="rgb(22,22,32)" fill-opacity="0.820" stroke="rgb(86,81,62)" stroke-width="1.3" stroke-opacity="0.820" /><text x="210.5" y="435.5" font-size="15" text-anchor="start" dominant-baseline="central" fill="rgb(216,198,143)" font-family="Georgia, 'Times New Roman', serif">Enoch</text><rect x="195.5" y="483" width="98" height="35" rx="4" fill="rgb(22,22,32)" fill-opacity="0.820" stroke="rgb(86,81,62)" stroke-width="1.3" stroke-opacity="0.820" /><text x="205.5" y="500.5" font-size="15" text-anchor="start" dominant-baseline="central" fill="rgb(216,198,143)" font-family="Georgia, 'Times New Roman', serif">Methuselah</text><rect x="200.5" y="548" width="88" height="35" rx="4" fill="rgb(22,22,32)" fill-opacity="0.820" stroke="rgb(86,81,62)" stroke-width="1.3" stroke-opacity="0.820" /><text x="210.5" y="565.5" font-size="15" text-anchor="start" dominant-baseline="central" fill="rgb(216,198,143)" font-family="Georgia, 'Times New Roman', serif">Lamech</text><rect x="200.5" y="613" width="88" height="63" rx="4" fill="rgb(22,22,32)" fill-opacity="0.820" stroke="rgb(86,81,62)" stroke-width="1.3" stroke-opacity="0.820" /><polygon points="245.26,622.36 245.42,631.82 245.34,641.27 244.83,643.64 244.32,641.27 244.24,631.82 244.39,622.36 244.83,620" fill="rgb(34,33,38)" stroke="rgb(86,81,62)" stroke-width="1.2" stroke-opacity="0.949" /><polygon points="243.85,626.07 251.27,626.92 258.66,627.94 260.48,628.46 258.59,628.55 251.16,627.77 243.76,626.83 241.95,626.23" fill="rgb(34,33,38)" stroke="rgb(86,81,62)" stroke-width="1.2" stroke-opacity="0.949" /><polygon points="244.83,627.22 246.57,626.39 249.05,627 251.47,627.73 253.7,628.07 255.86,628.52 257.6,629.26 258.8,630.41 259.56,631.84 259.9,633.35 259.88,635.05 259.42,636.82 258.37,638.21 256.46,638.94 253.95,639.27 251.47,639.48 248.99,640.12 246.54,640.64 244.83,639.74 244.09,636.03 244.09,630.9" fill="rgb(46,44,43)" stroke="rgb(86,81,62)" stroke-width="1.4" stroke-opacity="0.949" /><polyline points="248.81,628.16 248.83,629.54 248.86,631.54 248.89,633.86 248.92,636.18 248.95,638.19 248.97,639.56" stroke-linejoin="round" fill="none" stroke="rgb(86,81,62)" stroke-width="1.2" stroke-opacity="0.718" /><polyline points="252.14,628.74 252.17,630.05 252.22,631.96 252.28,634.18 252.33,636.4 252.38,638.31 252.42,639.62" stroke-linejoin="round" fill="none" stroke="rgb(86,81,62)" stroke-width="1.2" stroke-opacity="0.718" /><polyline points="255.46,629.31 255.51,630.56 255.58,632.39 255.66,634.5 255.75,636.61 255.82,638.44 255.87,639.69" stroke-linejoin="round" fill="none" stroke="rgb(86,81,62)" stroke-width="1.2" stroke-opacity="0.718" /><polygon points="226.94,636.67 226.9,637.17 227,638.05 227.23,639.16 227.57,640.35 227.99,641.44 228.47,642.29 229.02,642.92 229.65,643.43 230.36,643.86 231.16,644.23 232.06,644.55 233.07,644.85 234.21,645.12 235.46,645.34 236.81,645.52 238.24,645.66 239.73,645.78 241.25,645.87 242.86,645.94 244.58,645.99 246.36,646 248.14,645.99 249.86,645.94 251.47,645.87 252.99,645.78 254.48,645.66 255.91,645.52 257.26,645.34 258.52,645.12 259.65,644.85 260.66,644.55 261.56,644.23 262.36,643.86 263.07,643.43 263.7,642.92 264.25,642.29 264.73,641.44 265.16,640.35 265.49,639.16 265.72,638.05 265.83,637.17 265.78,636.67 265.56,636.63 265.18,636.94 264.66,637.47 264.06,638.11 263.4,638.74 262.72,639.23 262.02,639.61 261.3,639.99 260.51,640.35 259.65,640.69 258.69,641 257.6,641.27 256.36,641.51 254.97,641.73 253.48,641.91 251.95,642.07 250.41,642.2 248.92,642.29 247.45,642.37 245.96,642.41 244.48,642.42 243.01,642.41 241.59,642.37 240.23,642.29 238.9,642.2 237.58,642.07 236.3,641.91 235.1,641.73 234.01,641.51 233.07,641.27 232.33,641 231.75,640.69 231.29,640.35 230.88,639.99 230.47,639.61 230.01,639.23 229.44,638.74 228.82,638.11 228.19,637.47 227.62,636.94 227.19,636.63" fill="rgb(34,33,38)" stroke="rgb(86,81,62)" stroke-width="1.2" stroke-opacity="0.949" /><polyline points="233.84,642.45 238.44,642.45" stroke-linejoin="round" fill="none" stroke="rgb(86,81,62)" stroke-width="1.2" stroke-opacity="0.718" /><polyline points="240.48,642.45 245.08,642.45" stroke-linejoin="round" fill="none" stroke="rgb(86,81,62)" stroke-width="1.2" stroke-opacity="0.718" /><polyline points="247.64,642.45 252.24,642.45" stroke-linejoin="round" fill="none" stroke="rgb(86,81,62)" stroke-width="1.2" stroke-opacity="0.718" /><polyline points="254.28,642.45 258.88,642.45" stroke-linejoin="round" fill="none" stroke="rgb(86,81,62)" stroke-width="1.2" stroke-opacity="0.718" /><polygon points="229.82,640.65 227.21,643.19 224.39,645.48 223.17,645.43 223.36,644.22 226.16,641.91 229.17,639.86 230.2,639.68" fill="rgb(34,33,38)" stroke="rgb(86,81,62)" stroke-width="1.2" stroke-opacity="0.949" /><polyline points="228.47,641.27 230.42,641.48 233.11,641.78 236.3,642.14 239.74,642.47 243.17,642.71 246.36,642.81 249.55,642.71 252.99,642.47 256.42,642.14 259.61,641.78 262.3,641.48 264.25,641.27" stroke-linejoin="round" fill="none" stroke="rgb(86,81,62)" stroke-width="1.2" stroke-opacity="0.718" /><text x="210.5" y="658.5" font-size="15" text-anchor="start" dominant-baseline="central" fill="rgb(216,198,143)" font-family="Georgia, 'Times New Roman', serif">Noah</text><rect x="-409.5" y="706" width="88" height="35" rx="4" fill="rgb(22,22,32)" fill-opacity="0.820" stroke="rgb(86,81,62)" stroke-width="1.3" stroke-opacity="0.820" /><text x="-399.5" y="723.5" font-size="15" text-anchor="start" dominant-baseline="central" fill="rgb(216,198,143)" font-family="Georgia, 'Times New Roman', serif">Shem</text><rect x="-632" y="771" width="101" height="35" rx="4" fill="rgb(22,22,32)" fill-opacity="0.820" stroke="rgb(86,81,62)" stroke-width="1.3" stroke-opacity="0.820" /><text x="-622" y="788.5" font-size="15" text-anchor="start" dominant-baseline="central" fill="rgb(216,198,143)" font-family="Georgia, 'Times New Roman', serif">Arpachshad</text><rect x="-625.5" y="836" width="88" height="35" rx="4" fill="rgb(22,22,32)" fill-opacity="0.820" stroke="rgb(86,81,62)" stroke-width="1.3" stroke-opacity="0.820" /><text x="-615.5" y="853.5" font-size="15" text-anchor="start" dominant-baseline="central" fill="rgb(216,198,143)" font-family="Georgia, 'Times New Roman', serif">Shelah</text><rect x="-625.5" y="901" width="88" height="35" rx="4" fill="rgb(22,22,32)" stroke="rgb(255,244,170)" stroke-width="2.2" /><text x="-615.5" y="918.5" font-size="15" text-anchor="start" dominant-baseline="central" fill="rgb(255,244,170)" font-family="Georgia, 'Times New Roman', serif">Eber</text><rect x="-811.5" y="966" width="88" height="35" rx="4" fill="rgb(22,22,32)" stroke="rgb(255,244,170)" stroke-width="2.2" /><text x="-801.5" y="983.5" font-size="15" text-anchor="start" dominant-baseline="central" fill="rgb(255,244,170)" font-family="Georgia, 'Times New Roman', serif">Peleg</text><rect x="-811.5" y="1031" width="88" height="35" rx="4" fill="rgb(22,22,32)" fill-opacity="0.239" stroke="rgb(86,81,62)" stroke-width="1.2" stroke-opacity="0.239" /><text x="-801.5" y="1048.5" font-size="15" text-anchor="start" dominant-baseline="central" fill="rgb(146,136,106)" font-family="Georgia, 'Times New Roman', serif" fill-opacity="0.698">Reu</text><rect x="-811.5" y="1096" width="88" height="35" rx="4" fill="rgb(22,22,32)" fill-opacity="0.239" stroke="rgb(86,81,62)" stroke-width="1.2" stroke-opacity="0.239" /><text x="-801.5" y="1113.5" font-size="15" text-anchor="start" dominant-baseline="central" fill="rgb(146,136,106)" font-family="Georgia, 'Times New Roman', serif" fill-opacity="0.698">Serug</text><rect x="-811.5" y="1161" width="88" height="35" rx="4" fill="rgb(22,22,32)" fill-opacity="0.239" stroke="rgb(86,81,62)" stroke-width="1.2" stroke-opacity="0.239" /><text x="-801.5" y="1178.5" font-size="15" text-anchor="start" dominant-baseline="central" fill="rgb(146,136,106)" font-family="Georgia, 'Times New Roman', serif" fill-opacity="0.698">Nahor</text><rect x="-811.5" y="1226" width="88" height="35" rx="4" fill="rgb(22,22,32)" fill-opacity="0.239" stroke="rgb(86,81,62)" stroke-width="1.2" stroke-opacity="0.239" /><text x="-801.5" y="1243.5" font-size="15" text-anchor="start" dominant-baseline="central" fill="rgb(146,136,106)" font-family="Georgia, 'Times New Roman', serif" fill-opacity="0.698">Terah</text><g opacity="1"><rect x="-811.5" y="1031" width="88" height="35" rx="4" fill="rgb(22,22,32)" stroke="rgb(255,244,170)" stroke-width="2.2" /><text x="-801.5" y="1048.5" font-size="15" text-anchor="start" dominant-baseline="central" fill="rgb(255,244,170)" font-family="Georgia, 'Times New Roman', serif">Reu</text></g></g></g><rect x="0" y="0" width="1024" height="46" fill="rgb(13,13,20)" fill-opacity="0.925" /><text x="28" y="20" font-size="24" text-anchor="start" dominant-baseline="text-before-edge" fill="rgb(216,198,143)" font-family="Georgia, 'Times New Roman', serif" font-weight="bold">From Shem to Abraham — 1 Chronicles 1</text><line x1="0" y1="46" x2="1024" y2="46" stroke="rgb(86,81,62)" stroke-width="1" stroke-opacity="0.600" /></svg>