<svg xmlns="http://www.w3.org/2000/svg" viewBox="0 0 1024 576" width="1024" height="576" font-family="Georgia, 'Times New Roman', serif"><rect x="0" y="0" width="1024" height="576" fill="rgb(13,13,20)" /><g transform="translate(2515.35 -11099.42)"><g transform="scale(1.172577)"><polyline points="-2668,9427 -2668,9442 -2439,9442 -2439,9457" stroke-linejoin="round" fill="none" stroke="rgb(86,81,62)" stroke-width="1.5" stroke-opacity="0.800" stroke-dasharray="4 4" /><polyline points="-1676.5,9427 -1676.5,9442 -2215,9442 -2215,9457" stroke-linejoin="round" fill="none" stroke="rgb(86,81,62)" stroke-width="1.5" stroke-opacity="0.800" /><polyline points="-1676.5,9427 -1676.5,9442 -2107,9442 -2107,9457" stroke-linejoin="round" fill="none" stroke="rgb(86,81,62)" stroke-width="1.5" stroke-opacity="0.800" /><polyline points="-1676.5,9427 -1676.5,9442 -1999,9442 -1999,9457" stroke-linejoin="round" fill="none" stroke="rgb(86,81,62)" stroke-width="1.5" stroke-opacity="0.800" /><polyline points="-1676.5,9427 -1676.5,9442 -1626.5,9442 -1626.5,9457" stroke-linejoin="round" fill="none" stroke="rgb(86,81,62)" stroke-width="1.5" stroke-opacity="0.800" /><polyline points="-1626.5,9492 -1626.5,9507 -1680.5,9507 -1680.5,9522" stroke-linejoin="round" fill="none" stroke="rgb(86,81,62)" stroke-width="1.5" stroke-opacity="0.800" /><polyline points="-1680.5,9557 -1680.5,9572 -1852,9572 -1852,9587" stroke-linejoin="round" fill="none" stroke="rgb(86,81,62)" stroke-width="1.5" stroke-opacity="0.800" /><polyline points="-1852,9622 -1852,9637 -1839,9637 -1839,9652" stroke-linejoin="round" fill="none" stroke="rgb(86,81,62)" stroke-width="1.5" stroke-opacity="0.800" /><polyline points="-1852,9622 -1852,9667.5 -1839,9667.5 -1839,9713" stroke-linejoin="round" fill="none" stroke="rgb(86,81,62)" stroke-width="1.5" stroke-opacity="0.800" /><polyline points="-1852,9622 -1852,9698 -1839,9698 -1839,9774" stroke-linejoin="round" fill="none" stroke="rgb(86,81,62)" stroke-width="1.5" stroke-opacity="0.800" /><polyline points="-1680.5,9557 -1680.5,9572 -1708.5,9572 -1708.5,9587" stroke-linejoin="round" fill="none" stroke="rgb(86,81,62)" stroke-width="1.5" stroke-opacity="0.949" /><polyline points="-1708.5,9622 -1708.5,9637 -1705,9637 -1705,9652" stroke-linejoin="round" fill="none" stroke="rgb(86,81,62)" stroke-width="1.5" stroke-opacity="0.200" /><polyline points="-1708.5,9622 -1708.5,9667.5 -1705,9667.5 -1705,9713" stroke-linejoin="round" fill="none" stroke="rgb(86,81,62)" stroke-width="1.5" stroke-opacity="0.200" /><polyline points="-1708.5,9622 -1708.5,9698 -1705,9698 -1705,9774" stroke-linejoin="round" fill="none" stroke="rgb(86,81,62)" stroke-width="1.5" stroke-opacity="0.200" /><polyline points="-1708.5,9622 -1708.5,9728.5 -1705,9728.5 -1705,9835" stroke-linejoin="round" fill="none" stroke="rgb(86,81,62)" stroke-width="1.5" stroke-opacity="0.200" /><polyline points="-1680.5,9557 -1680.5,9572 -1578,9572 -1578,9587" stroke-linejoin="round" fill="none" stroke="rgb(86,81,62)" stroke-width="1.5" stroke-opacity="0.800" /><polyline points="-1680.5,9557 -1680.5,9572 -1470,9572 -1470,9587" stroke-linejoin="round" fill="none" stroke="rgb(86,81,62)" stroke-width="1.5" stroke-opacity="0.800" /><polyline points="-1680.5,9557 -1680.5,9726.5 -1674.5,9726.5 -1674.5,9896" stroke-linejoin="round" fill="none" stroke="rgb(86,81,62)" stroke-width="1.5" stroke-opacity="0.200" /><polyline points="-1674.5,9931 -1674.5,9946 -1715.5,9946 -1715.5,9961" stroke-linejoin="round" fill="none" stroke="rgb(86,81,62)" stroke-width="1.5" stroke-opacity="0.200" /><polyline points="-1674.5,9931 -1674.5,9946 -1484,9946 -1484,9961" stroke-linejoin="round" fill="none" stroke="rgb(86,81,62)" stroke-width="1.5" stroke-opacity="0.200" /><polyline points="-1626.5,9492 -1626.5,9507 -1362,9507 -1362,9522" stroke-linejoin="round" fill="none" stroke="rgb(86,81,62)" stroke-width="1.5" stroke-opacity="0.800" /><polyline points="-1676.5,9427 -1676.5,9442 -1254,9442 -1254,9457" stroke-linejoin="round" fill="none" stroke="rgb(86,81,62)" stroke-width="1.5" stroke-opacity="0.800" /><polyline points="-1676.5,9427 -1676.5,9442 -1129,9442 -1129,9457" stroke-linejoin="round" fill="none" stroke="rgb(86,81,62)" stroke-width="1.5" stroke-opacity="0.200" stroke-dasharray="4 4" /><polyline points="-1129,9492 -1129,9507 -1116,9507 -1116,9522" stroke-linejoin="round" fill="none" stroke="rgb(86,81,62)" stroke-width="1.5" stroke-opacity="0.200" /><polyline points="-1129,9492 -1129,9537.5 -1120,9537.5 -1120,9583" stroke-linejoin="round" fill="none" stroke="rgb(86,81,62)" stroke-width="1.5" stroke-opacity="0.200" /><polyline points="-1129,9492 -1129,9568 -1120,9568 -1120,9644" stroke-linejoin="round" fill="none" stroke="rgb(86,81,62)" stroke-width="1.5" stroke-opacity="0.200" /><polyline points="-1708.5,9622 -1708.5,9637 -1705,9637 -1705,9652" fill="none" stroke-linejoin="round" stroke="rgb(86,81,62)" stroke-width="1.6" stroke-opacity="0.949" /><polyline points="-1708.5,9622 -1708.5,9667.5 -1705,9667.5 -1705,9713" fill="none" stroke-linejoin="round" stroke="rgb(86,81,62)" stroke-width="1.6" stroke-opacity="0.949" /><polyline points="-1708.5,9622 -1708.5,9698 -1705,9698 -1705,9774" fill="none" stroke-linejoin="round" stroke="rgb(86,81,62)" stroke-width="1.6" stroke-opacity="0.949" /><polyline points="-1708.5,9622 -1708.5,9728.5 -1705,9728.5 -1705,9835" fill="none" stroke-linejoin="round" stroke="rgb(86,81,62)" stroke-width="1.6" stroke-opacity="0.949" /><rect x="-2573" y="9457" width="268" height="35" rx="4" fill="rgb(22,22,32)" fill-opacity="0.820" stroke="rgb(120,118,138)" stroke-width="1.3" stroke-opacity="0.820" /><text x="-2563" y="9474.5" font-size="15" text-anchor="start" dominant-baseline="central" fill="rgb(216,198,143)" font-family="Georgia, 'Times New Roman', serif" font-style="italic">their brothers, of their fathers' houses</text><rect x="-2259" y="9457" width="88" height="35" rx="4" fill="rgb(22,22,32)" fill-opacity="0.820" stroke="rgb(86,81,62)" stroke-width="1.3" stroke-opacity="0.820" /><text x="-2249" y="9474.5" font-size="15" text-anchor="start" dominant-baseline="central" fill="rgb(216,198,143)" font-family="Georgia, 'Times New Roman', serif">Imnah</text><rect x="-2151" y="9457" width="88" height="35" rx="4" fill="rgb(22,22,32)" fill-opacity="0.820" stroke="rgb(86,81,62)" stroke-width="1.3" stroke-opacity="0.820" /><text x="-2141" y="9474.5" font-size="15" text-anchor="start" dominant-baseline="central" fill="rgb(216,198,143)" font-family="Georgia, 'Times New Roman', serif">Ishvah</text><rect x="-2043" y="9457" width="88" height="35" rx="4" fill="rgb(22,22,32)" fill-opacity="0.820" stroke="rgb(86,81,62)" stroke-width="1.3" stroke-opacity="0.820" /><text x="-2033" y="9474.5" font-size="15" text-anchor="start" dominant-baseline="central" fill="rgb(216,198,143)" font-family="Georgia, 'Times New Roman', serif">Ishvi</text><rect x="-1670.5" y="9457" width="88" height="35" rx="4" fill="rgb(22,22,32)" fill-opacity="0.820" stroke="rgb(86,81,62)" stroke-width="1.3" stroke-opacity="0.820" /><text x="-1660.5" y="9474.5" font-size="15" text-anchor="start" dominant-baseline="central" fill="rgb(216,198,143)" font-family="Georgia, 'Times New Roman', serif">Beriah</text><rect x="-1724.5" y="9522" width="88" height="35" rx="4" fill="rgb(22,22,32)" fill-opacity="0.820" stroke="rgb(86,81,62)" stroke-width="1.3" stroke-opacity="0.820" /><text x="-1714.5" y="9539.5" font-size="15" text-anchor="start" dominant-baseline="central" fill="rgb(216,198,143)" font-family="Georgia, 'Times New Roman', serif">Heber</text><rect x="-1896" y="9587" width="88" height="35" rx="4" fill="rgb(22,22,32)" fill-opacity="0.820" stroke="rgb(86,81,62)" stroke-width="1.3" stroke-opacity="0.820" /><text x="-1886" y="9604.5" font-size="15" text-anchor="start" dominant-baseline="central" fill="rgb(216,198,143)" font-family="Georgia, 'Times New Roman', serif">Japhlet</text><rect x="-1883" y="9652" width="88" height="35" rx="4" fill="rgb(22,22,32)" fill-opacity="0.820" stroke="rgb(86,81,62)" stroke-width="1.3" stroke-opacity="0.820" /><text x="-1873" y="9669.5" font-size="15" text-anchor="start" dominant-baseline="central" fill="rgb(216,198,143)" font-family="Georgia, 'Times New Roman', serif">Pasach</text><rect x="-1883" y="9713" width="88" height="35" rx="4" fill="rgb(22,22,32)" fill-opacity="0.820" stroke="rgb(86,81,62)" stroke-width="1.3" stroke-opacity="0.820" /><text x="-1873" y="9730.5" font-size="15" text-anchor="start" dominant-baseline="central" fill="rgb(216,198,143)" font-family="Georgia, 'Times New Roman', serif">Bimhal</text><rect x="-1883" y="9774" width="88" height="35" rx="4" fill="rgb(22,22,32)" fill-opacity="0.820" stroke="rgb(86,81,62)" stroke-width="1.3" stroke-opacity="0.820" /><text x="-1873" y="9791.5" font-size="15" text-anchor="start" dominant-baseline="central" fill="rgb(216,198,143)" font-family="Georgia, 'Times New Roman', serif">Ashvath</text><rect x="-1775" y="9587" width="133" height="35" rx="4" fill="rgb(22,22,32)" stroke="rgb(255,244,170)" stroke-width="2.2" /><text x="-1765" y="9604.5" font-size="15" text-anchor="start" dominant-baseline="central" fill="rgb(255,244,170)" font-family="Georgia, 'Times New Roman', serif">Shomer · Shemer</text><rect x="-1749" y="9652" width="88" height="35" rx="4" fill="rgb(22,22,32)" fill-opacity="0.239" stroke="rgb(86,81,62)" stroke-width="1.2" stroke-opacity="0.239" /><text x="-1739" y="9669.5" font-size="15" text-anchor="start" dominant-baseline="central" fill="rgb(146,136,106)" font-family="Georgia, 'Times New Roman', serif" fill-opacity="0.698">Ahi</text><rect x="-1749" y="9713" width="88" height="35" rx="4" fill="rgb(22,22,32)" fill-opacity="0.239" stroke="rgb(86,81,62)" stroke-width="1.2" stroke-opacity="0.239" /><text x="-1739" y="9730.5" font-size="15" text-anchor="start" dominant-baseline="central" fill="rgb(146,136,106)" font-family="Georgia, 'Times New Roman', serif" fill-opacity="0.698">Rohgah</text><rect x="-1749" y="9774" width="88" height="35" rx="4" fill="rgb(22,22,32)" fill-opacity="0.239" stroke="rgb(86,81,62)" stroke-width="1.2" stroke-opacity="0.239" /><text x="-1739" y="9791.5" font-size="15" text-anchor="start" dominant-baseline="central" fill="rgb(146,136,106)" font-family="Georgia, 'Times New Roman', serif" fill-opacity="0.698">Jehubbah</text><rect x="-1749" y="9835" width="88" height="35" rx="4" fill="rgb(22,22,32)" fill-opacity="0.239" stroke="rgb(86,81,62)" stroke-width="1.2" stroke-opacity="0.239" /><text x="-1739" y="9852.5" font-size="15" text-anchor="start" dominant-baseline="central" fill="rgb(146,136,106)" font-family="Georgia, 'Times New Roman', serif" fill-opacity="0.698">Aram</text><rect x="-1622" y="9587" width="88" height="35" rx="4" fill="rgb(22,22,32)" fill-opacity="0.820" stroke="rgb(86,81,62)" stroke-width="1.3" stroke-opacity="0.820" /><text x="-1612" y="9604.5" font-size="15" text-anchor="start" dominant-baseline="central" fill="rgb(216,198,143)" font-family="Georgia, 'Times New Roman', serif">Hotham</text><rect x="-1514" y="9587" width="88" height="35" rx="12" fill="rgb(22,22,32)" fill-opacity="0.820" stroke="rgb(204,152,138)" stroke-width="1.3" stroke-opacity="0.820" /><text x="-1504" y="9604.5" font-size="15" text-anchor="start" dominant-baseline="central" fill="rgb(216,198,143)" font-family="Georgia, 'Times New Roman', serif">Shua</text><rect x="-1718.5" y="9896" width="88" height="35" rx="4" fill="rgb(22,22,32)" fill-opacity="0.239" stroke="rgb(86,81,62)" stroke-width="1.2" stroke-opacity="0.239" /><text x="-1708.5" y="9913.5" font-size="15" text-anchor="start" dominant-baseline="central" fill="rgb(146,136,106)" font-family="Georgia, 'Times New Roman', serif" fill-opacity="0.698">Helem</text><rect x="-1759.5" y="9961" width="88" height="35" rx="4" fill="rgb(22,22,32)" fill-opacity="0.239" stroke="rgb(86,81,62)" stroke-width="1.2" stroke-opacity="0.239" /><text x="-1749.5" y="9978.5" font-size="15" text-anchor="start" dominant-baseline="central" fill="rgb(146,136,106)" font-family="Georgia, 'Times New Roman', serif" fill-opacity="0.698">Zophah</text><rect x="-1528" y="9961" width="88" height="35" rx="4" fill="rgb(22,22,32)" fill-opacity="0.239" stroke="rgb(86,81,62)" stroke-width="1.2" stroke-opacity="0.239" /><text x="-1518" y="9978.5" font-size="15" text-anchor="start" dominant-baseline="central" fill="rgb(146,136,106)" font-family="Georgia, 'Times New Roman', serif" fill-opacity="0.698">Imna</text><rect x="-1406" y="9522" width="88" height="35" rx="4" fill="rgb(22,22,32)" fill-opacity="0.820" stroke="rgb(86,81,62)" stroke-width="1.3" stroke-opacity="0.820" /><text x="-1396" y="9539.5" font-size="15" text-anchor="start" dominant-baseline="central" fill="rgb(216,198,143)" font-family="Georgia, 'Times New Roman', serif">Malchiel</text><rect x="-1298" y="9457" width="88" height="35" rx="12" fill="rgb(22,22,32)" fill-opacity="0.820" stroke="rgb(204,152,138)" stroke-width="1.3" stroke-opacity="0.820" /><text x="-1288" y="9474.5" font-size="15" text-anchor="start" dominant-baseline="central" fill="rgb(216,198,143)" font-family="Georgia, 'Times New Roman', serif">Serah</text><rect x="-1173" y="9457" width="88" height="35" rx="4" fill="rgb(22,22,32)" fill-opacity="0.239" stroke="rgb(86,81,62)" stroke-width="1.2" stroke-opacity="0.239" /><text x="-1163" y="9474.5" font-size="15" text-anchor="start" dominant-baseline="central" fill="rgb(146,136,106)" font-family="Georgia, 'Times New Roman', serif" fill-opacity="0.698">Jether</text><rect x="-1164" y="9522" width="96" height="35" rx="4" fill="rgb(22,22,32)" fill-opacity="0.239" stroke="rgb(86,81,62)" stroke-width="1.2" stroke-opacity="0.239" /><text x="-1154" y="9539.5" font-size="15" text-anchor="start" dominant-baseline="central" fill="rgb(146,136,106)" font-family="Georgia, 'Times New Roman', serif" fill-opacity="0.698">Jephunneh</text><rect x="-1164" y="9583" width="88" height="35" rx="4" fill="rgb(22,22,32)" fill-opacity="0.239" stroke="rgb(86,81,62)" stroke-width="1.2" stroke-opacity="0.239" /><text x="-1154" y="9600.5" font-size="15" text-anchor="start" dominant-baseline="central" fill="rgb(146,136,106)" font-family="Georgia, 'Times New Roman', serif" fill-opacity="0.698">Pispa</text><rect x="-1164" y="9644" width="88" height="35" rx="4" fill="rgb(22,22,32)" fill-opacity="0.239" stroke="rgb(86,81,62)" stroke-width="1.2" stroke-opacity="0.239" /><text x="-1154" y="9661.5" font-size="15" text-anchor="start" dominant-baseline="central" fill="rgb(146,136,106)" font-family="Georgia, 'Times New Roman', serif" fill-opacity="0.698">Ara</text><g opacity="1"><rect x="-1749" y="9652" width="88" height="35" rx="4" fill="rgb(22,22,32)" stroke="rgb(255,244,170)" stroke-width="2.2" /><text x="-1739" y="9669.5" font-size="15" text-anchor="start" dominant-baseline="central" fill="rgb(255,244,170)" font-family="Georgia, 'Times New Roman', serif">Ahi</text></g><g opacity="1"><rect x="-1749" y="9713" width="88" height="35" rx="4" fill="rgb(22,22,32)" stroke="rgb(255,244,170)" stroke-width="2.2" /><text x="-1739" y="9730.5" font-size="15" text-anchor="start" dominant-baseline="central" fill="rgb(255,244,170)" font-family="Georgia, 'Times New Roman', serif">Rohgah</text></g><g opacity="1"><rect x="-1749" y="9774" width="88" height="35" rx="4" fill="rgb(22,22,32)" stroke="rgb(255,244,170)" stroke-width="2.2" /><text x="-1739" y="9791.5" font-size="15" text-anchor="start" dominant-baseline="central" fill="rgb(255,244,170)" font-family="Georgia, 'Times New Roman', serif">Jehubbah</text></g><g opacity="1"><rect x="-1749" y="9835" width="88" height="35" rx="4" fill="rgb(22,22,32)" stroke="rgb(255,244,170)" stroke-width="2.2" /><text x="-1739" y="9852.5" font-size="15" text-anchor="start" dominant-baseline="central" fill="rgb(255,244,170)" font-family="Georgia, 'Times New Roman', serif">Aram</text></g></g></g><rect x="0" y="0" width="1024" height="46" fill="rgb(13,13,20)" fill-opacity="0.925" /><text x="28" y="20" font-size="24" text-anchor="start" dominant-baseline="text-before-edge" fill="rgb(216,198,143)" font-family="Georgia, 'Times New Roman', serif" font-weight="bold">The sons of Asher — 1 Chronicles 7</text><line x1="0" y1="46" x2="1024" y2="46" stroke="rgb(86,81,62)" stroke-width="1" stroke-opacity="0.600" /></svg>