<svg xmlns="http://www.w3.org/2000/svg" viewBox="0 0 1024 576" width="1024" height="576" font-family="Georgia, 'Times New Roman', serif"><rect x="0" y="0" width="1024" height="576" fill="rgb(16,16,24)"/><polyline points="96,118 756,118" stroke-linejoin="round" stroke-linecap="round" fill="none" stroke="rgb(100,98,89)" stroke-width="3"/><polyline points="96,448 756,448" stroke-linejoin="round" stroke-linecap="round" fill="none" stroke="rgb(100,98,89)" stroke-width="3"/><polyline points="96,118 96,448" stroke-linejoin="round" stroke-linecap="round" fill="none" stroke="rgb(100,98,89)" stroke-width="3"/><polyline points="756,118 756,217" stroke-linejoin="round" stroke-linecap="round" fill="none" stroke="rgb(100,98,89)" stroke-width="3"/><polyline points="756,349 756,448" stroke-linejoin="round" stroke-linecap="round" fill="none" stroke="rgb(100,98,89)" stroke-width="3"/><polyline points="756,217 756,250" stroke-linejoin="round" stroke-linecap="round" fill="none" stroke="rgb(61,67,108)" stroke-width="5"/><polyline points="756,250 756,283" stroke-linejoin="round" stroke-linecap="round" fill="none" stroke="rgb(77,47,88)" stroke-width="5"/><polyline points="756,283 756,316" stroke-linejoin="round" stroke-linecap="round" fill="none" stroke="rgb(100,42,42)" stroke-width="5"/><polyline points="756,316 756,349" stroke-linejoin="round" stroke-linecap="round" fill="none" stroke="rgb(100,98,89)" stroke-width="5"/><ellipse cx="96" cy="118" rx="2.6" ry="2.6" fill="rgb(74,70,56)"/><ellipse cx="129" cy="118" rx="2.6" ry="2.6" fill="rgb(74,70,56)"/><ellipse cx="162" cy="118" rx="2.6" ry="2.6" fill="rgb(74,70,56)"/><ellipse cx="195" cy="118" rx="2.6" ry="2.6" fill="rgb(74,70,56)"/><ellipse cx="228" cy="118" rx="2.6" ry="2.6" fill="rgb(74,70,56)"/><ellipse cx="261" cy="118" rx="2.6" ry="2.6" fill="rgb(74,70,56)"/><ellipse cx="294" cy="118" rx="2.6" ry="2.6" fill="rgb(74,70,56)"/><ellipse cx="327" cy="118" rx="2.6" ry="2.6" fill="rgb(74,70,56)"/><ellipse cx="360" cy="118" rx="2.6" ry="2.6" fill="rgb(74,70,56)"/><ellipse cx="393" cy="118" rx="2.6" ry="2.6" fill="rgb(74,70,56)"/><ellipse cx="426" cy="118" rx="2.6" ry="2.6" fill="rgb(74,70,56)"/><ellipse cx="459" cy="118" rx="2.6" ry="2.6" fill="rgb(74,70,56)"/><ellipse cx="492" cy="118" rx="2.6" ry="2.6" fill="rgb(74,70,56)"/><ellipse cx="525" cy="118" rx="2.6" ry="2.6" fill="rgb(74,70,56)"/><ellipse cx="558" cy="118" rx="2.6" ry="2.6" fill="rgb(74,70,56)"/><ellipse cx="591" cy="118" rx="2.6" ry="2.6" fill="rgb(74,70,56)"/><ellipse cx="624" cy="118" rx="2.6" ry="2.6" fill="rgb(74,70,56)"/><ellipse cx="657" cy="118" rx="2.6" ry="2.6" fill="rgb(74,70,56)"/><ellipse cx="690" cy="118" rx="2.6" ry="2.6" fill="rgb(74,70,56)"/><ellipse cx="723" cy="118" rx="2.6" ry="2.6" fill="rgb(74,70,56)"/><ellipse cx="756" cy="118" rx="2.6" ry="2.6" fill="rgb(74,70,56)"/><ellipse cx="96" cy="448" rx="2.6" ry="2.6" fill="rgb(74,70,56)"/><ellipse cx="129" cy="448" rx="2.6" ry="2.6" fill="rgb(74,70,56)"/><ellipse cx="162" cy="448" rx="2.6" ry="2.6" fill="rgb(74,70,56)"/><ellipse cx="195" cy="448" rx="2.6" ry="2.6" fill="rgb(74,70,56)"/><ellipse cx="228" cy="448" rx="2.6" ry="2.6" fill="rgb(74,70,56)"/><ellipse cx="261" cy="448" rx="2.6" ry="2.6" fill="rgb(74,70,56)"/><ellipse cx="294" cy="448" rx="2.6" ry="2.6" fill="rgb(74,70,56)"/><ellipse cx="327" cy="448" rx="2.6" ry="2.6" fill="rgb(74,70,56)"/><ellipse cx="360" cy="448" rx="2.6" ry="2.6" fill="rgb(74,70,56)"/><ellipse cx="393" cy="448" rx="2.6" ry="2.6" fill="rgb(74,70,56)"/><ellipse cx="426" cy="448" rx="2.6" ry="2.6" fill="rgb(74,70,56)"/><ellipse cx="459" cy="448" rx="2.6" ry="2.6" fill="rgb(74,70,56)"/><ellipse cx="492" cy="448" rx="2.6" ry="2.6" fill="rgb(74,70,56)"/><ellipse cx="525" cy="448" rx="2.6" ry="2.6" fill="rgb(74,70,56)"/><ellipse cx="558" cy="448" rx="2.6" ry="2.6" fill="rgb(74,70,56)"/><ellipse cx="591" cy="448" rx="2.6" ry="2.6" fill="rgb(74,70,56)"/><ellipse cx="624" cy="448" rx="2.6" ry="2.6" fill="rgb(74,70,56)"/><ellipse cx="657" cy="448" rx="2.6" ry="2.6" fill="rgb(74,70,56)"/><ellipse cx="690" cy="448" rx="2.6" ry="2.6" fill="rgb(74,70,56)"/><ellipse cx="723" cy="448" rx="2.6" ry="2.6" fill="rgb(74,70,56)"/><ellipse cx="756" cy="448" rx="2.6" ry="2.6" fill="rgb(74,70,56)"/><ellipse cx="96" cy="151" rx="2.6" ry="2.6" fill="rgb(74,70,56)"/><ellipse cx="96" cy="184" rx="2.6" ry="2.6" fill="rgb(74,70,56)"/><ellipse cx="96" cy="217" rx="2.6" ry="2.6" fill="rgb(74,70,56)"/><ellipse cx="96" cy="250" rx="2.6" ry="2.6" fill="rgb(74,70,56)"/><ellipse cx="96" cy="283" rx="2.6" ry="2.6" fill="rgb(74,70,56)"/><ellipse cx="96" cy="316" rx="2.6" ry="2.6" fill="rgb(74,70,56)"/><ellipse cx="96" cy="349" rx="2.6" ry="2.6" fill="rgb(74,70,56)"/><ellipse cx="96" cy="382" rx="2.6" ry="2.6" fill="rgb(74,70,56)"/><ellipse cx="96" cy="415" rx="2.6" ry="2.6" fill="rgb(74,70,56)"/><ellipse cx="756" cy="151" rx="2.6" ry="2.6" fill="rgb(74,70,56)"/><ellipse cx="756" cy="184" rx="2.6" ry="2.6" fill="rgb(74,70,56)"/><ellipse cx="756" cy="217" rx="2.6" ry="2.6" fill="rgb(74,70,56)"/><ellipse cx="756" cy="250" rx="2.6" ry="2.6" fill="rgb(74,70,56)"/><ellipse cx="756" cy="294.02" rx="2.6" ry="2.6" fill="rgb(74,70,56)"/><ellipse cx="756" cy="337.98" rx="2.6" ry="2.6" fill="rgb(74,70,56)"/><ellipse cx="756" cy="349" rx="2.6" ry="2.6" fill="rgb(74,70,56)"/><ellipse cx="756" cy="382" rx="2.6" ry="2.6" fill="rgb(74,70,56)"/><ellipse cx="756" cy="415" rx="2.6" ry="2.6" fill="rgb(74,70,56)"/><rect x="162" y="250" width="198" height="66" fill="none" stroke="rgb(74,70,56)" stroke-width="3"/><polyline points="228,250 228,316" stroke-linejoin="round" stroke-linecap="round" fill="none" stroke="rgb(74,70,56)" stroke-width="2"/><rect x="186.75" y="278.05" width="16.5" height="9.9" fill="none" stroke="rgb(140,130,100)" stroke-width="2"/><rect x="241.2" y="279.7" width="6.6" height="6.6" fill="none" stroke="rgb(74,70,56)" stroke-width="1"/><rect x="287.4" y="257.92" width="13.2" height="6.6" fill="none" stroke="rgb(74,70,56)" stroke-width="1"/><ellipse cx="294" cy="302.8" rx="4" ry="4" fill="none" stroke="rgb(74,70,56)" stroke-width="2"/><ellipse cx="426" cy="283" rx="6" ry="6" fill="none" stroke="rgb(74,70,56)" stroke-width="2"/><rect x="508.5" y="266.5" width="33" height="33" fill="none" stroke="rgb(104,69,31)" stroke-width="3"/><text x="261" y="233.5" font-size="14" text-anchor="middle" dominant-baseline="central" fill="rgb(140,130,100)" font-family="Georgia, 'Times New Roman', serif" font-style="italic">TENT OF MEETING</text><text x="195" y="323.92" font-size="14" text-anchor="middle" dominant-baseline="text-before-edge" fill="rgb(140,130,100)" font-family="Georgia, 'Times New Roman', serif" font-style="italic">Most Holy</text><text x="525" y="319.3" font-size="14" text-anchor="middle" dominant-baseline="text-before-edge" fill="rgb(140,130,100)" font-family="Georgia, 'Times New Roman', serif" font-style="italic">Bronze Altar</text><text x="426" y="306.1" font-size="14" text-anchor="middle" dominant-baseline="text-before-edge" fill="rgb(140,130,100)" font-family="Georgia, 'Times New Roman', serif" font-style="italic">Laver</text><text x="782.4" y="283" font-size="14" text-anchor="start" dominant-baseline="central" fill="rgb(140,130,100)" font-family="Georgia, 'Times New Roman', serif" font-style="italic">GATE</text><text x="426" y="471.1" font-size="14" text-anchor="middle" dominant-baseline="text-before-edge" fill="rgb(140,130,100)" font-family="Georgia, 'Times New Roman', serif" font-style="italic">COURTYARD  —  100 × 50 cubits</text><polyline points="940,56 940,26" stroke-linejoin="round" stroke-linecap="round" fill="none" stroke="rgb(74,70,56)" stroke-width="2"/><polyline points="936,33 940,26 944,33" stroke-linejoin="round" stroke-linecap="round" fill="none" stroke="rgb(74,70,56)" stroke-width="2"/><polyline points="940,56 970,56" stroke-linejoin="round" stroke-linecap="round" fill="none" stroke="rgb(74,70,56)" stroke-width="2"/><polyline points="963,52 970,56 963,60" stroke-linejoin="round" stroke-linecap="round" fill="none" stroke="rgb(74,70,56)" stroke-width="2"/><text x="940" y="16" font-size="15" text-anchor="middle" dominant-baseline="central" fill="rgb(140,130,100)" font-family="Georgia, 'Times New Roman', serif">N</text><text x="980" y="56" font-size="15" text-anchor="start" dominant-baseline="central" fill="rgb(140,130,100)" font-family="Georgia, 'Times New Roman', serif">E</text><text x="28" y="20" font-size="24" text-anchor="start" dominant-baseline="text-before-edge" fill="rgb(216,198,143)" font-family="Georgia, 'Times New Roman', serif" font-weight="bold">The Tabernacle — Exodus 26</text><text x="28" y="52" font-size="18" text-anchor="start" dominant-baseline="text-before-edge" fill="rgb(255,212,94)" font-family="Georgia, 'Times New Roman', serif" font-style="italic">verse 33 — the veil separates the Holy Place from the Most Holy</text><text x="28" y="550" font-size="14" text-anchor="start" dominant-baseline="text-before-edge" fill="rgb(140,130,100)" font-family="Georgia, 'Times New Roman', serif" font-style="italic">1 cubit ≈ 18 in / 45 cm</text><rect x="636" y="112" width="356" height="380" rx="10" fill="rgb(26,26,38)" stroke="rgb(74,70,56)" stroke-width="2"/><text x="814" y="134" font-size="15" text-anchor="middle" dominant-baseline="central" fill="rgb(216,198,143)" font-family="Georgia, 'Times New Roman', serif">THE VEIL</text><text x="814" y="156" font-size="14" text-anchor="middle" dominant-baseline="central" fill="rgb(140,130,100)" font-family="Georgia, 'Times New Roman', serif" font-style="italic">before the Most Holy Place</text><rect x="704" y="196" width="73" height="150" fill="rgb(61,67,108)" stroke="rgb(74,70,56)" stroke-width="1"/><rect x="777" y="196" width="73" height="150" fill="rgb(77,47,88)" stroke="rgb(74,70,56)" stroke-width="1"/><rect x="850" y="196" width="73" height="150" fill="rgb(100,42,42)" stroke="rgb(74,70,56)" stroke-width="1"/><rect x="704" y="196" width="220" height="150" fill="none" stroke="rgb(200,196,178)" stroke-width="2"/><text x="814" y="271" font-size="14" text-anchor="middle" dominant-baseline="central" fill="rgb(200,196,178)" font-family="Georgia, 'Times New Roman', serif" font-style="italic">· cherubim ·</text><polyline points="731.5,346 731.5,380" stroke-linejoin="round" stroke-linecap="round" fill="none" stroke="rgb(138,129,95)" stroke-width="4"/><rect x="724.5" y="380" width="14" height="10" fill="rgb(176,180,190)"/><polyline points="786.5,346 786.5,380" stroke-linejoin="round" stroke-linecap="round" fill="none" stroke="rgb(138,129,95)" stroke-width="4"/><rect x="779.5" y="380" width="14" height="10" fill="rgb(176,180,190)"/><polyline points="841.5,346 841.5,380" stroke-linejoin="round" stroke-linecap="round" fill="none" stroke="rgb(138,129,95)" stroke-width="4"/><rect x="834.5" y="380" width="14" height="10" fill="rgb(176,180,190)"/><polyline points="896.5,346 896.5,380" stroke-linejoin="round" stroke-linecap="round" fill="none" stroke="rgb(138,129,95)" stroke-width="4"/><rect x="889.5" y="380" width="14" height="10" fill="rgb(176,180,190)"/><g opacity="0.62"><animate attributeName="opacity" values="0.62;1.0;0.62" dur="2.1s" begin="0s" repeatCount="indefinite" calcMode="spline" keyTimes="0;0.5;1" keySplines="0.4 0 0.6 1;0.4 0 0.6 1"/><polyline points="814,188 814,194" stroke-linejoin="round" stroke-linecap="round" fill="none" stroke="rgb(255,244,170)" stroke-width="3"/><polyline points="814,199 814,205" stroke-linejoin="round" stroke-linecap="round" fill="none" stroke="rgb(255,244,170)" stroke-width="3"/><polyline points="814,210 814,216" stroke-linejoin="round" stroke-linecap="round" fill="none" stroke="rgb(255,244,170)" stroke-width="3"/><polyline points="814,221 814,227" stroke-linejoin="round" stroke-linecap="round" fill="none" stroke="rgb(255,244,170)" stroke-width="3"/><polyline points="814,232 814,238" stroke-linejoin="round" stroke-linecap="round" fill="none" stroke="rgb(255,244,170)" stroke-width="3"/><polyline points="814,243 814,249" stroke-linejoin="round" stroke-linecap="round" fill="none" stroke="rgb(255,244,170)" stroke-width="3"/><polyline points="814,254 814,260" stroke-linejoin="round" stroke-linecap="round" fill="none" stroke="rgb(255,244,170)" stroke-width="3"/><polyline points="814,265 814,271" stroke-linejoin="round" stroke-linecap="round" fill="none" stroke="rgb(255,244,170)" stroke-width="3"/><polyline points="814,276 814,282" stroke-linejoin="round" stroke-linecap="round" fill="none" stroke="rgb(255,244,170)" stroke-width="3"/><polyline points="814,287 814,293" stroke-linejoin="round" stroke-linecap="round" fill="none" stroke="rgb(255,244,170)" stroke-width="3"/><polyline points="814,298 814,304" stroke-linejoin="round" stroke-linecap="round" fill="none" stroke="rgb(255,244,170)" stroke-width="3"/><polyline points="814,309 814,315" stroke-linejoin="round" stroke-linecap="round" fill="none" stroke="rgb(255,244,170)" stroke-width="3"/><polyline points="814,320 814,326" stroke-linejoin="round" stroke-linecap="round" fill="none" stroke="rgb(255,244,170)" stroke-width="3"/><polyline points="814,331 814,337" stroke-linejoin="round" stroke-linecap="round" fill="none" stroke="rgb(255,244,170)" stroke-width="3"/><polyline points="814,342 814,348" stroke-linejoin="round" stroke-linecap="round" fill="none" stroke="rgb(255,244,170)" stroke-width="3"/><polyline points="814,353 814,359" stroke-linejoin="round" stroke-linecap="round" fill="none" stroke="rgb(255,244,170)" stroke-width="3"/><text x="758" y="218" font-size="14" text-anchor="middle" dominant-baseline="central" fill="rgb(255,244,170)" font-family="Georgia, 'Times New Roman', serif" font-weight="bold">MOST HOLY</text><text x="870" y="218" font-size="14" text-anchor="middle" dominant-baseline="central" fill="rgb(255,244,170)" font-family="Georgia, 'Times New Roman', serif" font-weight="bold">HOLY PLACE</text><text x="814" y="436" font-size="14" text-anchor="middle" dominant-baseline="central" fill="rgb(255,244,170)" font-family="Georgia, 'Times New Roman', serif" font-weight="bold">the veil divides the Holy Place</text><text x="814" y="460" font-size="14" text-anchor="middle" dominant-baseline="central" fill="rgb(255,244,170)" font-family="Georgia, 'Times New Roman', serif" font-style="italic">from the Most Holy</text><polyline points="228,250 228,316" stroke-linejoin="round" stroke-linecap="round" fill="none" stroke="rgb(255,244,170)" stroke-width="5"/><rect x="186.75" y="278.05" width="16.5" height="9.9" fill="none" stroke="rgb(255,244,170)" stroke-width="4"/></g></svg>