<svg xmlns="http://www.w3.org/2000/svg" viewBox="0 0 1024 576" width="1024" height="576" font-family="Georgia, 'Times New Roman', serif"><defs><clipPath id="clip1"><rect x="0" y="0" width="344" height="470"/></clipPath></defs><rect x="0" y="0" width="1024" height="576" fill="rgb(16,16,24)"/><text x="28" y="18" font-size="24" text-anchor="start" dominant-baseline="text-before-edge" fill="rgb(216,198,143)" font-family="Georgia, 'Times New Roman', serif" font-weight="bold">The Borders of the Land — Numbers 34</text><text x="28" y="52" font-size="18" text-anchor="start" dominant-baseline="text-before-edge" fill="rgb(255,244,170)" font-family="Georgia, 'Times New Roman', serif" font-style="italic">verse 9 — to Ziphron, ending at Hazar-enan — the north border</text><text x="440" y="536" font-size="14" text-anchor="start" dominant-baseline="text-before-edge" fill="rgb(140,130,100)" font-family="Georgia, 'Times New Roman', serif" font-style="italic">borders are approximate scholarly reconstructions</text><g clip-path="url(#clip1)" transform="translate(51,86)"><rect x="0" y="0" width="344" height="470" fill="rgb(24,36,54)"/><polygon points="3.75,359.15 18.73,350.28 37.46,340.53 69.67,329 84.65,308.6 93.64,295.3 99.64,283.77 107.88,261.6 114.62,241.21 119.12,221.7 121.36,211.06 124.36,192.43 129.6,195.98 132.6,184.45 134.85,173.81 135.6,169.38 141.59,153.42 149.08,137.45 155.08,127.7 163.32,97.55 176.05,78.04 182.05,62.08 191.04,48.77 200.03,26.6 206.02,4.43 209.76,-17.74 382.07,-35.47 382.07,514.34 -22.47,514.34" fill="rgb(34,35,29)"/><polyline points="3.75,359.15 18.73,350.28 37.46,340.53 69.67,329 84.65,308.6 93.64,295.3 99.64,283.77 107.88,261.6 114.62,241.21 119.12,221.7 121.36,211.06 124.36,192.43 129.6,195.98 132.6,184.45 134.85,173.81 135.6,169.38 141.59,153.42 149.08,137.45 155.08,127.7 163.32,97.55 176.05,78.04 182.05,62.08 191.04,48.77 200.03,26.6 206.02,4.43 209.76,-17.74" stroke-linejoin="round" fill="none" stroke="rgb(74,70,56)" stroke-width="2"/><polygon points="164.81,286.43 169.31,287.32 170.81,301.51 170.06,314.81 169.31,332.55 166.31,345.85 161.82,352.06 158.82,344.08 158.07,328.11 157.32,310.38 159.57,297.08 161.82,290.87" fill="rgb(24,36,54)" stroke="rgb(74,70,56)" stroke-width="1"/><polygon points="170.81,186.23 174.55,189.77 175.3,196.87 172.31,203.08 169.31,203.96 166.31,198.64 167.06,190.66" fill="rgb(24,36,54)" stroke="rgb(74,70,56)" stroke-width="1"/><polygon points="171.56,168.49 173.8,172.04 172.31,175.58 170.06,172.92" fill="rgb(24,36,54)" stroke="rgb(74,70,56)" stroke-width="1"/><polyline points="174.55,155.19 172.31,168.49 170.81,186.23" stroke-linejoin="round" fill="none" stroke="rgb(78,112,148)" stroke-width="2"/><polyline points="170.06,203.96 168.56,217.26 169.31,230.57 167.81,243.87 167.81,257.17 166.31,270.47 165.56,286.43" stroke-linejoin="round" fill="none" stroke="rgb(78,112,148)" stroke-width="2"/><polyline points="170.06,313.04 187.29,315.7 206.02,313.04 221,319.25" stroke-linejoin="round" fill="none" stroke="rgb(78,112,148)" stroke-width="2"/><polyline points="169.31,249.19 181.3,250.96 193.28,258.94 200.77,266.92 208.27,261.6" stroke-linejoin="round" fill="none" stroke="rgb(78,112,148)" stroke-width="2"/><polyline points="170.06,205.74 183.54,203.08 198.53,198.64 213.51,201.3" stroke-linejoin="round" fill="none" stroke="rgb(78,112,148)" stroke-width="2"/><polygon points="161.82,352.06 138.59,363.58 119.87,374.23 83.91,387.53 76.41,381.32 67.42,368.02 52.44,359.15 37.46,340.53 69.67,329 84.65,308.6 93.64,295.3 99.64,283.77 107.88,261.6 114.62,241.21 119.12,221.7 121.36,211.06 124.36,192.43 129.6,195.98 132.6,184.45 134.85,173.81 135.6,169.38 141.59,153.42 149.08,137.45 155.08,127.7 163.32,97.55 176.05,78.04 182.05,62.08 191.04,48.77 198.53,62.08 228.49,70.94 271.2,61.19 284.68,56.75 295.17,68.28 247.22,106.42 224.75,141.89 176.05,190.66 172.31,203.96 170.06,217.26 170.81,230.57 169.31,243.87 169.31,257.17 167.81,270.47 169.31,286.43 170.81,301.51 170.06,314.81 169.31,332.55 166.31,345.85" fill="rgb(255,244,170)" fill-opacity="0.063"/><polygon points="164.81,286.43 169.31,287.32 170.81,301.51 170.06,314.81 169.31,332.55 166.31,345.85 161.82,352.06 158.82,344.08 158.07,328.11 157.32,310.38 159.57,297.08 161.82,290.87" fill="rgb(24,36,54)" stroke="rgb(74,70,56)" stroke-width="1"/><polygon points="170.81,186.23 174.55,189.77 175.3,196.87 172.31,203.08 169.31,203.96 166.31,198.64 167.06,190.66" fill="rgb(24,36,54)" stroke="rgb(74,70,56)" stroke-width="1"/><polygon points="171.56,168.49 173.8,172.04 172.31,175.58 170.06,172.92" fill="rgb(24,36,54)" stroke="rgb(74,70,56)" stroke-width="1"/><polyline points="161.82,352.06 138.59,363.58" stroke-linejoin="round" fill="none" stroke="rgb(138,129,95)" stroke-width="3"/><polyline points="138.59,363.58 119.87,374.23 83.91,387.53 76.41,381.32 67.42,368.02" stroke-linejoin="round" fill="none" stroke="rgb(138,129,95)" stroke-width="3"/><polyline points="67.42,368.02 52.44,359.15 37.46,340.53" stroke-linejoin="round" fill="none" stroke="rgb(138,129,95)" stroke-width="3"/><polyline points="37.46,340.53 69.67,329 84.65,308.6 93.64,295.3 99.64,283.77 107.88,261.6 114.62,241.21 119.12,221.7 121.36,211.06 124.36,192.43 129.6,195.98 132.6,184.45 134.85,173.81 135.6,169.38 141.59,153.42 149.08,137.45 155.08,127.7 163.32,97.55 176.05,78.04 182.05,62.08 191.04,48.77" stroke-linejoin="round" fill="none" stroke="rgb(138,129,95)" stroke-width="3"/><polyline points="191.04,48.77 198.53,62.08" stroke-linejoin="round" fill="none" stroke="rgb(138,129,95)" stroke-width="3"/><polyline points="198.53,62.08 228.49,70.94 271.2,61.19" stroke-linejoin="round" fill="none" stroke="rgb(138,129,95)" stroke-width="3"/><polyline points="271.2,61.19 284.68,56.75 295.17,68.28" stroke-linejoin="round" fill="none" stroke="rgb(74,70,56)" stroke-width="1" stroke-dasharray="6,5"/><polyline points="271.2,61.19 284.68,56.75 295.17,68.28" fill="none" stroke-linejoin="round" stroke="rgb(255,244,170)" stroke-width="4" stroke-dasharray="29.78" stroke-dashoffset="29.78" stroke-opacity="0.949"><animate attributeName="stroke-dashoffset" values="29.78;0" dur="2.6s" begin="0s" fill="freeze" calcMode="spline" keyTimes="0;1" keySplines="0.42 0 0.58 1"/></polyline><polyline points="295.17,68.28 247.22,106.42" stroke-linejoin="round" fill="none" stroke="rgb(74,70,56)" stroke-width="1" stroke-dasharray="6,5"/><polyline points="247.22,106.42 224.75,141.89 176.05,190.66" stroke-linejoin="round" fill="none" stroke="rgb(74,70,56)" stroke-width="1" stroke-dasharray="6,5"/><polyline points="176.05,190.66 172.31,203.96 170.06,217.26 170.81,230.57 169.31,243.87 169.31,257.17 167.81,270.47 169.31,286.43 170.81,301.51 170.06,314.81 169.31,332.55 166.31,345.85 161.82,352.06" stroke-linejoin="round" fill="none" stroke="rgb(74,70,56)" stroke-width="1" stroke-dasharray="6,5"/><text x="63.68" y="186.23" font-size="14" text-anchor="middle" dominant-baseline="central" fill="rgb(110,132,158)" font-family="Georgia, 'Times New Roman', serif" font-style="italic">The Great Sea</text><text x="176.8" y="335.21" font-size="14" text-anchor="start" dominant-baseline="central" fill="rgb(110,132,158)" font-family="Georgia, 'Times New Roman', serif" font-style="italic">Salt Sea</text><text x="181.3" y="193.32" font-size="14" text-anchor="start" dominant-baseline="central" fill="rgb(110,132,158)" font-family="Georgia, 'Times New Roman', serif" font-style="italic">Chinnereth</text><text x="187.29" y="399.06" font-size="14" text-anchor="middle" dominant-baseline="central" fill="rgb(140,130,100)" font-family="Georgia, 'Times New Roman', serif">EDOM</text><text x="97.39" y="438.96" font-size="14" text-anchor="middle" dominant-baseline="central" fill="rgb(140,130,100)" font-family="Georgia, 'Times New Roman', serif" font-style="italic">wilderness of Zin</text><circle cx="224" cy="132.13" r="3" fill="none" stroke="rgb(74,70,56)" stroke-width="2"/><text x="232" y="132.13" font-size="14" text-anchor="start" dominant-baseline="central" fill="rgb(140,130,100)" font-family="Georgia, 'Times New Roman', serif" font-style="italic">Damascus</text><circle cx="144.59" cy="285.55" r="3" fill="none" stroke="rgb(74,70,56)" stroke-width="2"/><text x="136.59" y="285.55" font-size="14" text-anchor="end" dominant-baseline="central" fill="rgb(140,130,100)" font-family="Georgia, 'Times New Roman', serif" font-style="italic">Jerusalem</text><text x="8.99" y="394.62" font-size="14" text-anchor="start" dominant-baseline="central" fill="rgb(140,130,100)" font-family="Georgia, 'Times New Roman', serif" font-style="italic">Brook of Egypt</text><circle cx="138.59" cy="363.58" r="3" fill="none" stroke="rgb(138,129,95)" stroke-width="2"/><text x="152.59" y="371.58" font-size="14" text-anchor="start" dominant-baseline="central" fill="rgb(216,198,143)" font-family="Georgia, 'Times New Roman', serif">ascent of Akrabbim</text><circle cx="83.91" cy="387.53" r="3" fill="none" stroke="rgb(138,129,95)" stroke-width="2"/><text x="83.91" y="407.53" font-size="14" text-anchor="middle" dominant-baseline="text-before-edge" fill="rgb(216,198,143)" font-family="Georgia, 'Times New Roman', serif">Kadesh-barnea</text><circle cx="198.53" cy="62.08" r="3" fill="none" stroke="rgb(138,129,95)" stroke-width="2"/><text x="190.53" y="48.08" font-size="14" text-anchor="end" dominant-baseline="central" fill="rgb(216,198,143)" font-family="Georgia, 'Times New Roman', serif">Mount Hor ?</text><circle cx="228.49" cy="70.94" r="3" fill="none" stroke="rgb(138,129,95)" stroke-width="2"/><text x="220.49" y="78.94" font-size="14" text-anchor="end" dominant-baseline="central" fill="rgb(216,198,143)" font-family="Georgia, 'Times New Roman', serif">Lebo-hamath</text><circle cx="271.2" cy="61.19" r="3" fill="none" stroke="rgb(138,129,95)" stroke-width="2"/><text x="267.2" y="49.19" font-size="14" text-anchor="middle" dominant-baseline="text-after-edge" fill="rgb(216,198,143)" font-family="Georgia, 'Times New Roman', serif">Zedad</text><circle cx="284.68" cy="56.75" r="3" fill="none" stroke="rgb(255,244,170)" stroke-width="2"/><line x1="286.68" y1="53.75" x2="292.18" y2="35.75" stroke="rgb(74,70,56)" stroke-width="1"/><text x="294.68" y="28.75" font-size="14" text-anchor="middle" dominant-baseline="text-after-edge" fill="rgb(255,244,170)" font-family="Georgia, 'Times New Roman', serif" font-weight="bold">Ziphron ?</text><circle cx="295.17" cy="68.28" r="3" fill="none" stroke="rgb(255,244,170)" stroke-width="2"/><text x="295.17" y="77.28" font-size="14" text-anchor="middle" dominant-baseline="text-before-edge" fill="rgb(255,244,170)" font-family="Georgia, 'Times New Roman', serif" font-weight="bold">Hazar-enan ?</text><line x1="320" y1="430" x2="320" y2="408" stroke="rgb(140,130,100)" stroke-width="2"/><line x1="315" y1="416" x2="320" y2="408" stroke="rgb(140,130,100)" stroke-width="2"/><line x1="325" y1="416" x2="320" y2="408" stroke="rgb(140,130,100)" stroke-width="2"/><text x="310" y="410" font-size="14" text-anchor="end" dominant-baseline="central" fill="rgb(140,130,100)" font-family="Georgia, 'Times New Roman', serif">N</text><line x1="288.05" y1="454" x2="328" y2="454" stroke="rgb(140,130,100)" stroke-width="2"/><line x1="288.05" y1="451" x2="288.05" y2="457" stroke="rgb(140,130,100)" stroke-width="2"/><line x1="328" y1="451" x2="328" y2="457" stroke="rgb(140,130,100)" stroke-width="2"/><text x="308.03" y="448" font-size="14" text-anchor="middle" dominant-baseline="text-after-edge" fill="rgb(140,130,100)" font-family="Georgia, 'Times New Roman', serif" font-style="italic">50 km</text></g><rect x="50" y="85" width="345" height="471" fill="none" stroke="rgb(74,70,56)" stroke-width="1"/><text x="440" y="120" font-size="14" text-anchor="start" dominant-baseline="text-before-edge" fill="rgb(140,130,100)" font-family="Georgia, 'Times New Roman', serif" font-weight="bold">the ancient landmarks</text><text x="440" y="150" font-size="15" text-anchor="start" dominant-baseline="text-before-edge" fill="rgb(216,198,143)" font-family="Georgia, 'Times New Roman', serif">Ziphron and Hazar-enan:</text><text x="440" y="172" font-size="14" text-anchor="start" dominant-baseline="text-before-edge" fill="rgb(140,130,100)" font-family="Georgia, 'Times New Roman', serif" font-style="italic">east of the Anti-Lebanon,</text><text x="440" y="194" font-size="14" text-anchor="start" dominant-baseline="text-before-edge" fill="rgb(140,130,100)" font-family="Georgia, 'Times New Roman', serif" font-style="italic">uncertain</text></svg>