<svg xmlns="http://www.w3.org/2000/svg" viewBox="0 0 1024 576" width="1024" height="576" font-family="Georgia, 'Times New Roman', serif"><rect x="0" y="0" width="1024" height="576" fill="rgb(16,16,24)" /><polyline points="96,118 756,118" stroke-linejoin="round" stroke-linecap="round" fill="none" stroke="rgb(100,98,89)" stroke-width="3" /><polyline points="96,448 756,448" stroke-linejoin="round" stroke-linecap="round" fill="none" stroke="rgb(100,98,89)" stroke-width="3" /><polyline points="96,118 96,448" stroke-linejoin="round" stroke-linecap="round" fill="none" stroke="rgb(100,98,89)" stroke-width="3" /><polyline points="756,118 756,217" stroke-linejoin="round" stroke-linecap="round" fill="none" stroke="rgb(100,98,89)" stroke-width="3" /><polyline points="756,349 756,448" stroke-linejoin="round" stroke-linecap="round" fill="none" stroke="rgb(100,98,89)" stroke-width="3" /><polyline points="756,217 756,250" stroke-linejoin="round" stroke-linecap="round" fill="none" stroke="rgb(61,67,108)" stroke-width="5" /><polyline points="756,250 756,283" stroke-linejoin="round" stroke-linecap="round" fill="none" stroke="rgb(77,47,88)" stroke-width="5" /><polyline points="756,283 756,316" stroke-linejoin="round" stroke-linecap="round" fill="none" stroke="rgb(100,42,42)" stroke-width="5" /><polyline points="756,316 756,349" stroke-linejoin="round" stroke-linecap="round" fill="none" stroke="rgb(100,98,89)" stroke-width="5" /><ellipse cx="96" cy="118" rx="2.6" ry="2.6" fill="rgb(74,70,56)" /><ellipse cx="129" cy="118" rx="2.6" ry="2.6" fill="rgb(74,70,56)" /><ellipse cx="162" cy="118" rx="2.6" ry="2.6" fill="rgb(74,70,56)" /><ellipse cx="195" cy="118" rx="2.6" ry="2.6" fill="rgb(74,70,56)" /><ellipse cx="228" cy="118" rx="2.6" ry="2.6" fill="rgb(74,70,56)" /><ellipse cx="261" cy="118" rx="2.6" ry="2.6" fill="rgb(74,70,56)" /><ellipse cx="294" cy="118" rx="2.6" ry="2.6" fill="rgb(74,70,56)" /><ellipse cx="327" cy="118" rx="2.6" ry="2.6" fill="rgb(74,70,56)" /><ellipse cx="360" cy="118" rx="2.6" ry="2.6" fill="rgb(74,70,56)" /><ellipse cx="393" cy="118" rx="2.6" ry="2.6" fill="rgb(74,70,56)" /><ellipse cx="426" cy="118" rx="2.6" ry="2.6" fill="rgb(74,70,56)" /><ellipse cx="459" cy="118" rx="2.6" ry="2.6" fill="rgb(74,70,56)" /><ellipse cx="492" cy="118" rx="2.6" ry="2.6" fill="rgb(74,70,56)" /><ellipse cx="525" cy="118" rx="2.6" ry="2.6" fill="rgb(74,70,56)" /><ellipse cx="558" cy="118" rx="2.6" ry="2.6" fill="rgb(74,70,56)" /><ellipse cx="591" cy="118" rx="2.6" ry="2.6" fill="rgb(74,70,56)" /><ellipse cx="624" cy="118" rx="2.6" ry="2.6" fill="rgb(74,70,56)" /><ellipse cx="657" cy="118" rx="2.6" ry="2.6" fill="rgb(74,70,56)" /><ellipse cx="690" cy="118" rx="2.6" ry="2.6" fill="rgb(74,70,56)" /><ellipse cx="723" cy="118" rx="2.6" ry="2.6" fill="rgb(74,70,56)" /><ellipse cx="756" cy="118" rx="2.6" ry="2.6" fill="rgb(74,70,56)" /><ellipse cx="96" cy="448" rx="2.6" ry="2.6" fill="rgb(74,70,56)" /><ellipse cx="129" cy="448" rx="2.6" ry="2.6" fill="rgb(74,70,56)" /><ellipse cx="162" cy="448" rx="2.6" ry="2.6" fill="rgb(74,70,56)" /><ellipse cx="195" cy="448" rx="2.6" ry="2.6" fill="rgb(74,70,56)" /><ellipse cx="228" cy="448" rx="2.6" ry="2.6" fill="rgb(74,70,56)" /><ellipse cx="261" cy="448" rx="2.6" ry="2.6" fill="rgb(74,70,56)" /><ellipse cx="294" cy="448" rx="2.6" ry="2.6" fill="rgb(74,70,56)" /><ellipse cx="327" cy="448" rx="2.6" ry="2.6" fill="rgb(74,70,56)" /><ellipse cx="360" cy="448" rx="2.6" ry="2.6" fill="rgb(74,70,56)" /><ellipse cx="393" cy="448" rx="2.6" ry="2.6" fill="rgb(74,70,56)" /><ellipse cx="426" cy="448" rx="2.6" ry="2.6" fill="rgb(74,70,56)" /><ellipse cx="459" cy="448" rx="2.6" ry="2.6" fill="rgb(74,70,56)" /><ellipse cx="492" cy="448" rx="2.6" ry="2.6" fill="rgb(74,70,56)" /><ellipse cx="525" cy="448" rx="2.6" ry="2.6" fill="rgb(74,70,56)" /><ellipse cx="558" cy="448" rx="2.6" ry="2.6" fill="rgb(74,70,56)" /><ellipse cx="591" cy="448" rx="2.6" ry="2.6" fill="rgb(74,70,56)" /><ellipse cx="624" cy="448" rx="2.6" ry="2.6" fill="rgb(74,70,56)" /><ellipse cx="657" cy="448" rx="2.6" ry="2.6" fill="rgb(74,70,56)" /><ellipse cx="690" cy="448" rx="2.6" ry="2.6" fill="rgb(74,70,56)" /><ellipse cx="723" cy="448" rx="2.6" ry="2.6" fill="rgb(74,70,56)" /><ellipse cx="756" cy="448" rx="2.6" ry="2.6" fill="rgb(74,70,56)" /><ellipse cx="96" cy="151" rx="2.6" ry="2.6" fill="rgb(74,70,56)" /><ellipse cx="96" cy="184" rx="2.6" ry="2.6" fill="rgb(74,70,56)" /><ellipse cx="96" cy="217" rx="2.6" ry="2.6" fill="rgb(74,70,56)" /><ellipse cx="96" cy="250" rx="2.6" ry="2.6" fill="rgb(74,70,56)" /><ellipse cx="96" cy="283" rx="2.6" ry="2.6" fill="rgb(74,70,56)" /><ellipse cx="96" cy="316" rx="2.6" ry="2.6" fill="rgb(74,70,56)" /><ellipse cx="96" cy="349" rx="2.6" ry="2.6" fill="rgb(74,70,56)" /><ellipse cx="96" cy="382" rx="2.6" ry="2.6" fill="rgb(74,70,56)" /><ellipse cx="96" cy="415" rx="2.6" ry="2.6" fill="rgb(74,70,56)" /><ellipse cx="756" cy="151" rx="2.6" ry="2.6" fill="rgb(74,70,56)" /><ellipse cx="756" cy="184" rx="2.6" ry="2.6" fill="rgb(74,70,56)" /><ellipse cx="756" cy="217" rx="2.6" ry="2.6" fill="rgb(74,70,56)" /><ellipse cx="756" cy="250" rx="2.6" ry="2.6" fill="rgb(74,70,56)" /><ellipse cx="756" cy="294.02" rx="2.6" ry="2.6" fill="rgb(74,70,56)" /><ellipse cx="756" cy="337.98" rx="2.6" ry="2.6" fill="rgb(74,70,56)" /><ellipse cx="756" cy="349" rx="2.6" ry="2.6" fill="rgb(74,70,56)" /><ellipse cx="756" cy="382" rx="2.6" ry="2.6" fill="rgb(74,70,56)" /><ellipse cx="756" cy="415" rx="2.6" ry="2.6" fill="rgb(74,70,56)" /><rect x="162" y="250" width="198" height="66" fill="none" stroke="rgb(74,70,56)" stroke-width="3" /><polyline points="228,250 228,316" stroke-linejoin="round" stroke-linecap="round" fill="none" stroke="rgb(74,70,56)" stroke-width="2" /><rect x="186.75" y="278.05" width="16.5" height="9.9" fill="none" stroke="rgb(140,130,100)" stroke-width="2" /><rect x="241.2" y="279.7" width="6.6" height="6.6" fill="none" stroke="rgb(74,70,56)" stroke-width="1" /><rect x="287.4" y="257.92" width="13.2" height="6.6" fill="none" stroke="rgb(74,70,56)" stroke-width="1" /><ellipse cx="294" cy="302.8" rx="4" ry="4" fill="none" stroke="rgb(74,70,56)" stroke-width="2" /><ellipse cx="426" cy="283" rx="6" ry="6" fill="none" stroke="rgb(74,70,56)" stroke-width="2" /><rect x="508.5" y="266.5" width="33" height="33" fill="none" stroke="rgb(104,69,31)" stroke-width="3" /><text x="261" y="233.5" font-size="14" text-anchor="middle" dominant-baseline="central" fill="rgb(140,130,100)" font-family="Georgia, 'Times New Roman', serif" font-style="italic">TENT OF MEETING</text><text x="195" y="323.92" font-size="14" text-anchor="middle" dominant-baseline="text-before-edge" fill="rgb(140,130,100)" font-family="Georgia, 'Times New Roman', serif" font-style="italic">Most Holy</text><text x="525" y="319.3" font-size="14" text-anchor="middle" dominant-baseline="text-before-edge" fill="rgb(140,130,100)" font-family="Georgia, 'Times New Roman', serif" font-style="italic">Bronze Altar</text><text x="426" y="306.1" font-size="14" text-anchor="middle" dominant-baseline="text-before-edge" fill="rgb(140,130,100)" font-family="Georgia, 'Times New Roman', serif" font-style="italic">Laver</text><text x="782.4" y="283" font-size="14" text-anchor="start" dominant-baseline="central" fill="rgb(140,130,100)" font-family="Georgia, 'Times New Roman', serif" font-style="italic">GATE</text><text x="426" y="471.1" font-size="14" text-anchor="middle" dominant-baseline="text-before-edge" fill="rgb(140,130,100)" font-family="Georgia, 'Times New Roman', serif" font-style="italic">COURTYARD  —  100 × 50 cubits</text><polyline points="940,56 940,26" stroke-linejoin="round" stroke-linecap="round" fill="none" stroke="rgb(74,70,56)" stroke-width="2" /><polyline points="936,33 940,26 944,33" stroke-linejoin="round" stroke-linecap="round" fill="none" stroke="rgb(74,70,56)" stroke-width="2" /><polyline points="940,56 970,56" stroke-linejoin="round" stroke-linecap="round" fill="none" stroke="rgb(74,70,56)" stroke-width="2" /><polyline points="963,52 970,56 963,60" stroke-linejoin="round" stroke-linecap="round" fill="none" stroke="rgb(74,70,56)" stroke-width="2" /><text x="940" y="16" font-size="15" text-anchor="middle" dominant-baseline="central" fill="rgb(140,130,100)" font-family="Georgia, 'Times New Roman', serif">N</text><text x="980" y="56" font-size="15" text-anchor="start" dominant-baseline="central" fill="rgb(140,130,100)" font-family="Georgia, 'Times New Roman', serif">E</text><text x="28" y="20" font-size="24" text-anchor="start" dominant-baseline="text-before-edge" fill="rgb(216,198,143)" font-family="Georgia, 'Times New Roman', serif" font-weight="bold">The Tabernacle — Exodus 27</text><text x="28" y="52" font-size="18" text-anchor="start" dominant-baseline="text-before-edge" fill="rgb(255,212,94)" font-family="Georgia, 'Times New Roman', serif" font-style="italic">verse 6 — poles of acacia, overlaid with bronze</text><text x="28" y="550" font-size="14" text-anchor="start" dominant-baseline="text-before-edge" fill="rgb(140,130,100)" font-family="Georgia, 'Times New Roman', serif" font-style="italic">1 cubit ≈ 18 in / 45 cm</text><rect x="636" y="112" width="356" height="380" rx="10" fill="rgb(26,26,38)" stroke="rgb(74,70,56)" stroke-width="2" /><text x="814" y="134" font-size="15" text-anchor="middle" dominant-baseline="central" fill="rgb(216,198,143)" font-family="Georgia, 'Times New Roman', serif">THE BRONZE ALTAR</text><text x="814" y="156" font-size="14" text-anchor="middle" dominant-baseline="central" fill="rgb(140,130,100)" font-family="Georgia, 'Times New Roman', serif" font-style="italic">acacia wood overlaid with bronze</text><rect x="684" y="204" width="260" height="156" fill="none" stroke="rgb(208,138,62)" stroke-width="3" /><polygon points="678,204 700,204 689,182" fill="none" stroke="rgb(208,138,62)" stroke-width="2" /><polygon points="928,204 950,204 939,182" fill="none" stroke="rgb(208,138,62)" stroke-width="2" /><polyline points="670,282 958,282" stroke-linejoin="round" stroke-linecap="round" fill="none" stroke="rgb(138,129,95)" stroke-width="2" /><polyline points="684,282 762,360" stroke-linejoin="round" stroke-linecap="round" fill="none" stroke="rgb(74,70,56)" stroke-width="1" /><polyline points="684,360 762,282" stroke-linejoin="round" stroke-linecap="round" fill="none" stroke="rgb(74,70,56)" stroke-width="1" /><polyline points="697,282 775,360" stroke-linejoin="round" stroke-linecap="round" fill="none" stroke="rgb(74,70,56)" stroke-width="1" /><polyline points="697,360 775,282" stroke-linejoin="round" stroke-linecap="round" fill="none" stroke="rgb(74,70,56)" stroke-width="1" /><polyline points="710,282 788,360" stroke-linejoin="round" stroke-linecap="round" fill="none" stroke="rgb(74,70,56)" stroke-width="1" /><polyline points="710,360 788,282" stroke-linejoin="round" stroke-linecap="round" fill="none" stroke="rgb(74,70,56)" stroke-width="1" /><polyline points="723,282 801,360" stroke-linejoin="round" stroke-linecap="round" fill="none" stroke="rgb(74,70,56)" stroke-width="1" /><polyline points="723,360 801,282" stroke-linejoin="round" stroke-linecap="round" fill="none" stroke="rgb(74,70,56)" stroke-width="1" /><polyline points="736,282 814,360" stroke-linejoin="round" stroke-linecap="round" fill="none" stroke="rgb(74,70,56)" stroke-width="1" /><polyline points="736,360 814,282" stroke-linejoin="round" stroke-linecap="round" fill="none" stroke="rgb(74,70,56)" stroke-width="1" /><polyline points="749,282 827,360" stroke-linejoin="round" stroke-linecap="round" fill="none" stroke="rgb(74,70,56)" stroke-width="1" /><polyline points="749,360 827,282" stroke-linejoin="round" stroke-linecap="round" fill="none" stroke="rgb(74,70,56)" stroke-width="1" /><polyline points="762,282 840,360" stroke-linejoin="round" stroke-linecap="round" fill="none" stroke="rgb(74,70,56)" stroke-width="1" /><polyline points="762,360 840,282" stroke-linejoin="round" stroke-linecap="round" fill="none" stroke="rgb(74,70,56)" stroke-width="1" /><polyline points="775,282 853,360" stroke-linejoin="round" stroke-linecap="round" fill="none" stroke="rgb(74,70,56)" stroke-width="1" /><polyline points="775,360 853,282" stroke-linejoin="round" stroke-linecap="round" fill="none" stroke="rgb(74,70,56)" stroke-width="1" /><polyline points="788,282 866,360" stroke-linejoin="round" stroke-linecap="round" fill="none" stroke="rgb(74,70,56)" stroke-width="1" /><polyline points="788,360 866,282" stroke-linejoin="round" stroke-linecap="round" fill="none" stroke="rgb(74,70,56)" stroke-width="1" /><polyline points="801,282 879,360" stroke-linejoin="round" stroke-linecap="round" fill="none" stroke="rgb(74,70,56)" stroke-width="1" /><polyline points="801,360 879,282" stroke-linejoin="round" stroke-linecap="round" fill="none" stroke="rgb(74,70,56)" stroke-width="1" /><polyline points="814,282 892,360" stroke-linejoin="round" stroke-linecap="round" fill="none" stroke="rgb(74,70,56)" stroke-width="1" /><polyline points="814,360 892,282" stroke-linejoin="round" stroke-linecap="round" fill="none" stroke="rgb(74,70,56)" stroke-width="1" /><polyline points="827,282 905,360" stroke-linejoin="round" stroke-linecap="round" fill="none" stroke="rgb(74,70,56)" stroke-width="1" /><polyline points="827,360 905,282" stroke-linejoin="round" stroke-linecap="round" fill="none" stroke="rgb(74,70,56)" stroke-width="1" /><polyline points="840,282 918,360" stroke-linejoin="round" stroke-linecap="round" fill="none" stroke="rgb(74,70,56)" stroke-width="1" /><polyline points="840,360 918,282" stroke-linejoin="round" stroke-linecap="round" fill="none" stroke="rgb(74,70,56)" stroke-width="1" /><polyline points="853,282 931,360" stroke-linejoin="round" stroke-linecap="round" fill="none" stroke="rgb(74,70,56)" stroke-width="1" /><polyline points="853,360 931,282" stroke-linejoin="round" stroke-linecap="round" fill="none" stroke="rgb(74,70,56)" stroke-width="1" /><polyline points="866,282 944,360" stroke-linejoin="round" stroke-linecap="round" fill="none" stroke="rgb(74,70,56)" stroke-width="1" /><polyline points="866,360 944,282" stroke-linejoin="round" stroke-linecap="round" fill="none" stroke="rgb(74,70,56)" stroke-width="1" /><polyline points="879,282 944,347" stroke-linejoin="round" stroke-linecap="round" fill="none" stroke="rgb(74,70,56)" stroke-width="1" /><polyline points="879,360 944,295" stroke-linejoin="round" stroke-linecap="round" fill="none" stroke="rgb(74,70,56)" stroke-width="1" /><polyline points="892,282 944,334" stroke-linejoin="round" stroke-linecap="round" fill="none" stroke="rgb(74,70,56)" stroke-width="1" /><polyline points="892,360 944,308" stroke-linejoin="round" stroke-linecap="round" fill="none" stroke="rgb(74,70,56)" stroke-width="1" /><polyline points="905,282 944,321" stroke-linejoin="round" stroke-linecap="round" fill="none" stroke="rgb(74,70,56)" stroke-width="1" /><polyline points="905,360 944,321" stroke-linejoin="round" stroke-linecap="round" fill="none" stroke="rgb(74,70,56)" stroke-width="1" /><polyline points="918,282 944,308" stroke-linejoin="round" stroke-linecap="round" fill="none" stroke="rgb(74,70,56)" stroke-width="1" /><polyline points="918,360 944,334" stroke-linejoin="round" stroke-linecap="round" fill="none" stroke="rgb(74,70,56)" stroke-width="1" /><polyline points="931,282 944,295" stroke-linejoin="round" stroke-linecap="round" fill="none" stroke="rgb(74,70,56)" stroke-width="1" /><polyline points="931,360 944,347" stroke-linejoin="round" stroke-linecap="round" fill="none" stroke="rgb(74,70,56)" stroke-width="1" /><polyline points="638,274 678,274" stroke-linejoin="round" stroke-linecap="round" fill="none" stroke="rgb(138,129,95)" stroke-width="4" /><polyline points="950,274 990,274" stroke-linejoin="round" stroke-linecap="round" fill="none" stroke="rgb(138,129,95)" stroke-width="4" /><ellipse cx="678" cy="274" rx="6" ry="6" fill="none" stroke="rgb(208,138,62)" stroke-width="2" /><ellipse cx="950" cy="274" rx="6" ry="6" fill="none" stroke="rgb(208,138,62)" stroke-width="2" /><text x="814" y="460" font-size="14" text-anchor="middle" dominant-baseline="central" fill="rgb(140,130,100)" font-family="Georgia, 'Times New Roman', serif" font-style="italic">5 × 5 cubits square, 3 cubits high</text><g opacity="0.62"><polyline points="638,274 678,274" stroke-linejoin="round" stroke-linecap="round" fill="none" stroke="rgb(255,244,170)" stroke-width="6" /><polyline points="950,274 990,274" stroke-linejoin="round" stroke-linecap="round" fill="none" stroke="rgb(255,244,170)" stroke-width="6" /><text x="814" y="436" font-size="14" text-anchor="middle" dominant-baseline="central" fill="rgb(255,244,170)" font-family="Georgia, 'Times New Roman', serif" font-weight="bold">poles of acacia wood, overlaid with bronze</text><rect x="508.5" y="266.5" width="33" height="33" fill="none" stroke="rgb(255,244,170)" stroke-width="5" /></g></svg>