<svg xmlns="http://www.w3.org/2000/svg" viewBox="0 0 1024 576" width="1024" height="576" font-family="Georgia, 'Times New Roman', serif"><rect x="0" y="0" width="1024" height="576" fill="rgb(16,16,24)" /><polyline points="96,118 756,118" stroke-linejoin="round" stroke-linecap="round" fill="none" stroke="rgb(200,196,178)" stroke-width="3" /><polyline points="96,448 756,448" stroke-linejoin="round" stroke-linecap="round" fill="none" stroke="rgb(200,196,178)" stroke-width="3" /><polyline points="96,118 96,448" stroke-linejoin="round" stroke-linecap="round" fill="none" stroke="rgb(200,196,178)" stroke-width="3" /><polyline points="756,118 756,217" stroke-linejoin="round" stroke-linecap="round" fill="none" stroke="rgb(200,196,178)" stroke-width="3" /><polyline points="756,349 756,448" stroke-linejoin="round" stroke-linecap="round" fill="none" stroke="rgb(200,196,178)" stroke-width="3" /><polyline points="756,217 756,250" stroke-linejoin="round" stroke-linecap="round" fill="none" stroke="rgb(122,134,216)" stroke-width="5" /><polyline points="756,250 756,283" stroke-linejoin="round" stroke-linecap="round" fill="none" stroke="rgb(154,95,176)" stroke-width="5" /><polyline points="756,283 756,316" stroke-linejoin="round" stroke-linecap="round" fill="none" stroke="rgb(200,85,85)" stroke-width="5" /><polyline points="756,316 756,349" stroke-linejoin="round" stroke-linecap="round" fill="none" stroke="rgb(200,196,178)" stroke-width="5" /><ellipse cx="96" cy="118" rx="2.6" ry="2.6" fill="rgb(138,129,95)" /><ellipse cx="129" cy="118" rx="2.6" ry="2.6" fill="rgb(138,129,95)" /><ellipse cx="162" cy="118" rx="2.6" ry="2.6" fill="rgb(138,129,95)" /><ellipse cx="195" cy="118" rx="2.6" ry="2.6" fill="rgb(138,129,95)" /><ellipse cx="228" cy="118" rx="2.6" ry="2.6" fill="rgb(138,129,95)" /><ellipse cx="261" cy="118" rx="2.6" ry="2.6" fill="rgb(138,129,95)" /><ellipse cx="294" cy="118" rx="2.6" ry="2.6" fill="rgb(138,129,95)" /><ellipse cx="327" cy="118" rx="2.6" ry="2.6" fill="rgb(138,129,95)" /><ellipse cx="360" cy="118" rx="2.6" ry="2.6" fill="rgb(138,129,95)" /><ellipse cx="393" cy="118" rx="2.6" ry="2.6" fill="rgb(138,129,95)" /><ellipse cx="426" cy="118" rx="2.6" ry="2.6" fill="rgb(138,129,95)" /><ellipse cx="459" cy="118" rx="2.6" ry="2.6" fill="rgb(138,129,95)" /><ellipse cx="492" cy="118" rx="2.6" ry="2.6" fill="rgb(138,129,95)" /><ellipse cx="525" cy="118" rx="2.6" ry="2.6" fill="rgb(138,129,95)" /><ellipse cx="558" cy="118" rx="2.6" ry="2.6" fill="rgb(138,129,95)" /><ellipse cx="591" cy="118" rx="2.6" ry="2.6" fill="rgb(138,129,95)" /><ellipse cx="624" cy="118" rx="2.6" ry="2.6" fill="rgb(138,129,95)" /><ellipse cx="657" cy="118" rx="2.6" ry="2.6" fill="rgb(138,129,95)" /><ellipse cx="690" cy="118" rx="2.6" ry="2.6" fill="rgb(138,129,95)" /><ellipse cx="723" cy="118" rx="2.6" ry="2.6" fill="rgb(138,129,95)" /><ellipse cx="756" cy="118" rx="2.6" ry="2.6" fill="rgb(138,129,95)" /><ellipse cx="96" cy="448" rx="2.6" ry="2.6" fill="rgb(138,129,95)" /><ellipse cx="129" cy="448" rx="2.6" ry="2.6" fill="rgb(138,129,95)" /><ellipse cx="162" cy="448" rx="2.6" ry="2.6" fill="rgb(138,129,95)" /><ellipse cx="195" cy="448" rx="2.6" ry="2.6" fill="rgb(138,129,95)" /><ellipse cx="228" cy="448" rx="2.6" ry="2.6" fill="rgb(138,129,95)" /><ellipse cx="261" cy="448" rx="2.6" ry="2.6" fill="rgb(138,129,95)" /><ellipse cx="294" cy="448" rx="2.6" ry="2.6" fill="rgb(138,129,95)" /><ellipse cx="327" cy="448" rx="2.6" ry="2.6" fill="rgb(138,129,95)" /><ellipse cx="360" cy="448" rx="2.6" ry="2.6" fill="rgb(138,129,95)" /><ellipse cx="393" cy="448" rx="2.6" ry="2.6" fill="rgb(138,129,95)" /><ellipse cx="426" cy="448" rx="2.6" ry="2.6" fill="rgb(138,129,95)" /><ellipse cx="459" cy="448" rx="2.6" ry="2.6" fill="rgb(138,129,95)" /><ellipse cx="492" cy="448" rx="2.6" ry="2.6" fill="rgb(138,129,95)" /><ellipse cx="525" cy="448" rx="2.6" ry="2.6" fill="rgb(138,129,95)" /><ellipse cx="558" cy="448" rx="2.6" ry="2.6" fill="rgb(138,129,95)" /><ellipse cx="591" cy="448" rx="2.6" ry="2.6" fill="rgb(138,129,95)" /><ellipse cx="624" cy="448" rx="2.6" ry="2.6" fill="rgb(138,129,95)" /><ellipse cx="657" cy="448" rx="2.6" ry="2.6" fill="rgb(138,129,95)" /><ellipse cx="690" cy="448" rx="2.6" ry="2.6" fill="rgb(138,129,95)" /><ellipse cx="723" cy="448" rx="2.6" ry="2.6" fill="rgb(138,129,95)" /><ellipse cx="756" cy="448" rx="2.6" ry="2.6" fill="rgb(138,129,95)" /><ellipse cx="96" cy="151" rx="2.6" ry="2.6" fill="rgb(138,129,95)" /><ellipse cx="96" cy="184" rx="2.6" ry="2.6" fill="rgb(138,129,95)" /><ellipse cx="96" cy="217" rx="2.6" ry="2.6" fill="rgb(138,129,95)" /><ellipse cx="96" cy="250" rx="2.6" ry="2.6" fill="rgb(138,129,95)" /><ellipse cx="96" cy="283" rx="2.6" ry="2.6" fill="rgb(138,129,95)" /><ellipse cx="96" cy="316" rx="2.6" ry="2.6" fill="rgb(138,129,95)" /><ellipse cx="96" cy="349" rx="2.6" ry="2.6" fill="rgb(138,129,95)" /><ellipse cx="96" cy="382" rx="2.6" ry="2.6" fill="rgb(138,129,95)" /><ellipse cx="96" cy="415" rx="2.6" ry="2.6" fill="rgb(138,129,95)" /><ellipse cx="756" cy="151" rx="2.6" ry="2.6" fill="rgb(138,129,95)" /><ellipse cx="756" cy="184" rx="2.6" ry="2.6" fill="rgb(138,129,95)" /><ellipse cx="756" cy="217" rx="2.6" ry="2.6" fill="rgb(138,129,95)" /><ellipse cx="756" cy="250" rx="2.6" ry="2.6" fill="rgb(138,129,95)" /><ellipse cx="756" cy="294.02" rx="2.6" ry="2.6" fill="rgb(138,129,95)" /><ellipse cx="756" cy="337.98" rx="2.6" ry="2.6" fill="rgb(138,129,95)" /><ellipse cx="756" cy="349" rx="2.6" ry="2.6" fill="rgb(138,129,95)" /><ellipse cx="756" cy="382" rx="2.6" ry="2.6" fill="rgb(138,129,95)" /><ellipse cx="756" cy="415" rx="2.6" ry="2.6" fill="rgb(138,129,95)" /><rect x="162" y="250" width="198" height="66" fill="none" stroke="rgb(138,129,95)" stroke-width="3" /><polyline points="228,250 228,316" stroke-linejoin="round" stroke-linecap="round" fill="none" stroke="rgb(138,129,95)" stroke-width="2" /><rect x="186.75" y="278.05" width="16.5" height="9.9" fill="none" stroke="rgb(216,198,143)" stroke-width="2" /><rect x="241.2" y="279.7" width="6.6" height="6.6" fill="none" stroke="rgb(138,129,95)" stroke-width="1" /><rect x="287.4" y="257.92" width="13.2" height="6.6" fill="none" stroke="rgb(138,129,95)" stroke-width="1" /><ellipse cx="294" cy="302.8" rx="4" ry="4" fill="none" stroke="rgb(138,129,95)" stroke-width="2" /><ellipse cx="426" cy="283" rx="6" ry="6" fill="none" stroke="rgb(138,129,95)" stroke-width="2" /><rect x="508.5" y="266.5" width="33" height="33" fill="none" stroke="rgb(208,138,62)" stroke-width="3" /><text x="261" y="233.5" font-size="14" text-anchor="middle" dominant-baseline="central" fill="rgb(216,198,143)" font-family="Georgia, 'Times New Roman', serif" font-style="italic">TENT OF MEETING</text><text x="195" y="323.92" font-size="14" text-anchor="middle" dominant-baseline="text-before-edge" fill="rgb(216,198,143)" font-family="Georgia, 'Times New Roman', serif" font-style="italic">Most Holy</text><text x="525" y="319.3" font-size="14" text-anchor="middle" dominant-baseline="text-before-edge" fill="rgb(216,198,143)" font-family="Georgia, 'Times New Roman', serif" font-style="italic">Bronze Altar</text><text x="426" y="306.1" font-size="14" text-anchor="middle" dominant-baseline="text-before-edge" fill="rgb(216,198,143)" font-family="Georgia, 'Times New Roman', serif" font-style="italic">Laver</text><text x="782.4" y="283" font-size="14" text-anchor="start" dominant-baseline="central" fill="rgb(216,198,143)" font-family="Georgia, 'Times New Roman', serif" font-style="italic">GATE</text><text x="426" y="471.1" font-size="14" text-anchor="middle" dominant-baseline="text-before-edge" fill="rgb(216,198,143)" font-family="Georgia, 'Times New Roman', serif" font-style="italic">COURTYARD  —  100 × 50 cubits</text><polyline points="940,56 940,26" stroke-linejoin="round" stroke-linecap="round" fill="none" stroke="rgb(138,129,95)" stroke-width="2" /><polyline points="936,33 940,26 944,33" stroke-linejoin="round" stroke-linecap="round" fill="none" stroke="rgb(138,129,95)" stroke-width="2" /><polyline points="940,56 970,56" stroke-linejoin="round" stroke-linecap="round" fill="none" stroke="rgb(138,129,95)" stroke-width="2" /><polyline points="963,52 970,56 963,60" stroke-linejoin="round" stroke-linecap="round" fill="none" stroke="rgb(138,129,95)" stroke-width="2" /><text x="940" y="16" font-size="15" text-anchor="middle" dominant-baseline="central" fill="rgb(216,198,143)" font-family="Georgia, 'Times New Roman', serif">N</text><text x="980" y="56" font-size="15" text-anchor="start" dominant-baseline="central" fill="rgb(216,198,143)" font-family="Georgia, 'Times New Roman', serif">E</text><text x="28" y="20" font-size="24" text-anchor="start" dominant-baseline="text-before-edge" fill="rgb(216,198,143)" font-family="Georgia, 'Times New Roman', serif" font-weight="bold">The Tabernacle — Exodus 27</text><text x="28" y="52" font-size="18" text-anchor="start" dominant-baseline="text-before-edge" fill="rgb(255,212,94)" font-family="Georgia, 'Times New Roman', serif" font-style="italic">verse 19 — all the pegs of the court — bronze</text><text x="28" y="550" font-size="14" text-anchor="start" dominant-baseline="text-before-edge" fill="rgb(140,130,100)" font-family="Georgia, 'Times New Roman', serif" font-style="italic">1 cubit ≈ 18 in / 45 cm</text><text x="426" y="408.4" font-size="14" text-anchor="middle" dominant-baseline="central" fill="rgb(255,244,170)" font-family="Georgia, 'Times New Roman', serif" font-weight="bold">bronze tent pegs</text><g opacity="0.62"><polyline points="106.2,104.44 112.2,110.44" stroke-linejoin="round" stroke-linecap="round" fill="none" stroke="rgb(255,244,170)" stroke-width="2" /><polyline points="106.2,110.44 112.2,104.44" stroke-linejoin="round" stroke-linecap="round" fill="none" stroke="rgb(255,244,170)" stroke-width="2" /><polyline points="152.4,104.44 158.4,110.44" stroke-linejoin="round" stroke-linecap="round" fill="none" stroke="rgb(255,244,170)" stroke-width="2" /><polyline points="152.4,110.44 158.4,104.44" stroke-linejoin="round" stroke-linecap="round" fill="none" stroke="rgb(255,244,170)" stroke-width="2" /><polyline points="198.6,104.44 204.6,110.44" stroke-linejoin="round" stroke-linecap="round" fill="none" stroke="rgb(255,244,170)" stroke-width="2" /><polyline points="198.6,110.44 204.6,104.44" stroke-linejoin="round" stroke-linecap="round" fill="none" stroke="rgb(255,244,170)" stroke-width="2" /><polyline points="244.8,104.44 250.8,110.44" stroke-linejoin="round" stroke-linecap="round" fill="none" stroke="rgb(255,244,170)" stroke-width="2" /><polyline points="244.8,110.44 250.8,104.44" stroke-linejoin="round" stroke-linecap="round" fill="none" stroke="rgb(255,244,170)" stroke-width="2" /><polyline points="291,104.44 297,110.44" stroke-linejoin="round" stroke-linecap="round" fill="none" stroke="rgb(255,244,170)" stroke-width="2" /><polyline points="291,110.44 297,104.44" stroke-linejoin="round" stroke-linecap="round" fill="none" stroke="rgb(255,244,170)" stroke-width="2" /><polyline points="337.2,104.44 343.2,110.44" stroke-linejoin="round" stroke-linecap="round" fill="none" stroke="rgb(255,244,170)" stroke-width="2" /><polyline points="337.2,110.44 343.2,104.44" stroke-linejoin="round" stroke-linecap="round" fill="none" stroke="rgb(255,244,170)" stroke-width="2" /><polyline points="383.4,104.44 389.4,110.44" stroke-linejoin="round" stroke-linecap="round" fill="none" stroke="rgb(255,244,170)" stroke-width="2" /><polyline points="383.4,110.44 389.4,104.44" stroke-linejoin="round" stroke-linecap="round" fill="none" stroke="rgb(255,244,170)" stroke-width="2" /><polyline points="429.6,104.44 435.6,110.44" stroke-linejoin="round" stroke-linecap="round" fill="none" stroke="rgb(255,244,170)" stroke-width="2" /><polyline points="429.6,110.44 435.6,104.44" stroke-linejoin="round" stroke-linecap="round" fill="none" stroke="rgb(255,244,170)" stroke-width="2" /><polyline points="475.8,104.44 481.8,110.44" stroke-linejoin="round" stroke-linecap="round" fill="none" stroke="rgb(255,244,170)" stroke-width="2" /><polyline points="475.8,110.44 481.8,104.44" stroke-linejoin="round" stroke-linecap="round" fill="none" stroke="rgb(255,244,170)" stroke-width="2" /><polyline points="522,104.44 528,110.44" stroke-linejoin="round" stroke-linecap="round" fill="none" stroke="rgb(255,244,170)" stroke-width="2" /><polyline points="522,110.44 528,104.44" stroke-linejoin="round" stroke-linecap="round" fill="none" stroke="rgb(255,244,170)" stroke-width="2" /><polyline points="568.2,104.44 574.2,110.44" stroke-linejoin="round" stroke-linecap="round" fill="none" stroke="rgb(255,244,170)" stroke-width="2" /><polyline points="568.2,110.44 574.2,104.44" stroke-linejoin="round" stroke-linecap="round" fill="none" stroke="rgb(255,244,170)" stroke-width="2" /><polyline points="614.4,104.44 620.4,110.44" stroke-linejoin="round" stroke-linecap="round" fill="none" stroke="rgb(255,244,170)" stroke-width="2" /><polyline points="614.4,110.44 620.4,104.44" stroke-linejoin="round" stroke-linecap="round" fill="none" stroke="rgb(255,244,170)" stroke-width="2" /><polyline points="660.6,104.44 666.6,110.44" stroke-linejoin="round" stroke-linecap="round" fill="none" stroke="rgb(255,244,170)" stroke-width="2" /><polyline points="660.6,110.44 666.6,104.44" stroke-linejoin="round" stroke-linecap="round" fill="none" stroke="rgb(255,244,170)" stroke-width="2" /><polyline points="706.8,104.44 712.8,110.44" stroke-linejoin="round" stroke-linecap="round" fill="none" stroke="rgb(255,244,170)" stroke-width="2" /><polyline points="706.8,110.44 712.8,104.44" stroke-linejoin="round" stroke-linecap="round" fill="none" stroke="rgb(255,244,170)" stroke-width="2" /><polyline points="106.2,455.56 112.2,461.56" stroke-linejoin="round" stroke-linecap="round" fill="none" stroke="rgb(255,244,170)" stroke-width="2" /><polyline points="106.2,461.56 112.2,455.56" stroke-linejoin="round" stroke-linecap="round" fill="none" stroke="rgb(255,244,170)" stroke-width="2" /><polyline points="152.4,455.56 158.4,461.56" stroke-linejoin="round" stroke-linecap="round" fill="none" stroke="rgb(255,244,170)" stroke-width="2" /><polyline points="152.4,461.56 158.4,455.56" stroke-linejoin="round" stroke-linecap="round" fill="none" stroke="rgb(255,244,170)" stroke-width="2" /><polyline points="198.6,455.56 204.6,461.56" stroke-linejoin="round" stroke-linecap="round" fill="none" stroke="rgb(255,244,170)" stroke-width="2" /><polyline points="198.6,461.56 204.6,455.56" stroke-linejoin="round" stroke-linecap="round" fill="none" stroke="rgb(255,244,170)" stroke-width="2" /><polyline points="244.8,455.56 250.8,461.56" stroke-linejoin="round" stroke-linecap="round" fill="none" stroke="rgb(255,244,170)" stroke-width="2" /><polyline points="244.8,461.56 250.8,455.56" stroke-linejoin="round" stroke-linecap="round" fill="none" stroke="rgb(255,244,170)" stroke-width="2" /><polyline points="291,455.56 297,461.56" stroke-linejoin="round" stroke-linecap="round" fill="none" stroke="rgb(255,244,170)" stroke-width="2" /><polyline points="291,461.56 297,455.56" stroke-linejoin="round" stroke-linecap="round" fill="none" stroke="rgb(255,244,170)" stroke-width="2" /><polyline points="337.2,455.56 343.2,461.56" stroke-linejoin="round" stroke-linecap="round" fill="none" stroke="rgb(255,244,170)" stroke-width="2" /><polyline points="337.2,461.56 343.2,455.56" stroke-linejoin="round" stroke-linecap="round" fill="none" stroke="rgb(255,244,170)" stroke-width="2" /><polyline points="383.4,455.56 389.4,461.56" stroke-linejoin="round" stroke-linecap="round" fill="none" stroke="rgb(255,244,170)" stroke-width="2" /><polyline points="383.4,461.56 389.4,455.56" stroke-linejoin="round" stroke-linecap="round" fill="none" stroke="rgb(255,244,170)" stroke-width="2" /><polyline points="429.6,455.56 435.6,461.56" stroke-linejoin="round" stroke-linecap="round" fill="none" stroke="rgb(255,244,170)" stroke-width="2" /><polyline points="429.6,461.56 435.6,455.56" stroke-linejoin="round" stroke-linecap="round" fill="none" stroke="rgb(255,244,170)" stroke-width="2" /><polyline points="475.8,455.56 481.8,461.56" stroke-linejoin="round" stroke-linecap="round" fill="none" stroke="rgb(255,244,170)" stroke-width="2" /><polyline points="475.8,461.56 481.8,455.56" stroke-linejoin="round" stroke-linecap="round" fill="none" stroke="rgb(255,244,170)" stroke-width="2" /><polyline points="522,455.56 528,461.56" stroke-linejoin="round" stroke-linecap="round" fill="none" stroke="rgb(255,244,170)" stroke-width="2" /><polyline points="522,461.56 528,455.56" stroke-linejoin="round" stroke-linecap="round" fill="none" stroke="rgb(255,244,170)" stroke-width="2" /><polyline points="568.2,455.56 574.2,461.56" stroke-linejoin="round" stroke-linecap="round" fill="none" stroke="rgb(255,244,170)" stroke-width="2" /><polyline points="568.2,461.56 574.2,455.56" stroke-linejoin="round" stroke-linecap="round" fill="none" stroke="rgb(255,244,170)" stroke-width="2" /><polyline points="614.4,455.56 620.4,461.56" stroke-linejoin="round" stroke-linecap="round" fill="none" stroke="rgb(255,244,170)" stroke-width="2" /><polyline points="614.4,461.56 620.4,455.56" stroke-linejoin="round" stroke-linecap="round" fill="none" stroke="rgb(255,244,170)" stroke-width="2" /><polyline points="660.6,455.56 666.6,461.56" stroke-linejoin="round" stroke-linecap="round" fill="none" stroke="rgb(255,244,170)" stroke-width="2" /><polyline points="660.6,461.56 666.6,455.56" stroke-linejoin="round" stroke-linecap="round" fill="none" stroke="rgb(255,244,170)" stroke-width="2" /><polyline points="706.8,455.56 712.8,461.56" stroke-linejoin="round" stroke-linecap="round" fill="none" stroke="rgb(255,244,170)" stroke-width="2" /><polyline points="706.8,461.56 712.8,455.56" stroke-linejoin="round" stroke-linecap="round" fill="none" stroke="rgb(255,244,170)" stroke-width="2" /><polyline points="82.44,141.4 88.44,147.4" stroke-linejoin="round" stroke-linecap="round" fill="none" stroke="rgb(255,244,170)" stroke-width="2" /><polyline points="82.44,147.4 88.44,141.4" stroke-linejoin="round" stroke-linecap="round" fill="none" stroke="rgb(255,244,170)" stroke-width="2" /><polyline points="82.44,187.6 88.44,193.6" stroke-linejoin="round" stroke-linecap="round" fill="none" stroke="rgb(255,244,170)" stroke-width="2" /><polyline points="82.44,193.6 88.44,187.6" stroke-linejoin="round" stroke-linecap="round" fill="none" stroke="rgb(255,244,170)" stroke-width="2" /><polyline points="82.44,233.8 88.44,239.8" stroke-linejoin="round" stroke-linecap="round" fill="none" stroke="rgb(255,244,170)" stroke-width="2" /><polyline points="82.44,239.8 88.44,233.8" stroke-linejoin="round" stroke-linecap="round" fill="none" stroke="rgb(255,244,170)" stroke-width="2" /><polyline points="82.44,280 88.44,286" stroke-linejoin="round" stroke-linecap="round" fill="none" stroke="rgb(255,244,170)" stroke-width="2" /><polyline points="82.44,286 88.44,280" stroke-linejoin="round" stroke-linecap="round" fill="none" stroke="rgb(255,244,170)" stroke-width="2" /><polyline points="82.44,326.2 88.44,332.2" stroke-linejoin="round" stroke-linecap="round" fill="none" stroke="rgb(255,244,170)" stroke-width="2" /><polyline points="82.44,332.2 88.44,326.2" stroke-linejoin="round" stroke-linecap="round" fill="none" stroke="rgb(255,244,170)" stroke-width="2" /><polyline points="82.44,372.4 88.44,378.4" stroke-linejoin="round" stroke-linecap="round" fill="none" stroke="rgb(255,244,170)" stroke-width="2" /><polyline points="82.44,378.4 88.44,372.4" stroke-linejoin="round" stroke-linecap="round" fill="none" stroke="rgb(255,244,170)" stroke-width="2" /><polyline points="82.44,418.6 88.44,424.6" stroke-linejoin="round" stroke-linecap="round" fill="none" stroke="rgb(255,244,170)" stroke-width="2" /><polyline points="82.44,424.6 88.44,418.6" stroke-linejoin="round" stroke-linecap="round" fill="none" stroke="rgb(255,244,170)" stroke-width="2" /><polyline points="763.56,141.4 769.56,147.4" stroke-linejoin="round" stroke-linecap="round" fill="none" stroke="rgb(255,244,170)" stroke-width="2" /><polyline points="763.56,147.4 769.56,141.4" stroke-linejoin="round" stroke-linecap="round" fill="none" stroke="rgb(255,244,170)" stroke-width="2" /><polyline points="763.56,187.6 769.56,193.6" stroke-linejoin="round" stroke-linecap="round" fill="none" stroke="rgb(255,244,170)" stroke-width="2" /><polyline points="763.56,193.6 769.56,187.6" stroke-linejoin="round" stroke-linecap="round" fill="none" stroke="rgb(255,244,170)" stroke-width="2" /><polyline points="763.56,233.8 769.56,239.8" stroke-linejoin="round" stroke-linecap="round" fill="none" stroke="rgb(255,244,170)" stroke-width="2" /><polyline points="763.56,239.8 769.56,233.8" stroke-linejoin="round" stroke-linecap="round" fill="none" stroke="rgb(255,244,170)" stroke-width="2" /><polyline points="763.56,280 769.56,286" stroke-linejoin="round" stroke-linecap="round" fill="none" stroke="rgb(255,244,170)" stroke-width="2" /><polyline points="763.56,286 769.56,280" stroke-linejoin="round" stroke-linecap="round" fill="none" stroke="rgb(255,244,170)" stroke-width="2" /><polyline points="763.56,326.2 769.56,332.2" stroke-linejoin="round" stroke-linecap="round" fill="none" stroke="rgb(255,244,170)" stroke-width="2" /><polyline points="763.56,332.2 769.56,326.2" stroke-linejoin="round" stroke-linecap="round" fill="none" stroke="rgb(255,244,170)" stroke-width="2" /><polyline points="763.56,372.4 769.56,378.4" stroke-linejoin="round" stroke-linecap="round" fill="none" stroke="rgb(255,244,170)" stroke-width="2" /><polyline points="763.56,378.4 769.56,372.4" stroke-linejoin="round" stroke-linecap="round" fill="none" stroke="rgb(255,244,170)" stroke-width="2" /><polyline points="763.56,418.6 769.56,424.6" stroke-linejoin="round" stroke-linecap="round" fill="none" stroke="rgb(255,244,170)" stroke-width="2" /><polyline points="763.56,424.6 769.56,418.6" stroke-linejoin="round" stroke-linecap="round" fill="none" stroke="rgb(255,244,170)" stroke-width="2" /></g></svg>