<svg xmlns="http://www.w3.org/2000/svg" viewBox="0 0 1024 576" width="1024" height="576" font-family="Georgia, 'Times New Roman', serif"><defs><clipPath id="clip1"><rect x="0" y="0" width="314" height="470"/></clipPath></defs><rect x="0" y="0" width="1024" height="576" fill="rgb(16,16,24)"/><text x="28" y="18" font-size="24" text-anchor="start" dominant-baseline="text-before-edge" fill="rgb(216,198,143)" font-family="Georgia, 'Times New Roman', serif" font-weight="bold">East of the Jordan — Numbers 32</text><text x="28" y="52" font-size="18" text-anchor="start" dominant-baseline="text-before-edge" fill="rgb(255,244,170)" font-family="Georgia, 'Times New Roman', serif" font-style="italic">verse 27 — “but your servants will cross over, every man armed for war”</text><text x="440" y="536" font-size="14" text-anchor="start" dominant-baseline="text-before-edge" fill="rgb(140,130,100)" font-family="Georgia, 'Times New Roman', serif" font-style="italic">borders are approximate scholarly reconstructions</text><g clip-path="url(#clip1)" transform="translate(66,86)"><rect x="0" y="0" width="314" height="470" fill="rgb(24,36,54)"/><polygon points="-273.43,479.79 -240.28,460.21 -198.86,438.67 -127.6,413.21 -94.46,368.17 -74.57,338.79 -61.31,313.33 -43.09,264.38 -28.17,219.33 -18.23,176.25 -13.26,152.75 -6.63,111.63 4.97,119.46 11.6,94 16.57,70.5 18.23,60.71 31.49,25.46 48.06,-9.79 61.31,-31.33 79.54,-97.92 107.71,-141 120.97,-176.25 140.86,-205.63 160.74,-254.58 174,-303.54 182.28,-352.5 563.42,-391.67 563.42,822.5 -331.43,822.5" fill="rgb(34,35,29)"/><polyline points="-273.43,479.79 -240.28,460.21 -198.86,438.67 -127.6,413.21 -94.46,368.17 -74.57,338.79 -61.31,313.33 -43.09,264.38 -28.17,219.33 -18.23,176.25 -13.26,152.75 -6.63,111.63 4.97,119.46 11.6,94 16.57,70.5 18.23,60.71 31.49,25.46 48.06,-9.79 61.31,-31.33 79.54,-97.92 107.71,-141 120.97,-176.25 140.86,-205.63 160.74,-254.58 174,-303.54 182.28,-352.5" stroke-linejoin="round" fill="none" stroke="rgb(74,70,56)" stroke-width="2"/><polygon points="82.86,319.21 92.8,321.17 96.11,352.5 94.46,381.88 92.8,421.04 86.17,450.42 76.23,464.12 69.6,446.5 67.94,411.25 66.29,372.08 71.26,342.71 76.23,329" fill="rgb(24,36,54)" stroke="rgb(74,70,56)" stroke-width="1"/><polygon points="96.11,97.92 104.4,105.75 106.06,121.42 99.43,135.12 92.8,137.08 86.17,125.33 87.83,107.71" fill="rgb(24,36,54)" stroke="rgb(74,70,56)" stroke-width="1"/><polygon points="97.77,58.75 102.74,66.58 99.43,74.42 94.46,68.54" fill="rgb(24,36,54)" stroke="rgb(74,70,56)" stroke-width="1"/><polyline points="104.4,29.37 99.43,58.75 96.11,97.92" stroke-linejoin="round" fill="none" stroke="rgb(78,112,148)" stroke-width="2"/><polyline points="94.46,137.08 91.14,166.46 92.8,195.83 89.48,225.21 89.48,254.58 86.17,283.96 84.51,319.21" stroke-linejoin="round" fill="none" stroke="rgb(78,112,148)" stroke-width="2"/><polyline points="94.46,377.96 132.57,383.83 174,377.96 207.14,391.67" stroke-linejoin="round" fill="none" stroke="rgb(78,112,148)" stroke-width="2"/><polyline points="92.8,236.96 119.31,240.87 145.83,258.5 162.4,276.13 178.97,264.38" stroke-linejoin="round" fill="none" stroke="rgb(78,112,148)" stroke-width="2"/><polyline points="94.46,141 124.28,135.12 157.43,125.33 190.57,131.21" stroke-linejoin="round" fill="none" stroke="rgb(78,112,148)" stroke-width="2"/><polygon points="102.74,166.46 157.43,195.83 169.03,264.38 165.71,332.92 157.43,381.88 107.71,381.88 99.43,332.92 96.11,254.58 96.11,195.83" fill="rgb(255,244,170)" fill-opacity="0.110"/><polygon points="82.86,319.21 92.8,321.17 96.11,352.5 94.46,381.88 92.8,421.04 86.17,450.42 76.23,464.12 69.6,446.5 67.94,411.25 66.29,372.08 71.26,342.71 76.23,329" fill="rgb(24,36,54)" stroke="rgb(74,70,56)" stroke-width="1"/><polygon points="96.11,97.92 104.4,105.75 106.06,121.42 99.43,135.12 92.8,137.08 86.17,125.33 87.83,107.71" fill="rgb(24,36,54)" stroke="rgb(74,70,56)" stroke-width="1"/><polygon points="97.77,58.75 102.74,66.58 99.43,74.42 94.46,68.54" fill="rgb(24,36,54)" stroke="rgb(74,70,56)" stroke-width="1"/><polyline points="119.31,278.08 53.03,283.96" fill="none" stroke-linejoin="round" stroke="rgb(255,244,170)" stroke-width="3" stroke-dasharray="66.54" stroke-dashoffset="66.54" stroke-opacity="0.898"><animate attributeName="stroke-dashoffset" values="66.54;0" dur="2.6s" begin="0s" fill="freeze" calcMode="spline" keyTimes="0;1" keySplines="0.42 0 0.58 1"/></polyline><line x1="63.03" y1="276.96" x2="53.03" y2="283.96" stroke="rgb(255,244,170)" stroke-width="3" stroke-opacity="0.898"/><line x1="64.03" y1="288.96" x2="53.03" y2="283.96" stroke="rgb(255,244,170)" stroke-width="3" stroke-opacity="0.898"/><text x="99.43" y="440.63" font-size="14" text-anchor="start" dominant-baseline="central" fill="rgb(110,132,158)" font-family="Georgia, 'Times New Roman', serif" font-style="italic">Salt Sea</text><text x="112.68" y="113.58" font-size="14" text-anchor="start" dominant-baseline="central" fill="rgb(110,132,158)" font-family="Georgia, 'Times New Roman', serif" font-style="italic">Chinnereth</text><text x="79.54" y="215.42" font-size="14" text-anchor="end" dominant-baseline="central" fill="rgb(110,132,158)" font-family="Georgia, 'Times New Roman', serif" font-style="italic">Jordan</text><text x="198.86" y="399.5" font-size="14" text-anchor="start" dominant-baseline="central" fill="rgb(110,132,158)" font-family="Georgia, 'Times New Roman', serif" font-style="italic">Arnon</text><text x="155.77" y="262.42" font-size="14" text-anchor="start" dominant-baseline="text-before-edge" fill="rgb(110,132,158)" font-family="Georgia, 'Times New Roman', serif" font-style="italic">Jabbok</text><text x="198.86" y="430.83" font-size="14" text-anchor="middle" dominant-baseline="central" fill="rgb(140,130,100)" font-family="Georgia, 'Times New Roman', serif">MOAB</text><text x="240.28" y="303.54" font-size="14" text-anchor="middle" dominant-baseline="central" fill="rgb(140,130,100)" font-family="Georgia, 'Times New Roman', serif">AMMON</text><text x="207.14" y="88.12" font-size="14" text-anchor="middle" dominant-baseline="central" fill="rgb(140,130,100)" font-family="Georgia, 'Times New Roman', serif">BASHAN</text><text x="119.31" y="225.21" font-size="14" text-anchor="start" dominant-baseline="central" fill="rgb(140,130,100)" font-family="Georgia, 'Times New Roman', serif">GILEAD</text><text x="33.14" y="332.92" font-size="14" text-anchor="middle" dominant-baseline="central" fill="rgb(140,130,100)" font-family="Georgia, 'Times New Roman', serif">CANAAN</text><circle cx="72.91" cy="299.62" r="3" fill="none" stroke="rgb(74,70,56)" stroke-width="2"/><text x="64.91" y="309.62" font-size="14" text-anchor="end" dominant-baseline="central" fill="rgb(140,130,100)" font-family="Georgia, 'Times New Roman', serif" font-style="italic">Jericho</text><text x="86.17" y="258.5" font-size="14" text-anchor="middle" dominant-baseline="text-after-edge" fill="rgb(216,198,143)" font-family="Georgia, 'Times New Roman', serif" font-style="italic">armed, ahead of Israel</text><line x1="290" y1="430" x2="290" y2="408" stroke="rgb(140,130,100)" stroke-width="2"/><line x1="285" y1="416" x2="290" y2="408" stroke="rgb(140,130,100)" stroke-width="2"/><line x1="295" y1="416" x2="290" y2="408" stroke="rgb(140,130,100)" stroke-width="2"/><text x="280" y="410" font-size="14" text-anchor="end" dominant-baseline="central" fill="rgb(140,130,100)" font-family="Georgia, 'Times New Roman', serif">N</text><line x1="209.79" y1="454" x2="298" y2="454" stroke="rgb(140,130,100)" stroke-width="2"/><line x1="209.79" y1="451" x2="209.79" y2="457" stroke="rgb(140,130,100)" stroke-width="2"/><line x1="298" y1="451" x2="298" y2="457" stroke="rgb(140,130,100)" stroke-width="2"/><text x="253.89" y="448" font-size="14" text-anchor="middle" dominant-baseline="text-after-edge" fill="rgb(140,130,100)" font-family="Georgia, 'Times New Roman', serif" font-style="italic">50 km</text></g><rect x="65" y="85" width="315" height="471" fill="none" stroke="rgb(74,70,56)" stroke-width="1"/></svg>