<svg xmlns="http://www.w3.org/2000/svg" viewBox="0 0 1024 576" width="1024" height="576" font-family="Georgia, 'Times New Roman', serif"><defs><clipPath id="clip1"><rect x="0" y="0" width="332" height="470"/></clipPath></defs><rect x="0" y="0" width="1024" height="576" fill="rgb(16,16,24)"/><text x="28" y="18" font-size="24" text-anchor="start" dominant-baseline="text-before-edge" fill="rgb(216,198,143)" font-family="Georgia, 'Times New Roman', serif" font-weight="bold">Dividing the Inheritance — Numbers 34</text><text x="28" y="52" font-size="18" text-anchor="start" dominant-baseline="text-before-edge" fill="rgb(255,244,170)" font-family="Georgia, 'Times New Roman', serif" font-style="italic">verse 24 — for the tribe of Ephraim: Kemuel son of Shiphtan</text><text x="440" y="536" font-size="14" text-anchor="start" dominant-baseline="text-before-edge" fill="rgb(140,130,100)" font-family="Georgia, 'Times New Roman', serif" font-style="italic">borders are approximate scholarly reconstructions</text><g clip-path="url(#clip1)" transform="translate(57,86)"><rect x="0" y="0" width="332" height="470" fill="rgb(24,36,54)"/><polygon points="-112.93,399.5 -86.36,383.83 -53.14,366.6 3.99,346.23 30.56,310.2 46.5,286.7 57.13,266.33 71.74,227.17 83.7,191.13 91.67,156.67 95.66,137.87 100.97,104.97 110.27,111.23 115.59,90.87 119.57,72.07 120.9,64.23 131.53,36.03 144.82,7.83 155.45,-9.4 170.06,-62.67 192.65,-97.13 203.28,-125.33 219.22,-148.83 235.16,-188 245.79,-227.17 252.44,-266.33 558.02,-297.67 558.02,673.67 -159.43,673.67" fill="rgb(34,35,29)"/><polyline points="-112.93,399.5 -86.36,383.83 -53.14,366.6 3.99,346.23 30.56,310.2 46.5,286.7 57.13,266.33 71.74,227.17 83.7,191.13 91.67,156.67 95.66,137.87 100.97,104.97 110.27,111.23 115.59,90.87 119.57,72.07 120.9,64.23 131.53,36.03 144.82,7.83 155.45,-9.4 170.06,-62.67 192.65,-97.13 203.28,-125.33 219.22,-148.83 235.16,-188 245.79,-227.17 252.44,-266.33" stroke-linejoin="round" fill="none" stroke="rgb(74,70,56)" stroke-width="2"/><polygon points="172.72,271.03 180.69,272.6 183.35,297.67 182.02,321.17 180.69,352.5 175.38,376 167.4,386.97 162.09,372.87 160.76,344.67 159.43,313.33 163.42,289.83 167.4,278.87" fill="rgb(24,36,54)" stroke="rgb(74,70,56)" stroke-width="1"/><polygon points="183.35,94 189.99,100.27 191.32,112.8 186.01,123.77 180.69,125.33 175.38,115.93 176.7,101.83" fill="rgb(24,36,54)" stroke="rgb(74,70,56)" stroke-width="1"/><polygon points="184.68,62.67 188.66,68.93 186.01,75.2 182.02,70.5" fill="rgb(24,36,54)" stroke="rgb(74,70,56)" stroke-width="1"/><polyline points="189.99,39.17 186.01,62.67 183.35,94" stroke-linejoin="round" fill="none" stroke="rgb(78,112,148)" stroke-width="2"/><polyline points="182.02,125.33 179.36,148.83 180.69,172.33 178.03,195.83 178.03,219.33 175.38,242.83 174.05,271.03" stroke-linejoin="round" fill="none" stroke="rgb(78,112,148)" stroke-width="2"/><polyline points="182.02,318.03 212.58,322.73 245.79,318.03 272.36,329" stroke-linejoin="round" fill="none" stroke="rgb(78,112,148)" stroke-width="2"/><polyline points="180.69,205.23 201.95,208.37 223.21,222.47 236.49,236.57 249.78,227.17" stroke-linejoin="round" fill="none" stroke="rgb(78,112,148)" stroke-width="2"/><polyline points="182.02,128.47 205.93,123.77 232.51,115.93 259.08,120.63" stroke-linejoin="round" fill="none" stroke="rgb(78,112,148)" stroke-width="2"/><polygon points="-53.14,366.6 19.93,321.17 55.8,269.47 93,266.33 116.92,274.17 132.86,278.87 156.78,269.47 167.4,272.6 159.43,305.5 160.76,344.67 166.08,386.97 126.22,407.33 93,426.13 29.23,449.63 0,415.17 -26.57,399.5" fill="rgb(176,112,88)" fill-opacity="0.165"/><polygon points="26.57,321.17 99.65,325.87 112.93,347.8 93,383.83 39.86,391.67 13.29,360.33" fill="rgb(150,140,82)" fill-opacity="0.165"/><polygon points="116.92,274.17 122.23,245.97 148.8,242.83 172.72,253.8 168.73,269.47 132.86,278.87" fill="rgb(116,148,172)" fill-opacity="0.165"/><polygon points="55.8,269.47 71.74,227.17 112.93,231.87 122.23,245.97 116.92,274.17 93,266.33" fill="rgb(176,152,92)" fill-opacity="0.165"/><polygon points="71.74,227.17 87.69,188 126.22,184.87 159.43,200.53 175.38,216.2 172.72,242.83 148.8,242.83 122.23,245.97 112.93,231.87" fill="rgb(108,160,118)" stroke="none" fill-opacity="0.235"><animate attributeName="fill-opacity" values="0.235;0.588" dur="2.6s" begin="0s" fill="freeze" calcMode="spline" keyTimes="0;1" keySplines="0.42 0 0.58 1"/></polygon><polygon points="87.69,188 95.66,137.87 100.97,104.97 112.93,112.8 130.2,133.17 146.15,148.83 162.09,156.67 178.03,159.8 179.36,172.33 175.38,216.2 159.43,200.53 126.22,184.87" fill="rgb(92,142,152)" fill-opacity="0.165"/><polygon points="146.15,148.83 150.13,125.33 166.08,117.5 179.36,125.33 180.69,141 178.03,159.8 162.09,156.67" fill="rgb(162,118,150)" fill-opacity="0.165"/><polygon points="122.23,117.5 130.2,86.17 152.79,81.47 162.09,101.83 166.08,117.5 150.13,125.33 132.86,128.47" fill="rgb(128,128,182)" fill-opacity="0.165"/><polygon points="100.97,104.97 115.59,90.87 120.9,64.23 131.53,36.03 146.15,12.53 166.08,23.5 159.43,62.67 152.79,81.47 130.2,86.17 122.23,117.5 112.93,112.8" fill="rgb(98,162,158)" fill-opacity="0.165"/><polygon points="162.09,101.83 152.79,81.47 159.43,62.67 166.08,23.5 188.66,31.33 189.99,70.5 182.02,97.13 175.38,109.67 166.08,117.5" fill="rgb(152,162,98)" fill-opacity="0.165"/><polygon points="176.7,253.8 245.79,250.67 245.79,321.17 212.58,322.73 182.02,318.03 183.35,282 176.7,271.03" fill="rgb(150,116,84)" fill-opacity="0.102"/><polygon points="176.7,253.8 178.03,219.33 180.69,180.17 183.35,128.47 205.93,148.83 228.52,172.33 245.79,188 245.79,250.67" fill="rgb(112,146,108)" fill-opacity="0.102"/><polygon points="183.35,128.47 188.66,94 192.65,39.17 232.51,39.17 298.94,62.67 325.51,125.33 259.08,141 228.52,172.33 205.93,148.83" fill="rgb(92,142,152)" fill-opacity="0.102"/><polygon points="172.72,271.03 180.69,272.6 183.35,297.67 182.02,321.17 180.69,352.5 175.38,376 167.4,386.97 162.09,372.87 160.76,344.67 159.43,313.33 163.42,289.83 167.4,278.87" fill="rgb(24,36,54)" stroke="rgb(74,70,56)" stroke-width="1"/><polygon points="183.35,94 189.99,100.27 191.32,112.8 186.01,123.77 180.69,125.33 175.38,115.93 176.7,101.83" fill="rgb(24,36,54)" stroke="rgb(74,70,56)" stroke-width="1"/><polygon points="184.68,62.67 188.66,68.93 186.01,75.2 182.02,70.5" fill="rgb(24,36,54)" stroke="rgb(74,70,56)" stroke-width="1"/><polyline points="-53.14,366.6 19.93,321.17 55.8,269.47 93,266.33 116.92,274.17 132.86,278.87 156.78,269.47 167.4,272.6 159.43,305.5 160.76,344.67 166.08,386.97 126.22,407.33 93,426.13 29.23,449.63 0,415.17 -26.57,399.5 -53.14,366.6" stroke-linejoin="round" fill="none" stroke="rgb(74,70,56)" stroke-width="1"/><polyline points="26.57,321.17 99.65,325.87 112.93,347.8 93,383.83 39.86,391.67 13.29,360.33 26.57,321.17" stroke-linejoin="round" fill="none" stroke="rgb(74,70,56)" stroke-width="1"/><polyline points="116.92,274.17 122.23,245.97 148.8,242.83 172.72,253.8 168.73,269.47 132.86,278.87 116.92,274.17" stroke-linejoin="round" fill="none" stroke="rgb(74,70,56)" stroke-width="1"/><polyline points="55.8,269.47 71.74,227.17 112.93,231.87 122.23,245.97 116.92,274.17 93,266.33 55.8,269.47" stroke-linejoin="round" fill="none" stroke="rgb(74,70,56)" stroke-width="1"/><polyline points="87.69,188 95.66,137.87 100.97,104.97 112.93,112.8 130.2,133.17 146.15,148.83 162.09,156.67 178.03,159.8 179.36,172.33 175.38,216.2 159.43,200.53 126.22,184.87 87.69,188" stroke-linejoin="round" fill="none" stroke="rgb(74,70,56)" stroke-width="1"/><polyline points="146.15,148.83 150.13,125.33 166.08,117.5 179.36,125.33 180.69,141 178.03,159.8 162.09,156.67 146.15,148.83" stroke-linejoin="round" fill="none" stroke="rgb(74,70,56)" stroke-width="1"/><polyline points="122.23,117.5 130.2,86.17 152.79,81.47 162.09,101.83 166.08,117.5 150.13,125.33 132.86,128.47 122.23,117.5" stroke-linejoin="round" fill="none" stroke="rgb(74,70,56)" stroke-width="1"/><polyline points="100.97,104.97 115.59,90.87 120.9,64.23 131.53,36.03 146.15,12.53 166.08,23.5 159.43,62.67 152.79,81.47 130.2,86.17 122.23,117.5 112.93,112.8 100.97,104.97" stroke-linejoin="round" fill="none" stroke="rgb(74,70,56)" stroke-width="1"/><polyline points="162.09,101.83 152.79,81.47 159.43,62.67 166.08,23.5 188.66,31.33 189.99,70.5 182.02,97.13 175.38,109.67 166.08,117.5 162.09,101.83" stroke-linejoin="round" fill="none" stroke="rgb(74,70,56)" stroke-width="1"/><polyline points="176.7,253.8 245.79,250.67 245.79,321.17 212.58,322.73 182.02,318.03 183.35,282 176.7,271.03 176.7,253.8" stroke-linejoin="round" fill="none" stroke="rgb(74,70,56)" stroke-width="1"/><polyline points="176.7,253.8 178.03,219.33 180.69,180.17 183.35,128.47 205.93,148.83 228.52,172.33 245.79,188 245.79,250.67 176.7,253.8" stroke-linejoin="round" fill="none" stroke="rgb(74,70,56)" stroke-width="1"/><polyline points="183.35,128.47 188.66,94 192.65,39.17 232.51,39.17 298.94,62.67 325.51,125.33 259.08,141 228.52,172.33 205.93,148.83 183.35,128.47" stroke-linejoin="round" fill="none" stroke="rgb(74,70,56)" stroke-width="1"/><polyline points="71.74,227.17 87.69,188 126.22,184.87 159.43,200.53 175.38,216.2 172.72,242.83 148.8,242.83 122.23,245.97 112.93,231.87 71.74,227.17" fill="none" stroke-linejoin="round" stroke="rgb(255,244,170)" stroke-width="3" stroke-dasharray="275.8" stroke-dashoffset="275.8" stroke-opacity="0.949"><animate attributeName="stroke-dashoffset" values="275.8;0" dur="2.6s" begin="0s" fill="freeze" calcMode="spline" keyTimes="0;1" keySplines="0.42 0 0.58 1"/></polyline><text x="99.65" y="300.8" font-size="14" text-anchor="middle" dominant-baseline="central" fill="rgb(216,198,143)" font-family="Georgia, 'Times New Roman', serif">Judah</text><text x="55.8" y="372.87" font-size="14" text-anchor="middle" dominant-baseline="central" fill="rgb(216,198,143)" font-family="Georgia, 'Times New Roman', serif">Simeon</text><text x="154.12" y="258.5" font-size="14" text-anchor="middle" dominant-baseline="central" fill="rgb(216,198,143)" font-family="Georgia, 'Times New Roman', serif">Benjamin</text><text x="87.69" y="247.53" font-size="14" text-anchor="middle" dominant-baseline="central" fill="rgb(216,198,143)" font-family="Georgia, 'Times New Roman', serif">Dan</text><text x="122.23" y="211.5" font-size="14" text-anchor="middle" dominant-baseline="central" fill="rgb(255,244,170)" font-family="Georgia, 'Times New Roman', serif" font-weight="bold">Ephraim</text><text x="114.26" y="169.2" font-size="14" text-anchor="middle" dominant-baseline="central" fill="rgb(216,198,143)" font-family="Georgia, 'Times New Roman', serif">Manasseh</text><text x="166.08" y="147.27" font-size="14" text-anchor="middle" dominant-baseline="central" fill="rgb(216,198,143)" font-family="Georgia, 'Times New Roman', serif">Issachar</text><text x="142.16" y="101.83" font-size="14" text-anchor="middle" dominant-baseline="central" fill="rgb(216,198,143)" font-family="Georgia, 'Times New Roman', serif">Zebulun</text><text x="132.86" y="70.5" font-size="14" text-anchor="middle" dominant-baseline="central" fill="rgb(216,198,143)" font-family="Georgia, 'Times New Roman', serif">Asher</text><text x="179.36" y="54.83" font-size="14" text-anchor="middle" dominant-baseline="central" fill="rgb(216,198,143)" font-family="Georgia, 'Times New Roman', serif">Naphtali</text><text x="232.51" y="344.67" font-size="14" text-anchor="middle" dominant-baseline="central" fill="rgb(140,130,100)" font-family="Georgia, 'Times New Roman', serif">Reuben</text><text x="215.23" y="214.63" font-size="14" text-anchor="middle" dominant-baseline="central" fill="rgb(140,130,100)" font-family="Georgia, 'Times New Roman', serif">Gad</text><text x="252.44" y="94" font-size="14" text-anchor="middle" dominant-baseline="central" fill="rgb(140,130,100)" font-family="Georgia, 'Times New Roman', serif">Manasseh</text><text x="53.14" y="222.47" font-size="14" text-anchor="middle" dominant-baseline="central" fill="rgb(110,132,158)" font-family="Georgia, 'Times New Roman', serif" font-style="italic">The Great Sea</text><text x="188.66" y="399.5" font-size="14" text-anchor="start" dominant-baseline="central" fill="rgb(110,132,158)" font-family="Georgia, 'Times New Roman', serif" font-style="italic">Salt Sea</text><line x1="308" y1="430" x2="308" y2="408" stroke="rgb(140,130,100)" stroke-width="2"/><line x1="303" y1="416" x2="308" y2="408" stroke="rgb(140,130,100)" stroke-width="2"/><line x1="313" y1="416" x2="308" y2="408" stroke="rgb(140,130,100)" stroke-width="2"/><text x="298" y="410" font-size="14" text-anchor="end" dominant-baseline="central" fill="rgb(140,130,100)" font-family="Georgia, 'Times New Roman', serif">N</text><line x1="245.43" y1="454" x2="316" y2="454" stroke="rgb(140,130,100)" stroke-width="2"/><line x1="245.43" y1="451" x2="245.43" y2="457" stroke="rgb(140,130,100)" stroke-width="2"/><line x1="316" y1="451" x2="316" y2="457" stroke="rgb(140,130,100)" stroke-width="2"/><text x="280.71" y="448" font-size="14" text-anchor="middle" dominant-baseline="text-after-edge" fill="rgb(140,130,100)" font-family="Georgia, 'Times New Roman', serif" font-style="italic">50 km</text></g><rect x="56" y="85" width="333" height="471" fill="none" stroke="rgb(74,70,56)" stroke-width="1"/><text x="440" y="130" font-size="30" text-anchor="start" dominant-baseline="text-before-edge" fill="rgb(255,244,170)" font-family="Georgia, 'Times New Roman', serif" font-weight="bold">Ephraim</text><text x="440" y="176" font-size="15" text-anchor="start" dominant-baseline="text-before-edge" fill="rgb(216,198,143)" font-family="Georgia, 'Times New Roman', serif">prince: Kemuel son of Shiphtan</text><text x="440" y="212" font-size="15" text-anchor="start" dominant-baseline="text-before-edge" fill="rgb(216,198,143)" font-family="Georgia, 'Times New Roman', serif">the central hill country —</text><text x="440" y="234" font-size="15" text-anchor="start" dominant-baseline="text-before-edge" fill="rgb(216,198,143)" font-family="Georgia, 'Times New Roman', serif">Shechem, Shiloh, Bethel</text><text x="440" y="330" font-size="14" text-anchor="start" dominant-baseline="text-before-edge" fill="rgb(140,130,100)" font-family="Georgia, 'Times New Roman', serif" font-style="italic">territory as described in Joshua 13-19</text><text x="440" y="352" font-size="14" text-anchor="start" dominant-baseline="text-before-edge" fill="rgb(140,130,100)" font-family="Georgia, 'Times New Roman', serif" font-style="italic">Reuben, Gad, half-Manasseh: already</text><text x="440" y="372" font-size="14" text-anchor="start" dominant-baseline="text-before-edge" fill="rgb(140,130,100)" font-family="Georgia, 'Times New Roman', serif" font-style="italic">settled east of the Jordan (Num 32)</text></svg>